<ttFont>
    <TTGlyph name="A" xMin="86" yMin="-61" xMax="1458" yMax="1499">
      <contour>
        <pt x="1360" y="-61" on="1"/>
        <pt x="1286" y="-51" on="0"/>
        <pt x="1175" y="-36" on="0"/>
        <pt x="1078" y="-27" on="0"/>
        <pt x="986" y="-23" on="0"/>
        <pt x="932" y="-23" on="1"/>
        <pt x="958" y="64" on="0"/>
        <pt x="995" y="246" on="0"/>
        <pt x="1006" y="342" on="1"/>
        <pt x="946" y="344" on="0"/>
        <pt x="820" y="346" on="0"/>
        <pt x="758" y="346" on="1"/>
        <pt x="631" y="346" on="0"/>
        <pt x="514" y="340" on="1"/>
        <pt x="519" y="250" on="0"/>
        <pt x="537" y="71" on="0"/>
        <pt x="551" y="-18" on="1"/>
        <pt x="480" y="-23" on="0"/>
        <pt x="368" y="-31" on="0"/>
        <pt x="282" y="-38" on="0"/>
        <pt x="220" y="-45" on="0"/>
        <pt x="198" y="-48" on="1"/>
        <pt x="147" y="-55" on="0"/>
        <pt x="129" y="-61" on="1"/>
        <pt x="116" y="4" on="0"/>
        <pt x="99" y="148" on="0"/>
        <pt x="90" y="291" on="0"/>
        <pt x="86" y="427" on="0"/>
        <pt x="86" y="485" on="1"/>
        <pt x="86" y="606" on="0"/>
        <pt x="105" y="850" on="0"/>
        <pt x="158" y="1076" on="0"/>
        <pt x="252" y="1271" on="0"/>
        <pt x="404" y="1416" on="0"/>
        <pt x="620" y="1499" on="0"/>
        <pt x="768" y="1499" on="1"/>
        <pt x="920" y="1499" on="0"/>
        <pt x="1174" y="1406" on="0"/>
        <pt x="1357" y="1212" on="0"/>
        <pt x="1458" y="913" on="0"/>
        <pt x="1458" y="707" on="1"/>
        <pt x="1458" y="654" on="0"/>
        <pt x="1453" y="496" on="0"/>
        <pt x="1433" y="298" on="0"/>
        <pt x="1394" y="65" on="0"/>
      </contour>
      <contour>
        <pt x="688" y="600" on="1"/>
        <pt x="775" y="600" on="0"/>
        <pt x="948" y="607" on="0"/>
        <pt x="1026" y="616" on="1"/>
        <pt x="1028" y="639" on="0"/>
        <pt x="1028" y="686" on="0"/>
        <pt x="1028" y="711" on="1"/>
        <pt x="1028" y="863" on="0"/>
        <pt x="1001" y="1145" on="0"/>
        <pt x="975" y="1266" on="1"/>
        <pt x="952" y="1268" on="0"/>
        <pt x="897" y="1270" on="0"/>
        <pt x="866" y="1270" on="1"/>
        <pt x="825" y="1270" on="0"/>
        <pt x="738" y="1267" on="0"/>
        <pt x="655" y="1262" on="0"/>
        <pt x="579" y="1254" on="0"/>
        <pt x="551" y="1249" on="1"/>
        <pt x="529" y="1090" on="0"/>
        <pt x="508" y="769" on="0"/>
        <pt x="508" y="604" on="1"/>
        <pt x="551" y="601" on="0"/>
        <pt x="642" y="600" on="0"/>
      </contour>
    </TTGlyph>
    <TTGlyph name="AE" xMin="86" yMin="-61" xMax="2136" yMax="1499">
      <contour>
        <pt x="2134" y="244" on="1"/>
        <pt x="2133" y="230" on="0"/>
        <pt x="2132" y="213" on="1"/>
        <pt x="2131" y="199" on="0"/>
        <pt x="2130" y="159" on="0"/>
        <pt x="2130" y="135" on="1"/>
        <pt x="2130" y="104" on="0"/>
        <pt x="2133" y="32" on="0"/>
        <pt x="2136" y="-6" on="1"/>
        <pt x="2098" y="-4" on="0"/>
        <pt x="2017" y="-4" on="0"/>
        <pt x="1978" y="-4" on="1"/>
        <pt x="1886" y="-4" on="0"/>
        <pt x="1728" y="-5" on="0"/>
        <pt x="1577" y="-6" on="0"/>
        <pt x="1425" y="-9" on="0"/>
        <pt x="1254" y="-14" on="0"/>
        <pt x="1055" y="-19" on="0"/>
        <pt x="932" y="-23" on="1"/>
        <pt x="958" y="64" on="0"/>
        <pt x="995" y="246" on="0"/>
        <pt x="1006" y="342" on="1"/>
        <pt x="946" y="344" on="0"/>
        <pt x="820" y="346" on="0"/>
        <pt x="758" y="346" on="1"/>
        <pt x="631" y="346" on="0"/>
        <pt x="514" y="340" on="1"/>
        <pt x="519" y="250" on="0"/>
        <pt x="537" y="71" on="0"/>
        <pt x="551" y="-18" on="1"/>
        <pt x="480" y="-23" on="0"/>
        <pt x="368" y="-31" on="0"/>
        <pt x="282" y="-38" on="0"/>
        <pt x="220" y="-45" on="0"/>
        <pt x="198" y="-48" on="1"/>
        <pt x="147" y="-55" on="0"/>
        <pt x="129" y="-61" on="1"/>
        <pt x="116" y="4" on="0"/>
        <pt x="99" y="148" on="0"/>
        <pt x="90" y="291" on="0"/>
        <pt x="86" y="427" on="0"/>
        <pt x="86" y="485" on="1"/>
        <pt x="86" y="606" on="0"/>
        <pt x="105" y="850" on="0"/>
        <pt x="158" y="1076" on="0"/>
        <pt x="252" y="1271" on="0"/>
        <pt x="404" y="1416" on="0"/>
        <pt x="620" y="1499" on="0"/>
        <pt x="768" y="1499" on="1"/>
        <pt x="846" y="1499" on="0"/>
        <pt x="990" y="1475" on="0"/>
        <pt x="1055" y="1450" on="1"/>
        <pt x="1055" y="1456" on="0"/>
        <pt x="1053" y="1466" on="0"/>
        <pt x="1053" y="1473" on="1"/>
        <pt x="1156" y="1473" on="0"/>
        <pt x="1361" y="1470" on="0"/>
        <pt x="1466" y="1470" on="1"/>
        <pt x="1624" y="1470" on="0"/>
        <pt x="1942" y="1480" on="0"/>
        <pt x="2109" y="1497" on="1"/>
        <pt x="2104" y="1463" on="0"/>
        <pt x="2101" y="1400" on="0"/>
        <pt x="2101" y="1372" on="1"/>
        <pt x="2101" y="1345" on="0"/>
        <pt x="2103" y="1300" on="0"/>
        <pt x="2105" y="1284" on="1"/>
        <pt x="2107" y="1266" on="0"/>
        <pt x="2109" y="1251" on="1"/>
        <pt x="1992" y="1245" on="0"/>
        <pt x="1878" y="1241" on="1"/>
        <pt x="1830" y="1239" on="0"/>
        <pt x="1724" y="1236" on="0"/>
        <pt x="1620" y="1233" on="0"/>
        <pt x="1521" y="1231" on="0"/>
        <pt x="1479" y="1231" on="1"/>
        <pt x="1477" y="1184" on="0"/>
        <pt x="1474" y="1127" on="1"/>
        <pt x="1472" y="1078" on="0"/>
        <pt x="1466" y="947" on="0"/>
        <pt x="1464" y="872" on="1"/>
        <pt x="1586" y="876" on="0"/>
        <pt x="1835" y="888" on="0"/>
        <pt x="1972" y="899" on="1"/>
        <pt x="1969" y="861" on="0"/>
        <pt x="1964" y="784" on="0"/>
        <pt x="1964" y="743" on="1"/>
        <pt x="1964" y="716" on="0"/>
        <pt x="1967" y="660" on="0"/>
        <pt x="1972" y="631" on="1"/>
        <pt x="1907" y="636" on="0"/>
        <pt x="1777" y="641" on="0"/>
        <pt x="1712" y="641" on="1"/>
        <pt x="1649" y="641" on="0"/>
        <pt x="1523" y="636" on="0"/>
        <pt x="1458" y="631" on="1"/>
        <pt x="1458" y="463" on="1"/>
        <pt x="1458" y="403" on="0"/>
        <pt x="1460" y="292" on="0"/>
        <pt x="1462" y="244" on="1"/>
        <pt x="1527" y="246" on="0"/>
        <pt x="1675" y="246" on="0"/>
        <pt x="1749" y="246" on="1"/>
        <pt x="1824" y="246" on="0"/>
        <pt x="1963" y="245" on="0"/>
        <pt x="2017" y="245" on="1"/>
        <pt x="2079" y="244" on="0"/>
      </contour>
      <contour>
        <pt x="688" y="600" on="1"/>
        <pt x="775" y="600" on="0"/>
        <pt x="948" y="607" on="0"/>
        <pt x="1026" y="616" on="1"/>
        <pt x="1028" y="639" on="0"/>
        <pt x="1028" y="686" on="0"/>
        <pt x="1028" y="711" on="1"/>
        <pt x="1028" y="863" on="0"/>
        <pt x="1001" y="1145" on="0"/>
        <pt x="975" y="1266" on="1"/>
        <pt x="952" y="1268" on="0"/>
        <pt x="897" y="1270" on="0"/>
        <pt x="866" y="1270" on="1"/>
        <pt x="825" y="1270" on="0"/>
        <pt x="738" y="1267" on="0"/>
        <pt x="655" y="1262" on="0"/>
        <pt x="579" y="1254" on="0"/>
        <pt x="551" y="1249" on="1"/>
        <pt x="529" y="1090" on="0"/>
        <pt x="508" y="769" on="0"/>
        <pt x="508" y="604" on="1"/>
        <pt x="551" y="601" on="0"/>
        <pt x="642" y="600" on="0"/>
      </contour>
    </TTGlyph>
    <TTGlyph name="AEacute" xMin="86" yMin="-61" xMax="2136" yMax="1969">
      <component glyphName="AE" x="0" y="0" flags="0x204"/>
      <component glyphName="acute" x="1008" y="410" flags="0x4"/>
    </TTGlyph>
    <TTGlyph name="Aacute" xMin="86" yMin="-61" xMax="1458" yMax="1962">
      <component glyphName="A" x="0" y="0" flags="0x204"/>
      <component glyphName="acute" x="721" y="403" flags="0x4"/>
    </TTGlyph>
    <TTGlyph name="Abreve" xMin="86" yMin="-61" xMax="1458" yMax="1903">
      <component glyphName="A" x="0" y="0" flags="0x204"/>
      <component glyphName="breve" x="391" y="410" flags="0x4"/>
    </TTGlyph>
    <TTGlyph name="Acircumflex" xMin="86" yMin="-61" xMax="1458" yMax="1915">
      <component glyphName="A" x="0" y="0" flags="0x204"/>
      <component glyphName="circumflex" x="377" y="408" flags="0x4"/>
    </TTGlyph>
    <TTGlyph name="Adieresis" xMin="86" yMin="-61" xMax="1458" yMax="1749">
      <component glyphName="A" x="0" y="0" flags="0x204"/>
      <component glyphName="dieresis" x="420" y="295" flags="0x4"/>
    </TTGlyph>
    <TTGlyph name="Agrave" xMin="86" yMin="-61" xMax="1458" yMax="1948">
      <component glyphName="A" x="0" y="0" flags="0x204"/>
      <component glyphName="grave" x="299" y="389" flags="0x4"/>
    </TTGlyph>
    <TTGlyph name="Amacron" xMin="86" yMin="-61" xMax="1458" yMax="1784">
      <component glyphName="A" x="0" y="0" flags="0x204"/>
      <component glyphName="macron" x="420" y="326" flags="0x4"/>
    </TTGlyph>
    <TTGlyph name="Aogonek" xMin="86" yMin="-473" xMax="1458" yMax="1499">
      <contour>
        <pt x="1458" y="-412" on="1"/>
        <pt x="1404" y="-440" on="0"/>
        <pt x="1285" y="-473" on="0"/>
        <pt x="1219" y="-473" on="1"/>
        <pt x="1162" y="-473" on="0"/>
        <pt x="1059" y="-451" on="0"/>
        <pt x="982" y="-406" on="0"/>
        <pt x="936" y="-338" on="0"/>
        <pt x="936" y="-291" on="1"/>
        <pt x="936" y="-256" on="0"/>
        <pt x="960" y="-186" on="0"/>
        <pt x="999" y="-118" on="0"/>
        <pt x="1051" y="-55" on="0"/>
        <pt x="1079" y="-27" on="1"/>
        <pt x="1044" y="-24" on="0"/>
        <pt x="974" y="-23" on="0"/>
        <pt x="932" y="-23" on="1"/>
        <pt x="958" y="64" on="0"/>
        <pt x="995" y="246" on="0"/>
        <pt x="1006" y="342" on="1"/>
        <pt x="946" y="344" on="0"/>
        <pt x="820" y="346" on="0"/>
        <pt x="758" y="346" on="1"/>
        <pt x="631" y="346" on="0"/>
        <pt x="514" y="340" on="1"/>
        <pt x="519" y="250" on="0"/>
        <pt x="537" y="71" on="0"/>
        <pt x="551" y="-18" on="1"/>
        <pt x="480" y="-23" on="0"/>
        <pt x="368" y="-31" on="0"/>
        <pt x="282" y="-38" on="0"/>
        <pt x="220" y="-45" on="0"/>
        <pt x="198" y="-48" on="1"/>
        <pt x="147" y="-55" on="0"/>
        <pt x="129" y="-61" on="1"/>
        <pt x="116" y="4" on="0"/>
        <pt x="99" y="148" on="0"/>
        <pt x="90" y="291" on="0"/>
        <pt x="86" y="427" on="0"/>
        <pt x="86" y="485" on="1"/>
        <pt x="86" y="606" on="0"/>
        <pt x="105" y="850" on="0"/>
        <pt x="158" y="1076" on="0"/>
        <pt x="252" y="1271" on="0"/>
        <pt x="404" y="1416" on="0"/>
        <pt x="620" y="1499" on="0"/>
        <pt x="768" y="1499" on="1"/>
        <pt x="920" y="1499" on="0"/>
        <pt x="1174" y="1406" on="0"/>
        <pt x="1357" y="1212" on="0"/>
        <pt x="1458" y="913" on="0"/>
        <pt x="1458" y="707" on="1"/>
        <pt x="1458" y="654" on="0"/>
        <pt x="1453" y="496" on="0"/>
        <pt x="1433" y="298" on="0"/>
        <pt x="1394" y="65" on="0"/>
        <pt x="1360" y="-61" on="1"/>
        <pt x="1239" y="-43" on="1"/>
        <pt x="1167" y="-165" on="0"/>
        <pt x="1149" y="-299" on="1"/>
        <pt x="1227" y="-294" on="0"/>
        <pt x="1381" y="-275" on="0"/>
        <pt x="1458" y="-258" on="1"/>
      </contour>
      <contour>
        <pt x="688" y="600" on="1"/>
        <pt x="775" y="600" on="0"/>
        <pt x="948" y="607" on="0"/>
        <pt x="1026" y="616" on="1"/>
        <pt x="1028" y="639" on="0"/>
        <pt x="1028" y="686" on="0"/>
        <pt x="1028" y="711" on="1"/>
        <pt x="1028" y="863" on="0"/>
        <pt x="1001" y="1145" on="0"/>
        <pt x="975" y="1266" on="1"/>
        <pt x="952" y="1268" on="0"/>
        <pt x="897" y="1270" on="0"/>
        <pt x="866" y="1270" on="1"/>
        <pt x="825" y="1270" on="0"/>
        <pt x="738" y="1267" on="0"/>
        <pt x="655" y="1262" on="0"/>
        <pt x="579" y="1254" on="0"/>
        <pt x="551" y="1249" on="1"/>
        <pt x="529" y="1090" on="0"/>
        <pt x="508" y="769" on="0"/>
        <pt x="508" y="604" on="1"/>
        <pt x="551" y="601" on="0"/>
        <pt x="642" y="600" on="0"/>
      </contour>
    </TTGlyph>
    <TTGlyph name="Aring" xMin="86" yMin="-61" xMax="1458" yMax="1837">
      <contour>
        <pt x="1055" y="1610" on="1"/>
        <pt x="1055" y="1569" on="0"/>
        <pt x="1022" y="1497" on="0"/>
        <pt x="993" y="1468" on="1"/>
        <pt x="1098" y="1439" on="0"/>
        <pt x="1270" y="1318" on="0"/>
        <pt x="1392" y="1129" on="0"/>
        <pt x="1458" y="872" on="0"/>
        <pt x="1458" y="707" on="1"/>
        <pt x="1458" y="654" on="0"/>
        <pt x="1453" y="496" on="0"/>
        <pt x="1433" y="298" on="0"/>
        <pt x="1394" y="65" on="0"/>
        <pt x="1360" y="-61" on="1"/>
        <pt x="1286" y="-51" on="0"/>
        <pt x="1175" y="-36" on="0"/>
        <pt x="1078" y="-27" on="0"/>
        <pt x="986" y="-23" on="0"/>
        <pt x="932" y="-23" on="1"/>
        <pt x="958" y="64" on="0"/>
        <pt x="995" y="246" on="0"/>
        <pt x="1006" y="342" on="1"/>
        <pt x="946" y="344" on="0"/>
        <pt x="820" y="346" on="0"/>
        <pt x="758" y="346" on="1"/>
        <pt x="631" y="346" on="0"/>
        <pt x="514" y="340" on="1"/>
        <pt x="519" y="250" on="0"/>
        <pt x="537" y="71" on="0"/>
        <pt x="551" y="-18" on="1"/>
        <pt x="480" y="-23" on="0"/>
        <pt x="368" y="-31" on="0"/>
        <pt x="282" y="-38" on="0"/>
        <pt x="220" y="-45" on="0"/>
        <pt x="198" y="-48" on="1"/>
        <pt x="147" y="-55" on="0"/>
        <pt x="129" y="-61" on="1"/>
        <pt x="116" y="4" on="0"/>
        <pt x="99" y="148" on="0"/>
        <pt x="90" y="291" on="0"/>
        <pt x="86" y="427" on="0"/>
        <pt x="86" y="485" on="1"/>
        <pt x="86" y="589" on="0"/>
        <pt x="99" y="799" on="0"/>
        <pt x="136" y="999" on="0"/>
        <pt x="201" y="1179" on="0"/>
        <pt x="304" y="1329" on="0"/>
        <pt x="450" y="1439" on="0"/>
        <pt x="549" y="1468" on="1"/>
        <pt x="520" y="1497" on="0"/>
        <pt x="487" y="1569" on="0"/>
        <pt x="487" y="1610" on="1"/>
        <pt x="487" y="1657" on="0"/>
        <pt x="532" y="1740" on="0"/>
        <pt x="609" y="1801" on="0"/>
        <pt x="713" y="1837" on="0"/>
        <pt x="772" y="1837" on="1"/>
        <pt x="831" y="1837" on="0"/>
        <pt x="934" y="1801" on="0"/>
        <pt x="1011" y="1740" on="0"/>
        <pt x="1055" y="1657" on="0"/>
      </contour>
      <contour>
        <pt x="688" y="600" on="1"/>
        <pt x="775" y="600" on="0"/>
        <pt x="948" y="607" on="0"/>
        <pt x="1026" y="616" on="1"/>
        <pt x="1028" y="639" on="0"/>
        <pt x="1028" y="686" on="0"/>
        <pt x="1028" y="711" on="1"/>
        <pt x="1028" y="863" on="0"/>
        <pt x="1001" y="1145" on="0"/>
        <pt x="975" y="1266" on="1"/>
        <pt x="952" y="1268" on="0"/>
        <pt x="897" y="1270" on="0"/>
        <pt x="866" y="1270" on="1"/>
        <pt x="825" y="1270" on="0"/>
        <pt x="738" y="1267" on="0"/>
        <pt x="655" y="1262" on="0"/>
        <pt x="579" y="1254" on="0"/>
        <pt x="551" y="1249" on="1"/>
        <pt x="529" y="1090" on="0"/>
        <pt x="508" y="769" on="0"/>
        <pt x="508" y="604" on="1"/>
        <pt x="551" y="601" on="0"/>
        <pt x="642" y="600" on="0"/>
      </contour>
      <contour>
        <pt x="866" y="1520" on="1"/>
        <pt x="872" y="1571" on="0"/>
        <pt x="872" y="1626" on="1"/>
        <pt x="872" y="1678" on="0"/>
        <pt x="866" y="1726" on="1"/>
        <pt x="855" y="1726" on="0"/>
        <pt x="839" y="1729" on="0"/>
        <pt x="831" y="1729" on="1"/>
        <pt x="786" y="1729" on="0"/>
        <pt x="704" y="1720" on="0"/>
        <pt x="664" y="1712" on="1"/>
        <pt x="659" y="1689" on="0"/>
        <pt x="655" y="1641" on="0"/>
        <pt x="655" y="1616" on="1"/>
        <pt x="655" y="1593" on="0"/>
        <pt x="659" y="1544" on="0"/>
        <pt x="664" y="1520" on="1"/>
        <pt x="690" y="1517" on="0"/>
        <pt x="741" y="1513" on="0"/>
        <pt x="764" y="1513" on="1"/>
        <pt x="790" y="1513" on="0"/>
        <pt x="840" y="1517" on="0"/>
      </contour>
    </TTGlyph>
    <TTGlyph name="Atilde" xMin="86" yMin="-61" xMax="1458" yMax="1884">
      <component glyphName="A" x="0" y="0" flags="0x204"/>
      <component glyphName="tilde" x="334" y="373" flags="0x4"/>
    </TTGlyph>
    <TTGlyph name="B" xMin="115" yMin="-76" xMax="1473" yMax="1499">
      <contour>
        <pt x="1473" y="389" on="1"/>
        <pt x="1473" y="294" on="0"/>
        <pt x="1399" y="151" on="0"/>
        <pt x="1276" y="47" on="0"/>
        <pt x="1114" y="-20" on="0"/>
        <pt x="939" y="-60" on="0"/>
        <pt x="762" y="-76" on="0"/>
        <pt x="684" y="-76" on="1"/>
        <pt x="586" y="-76" on="0"/>
        <pt x="423" y="-65" on="0"/>
        <pt x="285" y="-44" on="0"/>
        <pt x="168" y="-13" on="0"/>
        <pt x="115" y="6" on="1"/>
        <pt x="124" y="190" on="0"/>
        <pt x="135" y="536" on="0"/>
        <pt x="135" y="711" on="1"/>
        <pt x="135" y="885" on="0"/>
        <pt x="124" y="1240" on="0"/>
        <pt x="115" y="1432" on="1"/>
        <pt x="252" y="1463" on="0"/>
        <pt x="533" y="1499" on="0"/>
        <pt x="682" y="1499" on="1"/>
        <pt x="743" y="1499" on="0"/>
        <pt x="895" y="1486" on="0"/>
        <pt x="1051" y="1451" on="0"/>
        <pt x="1200" y="1391" on="0"/>
        <pt x="1316" y="1297" on="0"/>
        <pt x="1386" y="1167" on="0"/>
        <pt x="1386" y="1079" on="1"/>
        <pt x="1386" y="1077" on="0"/>
        <pt x="1384" y="1046" on="0"/>
        <pt x="1371" y="996" on="0"/>
        <pt x="1346" y="933" on="0"/>
        <pt x="1300" y="866" on="0"/>
        <pt x="1230" y="801" on="0"/>
        <pt x="1180" y="774" on="1"/>
        <pt x="1250" y="747" on="0"/>
        <pt x="1348" y="676" on="0"/>
        <pt x="1413" y="597" on="0"/>
        <pt x="1450" y="518" on="0"/>
        <pt x="1468" y="450" on="0"/>
        <pt x="1473" y="400" on="0"/>
      </contour>
      <contour>
        <pt x="1034" y="168" on="1"/>
        <pt x="1039" y="221" on="0"/>
        <pt x="1044" y="330" on="0"/>
        <pt x="1044" y="387" on="1"/>
        <pt x="1044" y="441" on="0"/>
        <pt x="1039" y="548" on="0"/>
        <pt x="1034" y="602" on="1"/>
        <pt x="992" y="618" on="0"/>
        <pt x="881" y="641" on="0"/>
        <pt x="760" y="655" on="0"/>
        <pt x="638" y="662" on="0"/>
        <pt x="586" y="662" on="1"/>
        <pt x="543" y="662" on="1"/>
        <pt x="535" y="603" on="0"/>
        <pt x="526" y="483" on="0"/>
        <pt x="526" y="420" on="1"/>
        <pt x="526" y="352" on="0"/>
        <pt x="535" y="216" on="0"/>
        <pt x="543" y="150" on="1"/>
        <pt x="588" y="150" on="0"/>
        <pt x="711" y="151" on="0"/>
        <pt x="844" y="154" on="0"/>
        <pt x="977" y="161" on="0"/>
      </contour>
      <contour>
        <pt x="952" y="856" on="1"/>
        <pt x="959" y="901" on="0"/>
        <pt x="965" y="1002" on="0"/>
        <pt x="965" y="1055" on="1"/>
        <pt x="965" y="1110" on="0"/>
        <pt x="958" y="1221" on="0"/>
        <pt x="950" y="1274" on="1"/>
        <pt x="910" y="1277" on="0"/>
        <pt x="799" y="1282" on="0"/>
        <pt x="739" y="1282" on="1"/>
        <pt x="685" y="1282" on="0"/>
        <pt x="583" y="1279" on="0"/>
        <pt x="543" y="1274" on="1"/>
        <pt x="537" y="1227" on="0"/>
        <pt x="530" y="1128" on="0"/>
        <pt x="530" y="1075" on="1"/>
        <pt x="530" y="1019" on="0"/>
        <pt x="537" y="908" on="0"/>
        <pt x="543" y="852" on="1"/>
        <pt x="562" y="852" on="0"/>
        <pt x="618" y="852" on="0"/>
        <pt x="682" y="853" on="0"/>
        <pt x="752" y="854" on="0"/>
        <pt x="786" y="854" on="1"/>
        <pt x="864" y="855" on="0"/>
      </contour>
    </TTGlyph>
    <TTGlyph name="C" xMin="59" yMin="-86" xMax="1616" yMax="1495">
      <contour>
        <pt x="1616" y="870" on="1"/>
        <pt x="1551" y="870" on="0"/>
        <pt x="1435" y="867" on="0"/>
        <pt x="1319" y="861" on="0"/>
        <pt x="1197" y="851" on="0"/>
        <pt x="1128" y="844" on="1"/>
        <pt x="1138" y="895" on="0"/>
        <pt x="1147" y="1013" on="0"/>
        <pt x="1147" y="1075" on="1"/>
        <pt x="1147" y="1113" on="0"/>
        <pt x="1144" y="1189" on="0"/>
        <pt x="1139" y="1223" on="1"/>
        <pt x="1067" y="1243" on="0"/>
        <pt x="885" y="1262" on="0"/>
        <pt x="793" y="1262" on="1"/>
        <pt x="728" y="1262" on="0"/>
        <pt x="606" y="1253" on="0"/>
        <pt x="555" y="1245" on="1"/>
        <pt x="535" y="1123" on="0"/>
        <pt x="516" y="868" on="0"/>
        <pt x="516" y="737" on="1"/>
        <pt x="516" y="597" on="0"/>
        <pt x="536" y="321" on="0"/>
        <pt x="555" y="186" on="1"/>
        <pt x="592" y="173" on="0"/>
        <pt x="686" y="153" on="0"/>
        <pt x="788" y="139" on="0"/>
        <pt x="893" y="131" on="0"/>
        <pt x="942" y="131" on="1"/>
        <pt x="976" y="131" on="0"/>
        <pt x="1039" y="134" on="0"/>
        <pt x="1067" y="139" on="1"/>
        <pt x="1081" y="199" on="0"/>
        <pt x="1098" y="346" on="0"/>
        <pt x="1098" y="420" on="1"/>
        <pt x="1098" y="479" on="0"/>
        <pt x="1092" y="535" on="1"/>
        <pt x="1172" y="527" on="0"/>
        <pt x="1317" y="520" on="0"/>
        <pt x="1393" y="520" on="1"/>
        <pt x="1491" y="520" on="0"/>
        <pt x="1608" y="526" on="1"/>
        <pt x="1589" y="417" on="0"/>
        <pt x="1513" y="249" on="0"/>
        <pt x="1412" y="123" on="0"/>
        <pt x="1293" y="33" on="0"/>
        <pt x="1168" y="-27" on="0"/>
        <pt x="1044" y="-63" on="0"/>
        <pt x="935" y="-81" on="0"/>
        <pt x="846" y="-86" on="0"/>
        <pt x="819" y="-86" on="1"/>
        <pt x="659" y="-86" on="0"/>
        <pt x="422" y="-22" on="0"/>
        <pt x="254" y="88" on="0"/>
        <pt x="145" y="234" on="0"/>
        <pt x="83" y="399" on="0"/>
        <pt x="59" y="573" on="0"/>
        <pt x="59" y="655" on="1"/>
        <pt x="59" y="842" on="0"/>
        <pt x="153" y="1142" on="0"/>
        <pt x="352" y="1358" on="0"/>
        <pt x="660" y="1483" on="0"/>
        <pt x="874" y="1495" on="1"/>
        <pt x="1012" y="1495" on="0"/>
        <pt x="1262" y="1413" on="0"/>
        <pt x="1461" y="1255" on="0"/>
        <pt x="1595" y="1021" on="0"/>
      </contour>
    </TTGlyph>
    <TTGlyph name="Cacute" xMin="59" yMin="-86" xMax="1616" yMax="1969">
      <component glyphName="C" x="0" y="0" flags="0x204"/>
      <component glyphName="acute" x="829" y="410" flags="0x4"/>
    </TTGlyph>
    <TTGlyph name="Ccaron" xMin="59" yMin="-86" xMax="1616" yMax="1917">
      <component glyphName="C" x="0" y="0" flags="0x204"/>
      <component glyphName="caron" x="451" y="410" flags="0x4"/>
    </TTGlyph>
    <TTGlyph name="Ccedilla" xMin="59" yMin="-484" xMax="1616" yMax="1495">
      <contour>
        <pt x="1087" y="-287" on="1"/>
        <pt x="1087" y="-341" on="0"/>
        <pt x="1034" y="-415" on="0"/>
        <pt x="959" y="-462" on="0"/>
        <pt x="876" y="-483" on="0"/>
        <pt x="846" y="-483" on="1"/>
        <pt x="821" y="-484" on="0"/>
        <pt x="784" y="-481" on="1"/>
        <pt x="752" y="-479" on="0"/>
        <pt x="656" y="-471" on="0"/>
        <pt x="588" y="-463" on="1"/>
        <pt x="588" y="-344" on="1"/>
        <pt x="652" y="-350" on="0"/>
        <pt x="715" y="-350" on="1"/>
        <pt x="746" y="-350" on="0"/>
        <pt x="806" y="-347" on="0"/>
        <pt x="838" y="-344" on="1"/>
        <pt x="843" y="-329" on="0"/>
        <pt x="846" y="-296" on="0"/>
        <pt x="846" y="-281" on="1"/>
        <pt x="846" y="-265" on="0"/>
        <pt x="843" y="-235" on="0"/>
        <pt x="838" y="-219" on="1"/>
        <pt x="815" y="-216" on="0"/>
        <pt x="766" y="-211" on="0"/>
        <pt x="741" y="-211" on="1"/>
        <pt x="718" y="-211" on="0"/>
        <pt x="667" y="-216" on="0"/>
        <pt x="641" y="-219" on="1"/>
        <pt x="647" y="-201" on="0"/>
        <pt x="689" y="-127" on="0"/>
        <pt x="715" y="-82" on="1"/>
        <pt x="578" y="-71" on="0"/>
        <pt x="374" y="3" on="0"/>
        <pt x="228" y="115" on="0"/>
        <pt x="134" y="257" on="0"/>
        <pt x="80" y="414" on="0"/>
        <pt x="59" y="577" on="0"/>
        <pt x="59" y="655" on="1"/>
        <pt x="59" y="842" on="0"/>
        <pt x="153" y="1142" on="0"/>
        <pt x="352" y="1358" on="0"/>
        <pt x="660" y="1483" on="0"/>
        <pt x="874" y="1495" on="1"/>
        <pt x="1012" y="1495" on="0"/>
        <pt x="1262" y="1413" on="0"/>
        <pt x="1461" y="1255" on="0"/>
        <pt x="1595" y="1021" on="0"/>
        <pt x="1616" y="870" on="1"/>
        <pt x="1551" y="870" on="0"/>
        <pt x="1435" y="867" on="0"/>
        <pt x="1319" y="861" on="0"/>
        <pt x="1197" y="851" on="0"/>
        <pt x="1128" y="844" on="1"/>
        <pt x="1138" y="895" on="0"/>
        <pt x="1147" y="1013" on="0"/>
        <pt x="1147" y="1075" on="1"/>
        <pt x="1147" y="1113" on="0"/>
        <pt x="1144" y="1189" on="0"/>
        <pt x="1139" y="1223" on="1"/>
        <pt x="1067" y="1243" on="0"/>
        <pt x="885" y="1262" on="0"/>
        <pt x="793" y="1262" on="1"/>
        <pt x="728" y="1262" on="0"/>
        <pt x="606" y="1253" on="0"/>
        <pt x="555" y="1245" on="1"/>
        <pt x="535" y="1123" on="0"/>
        <pt x="516" y="868" on="0"/>
        <pt x="516" y="737" on="1"/>
        <pt x="516" y="597" on="0"/>
        <pt x="536" y="321" on="0"/>
        <pt x="555" y="186" on="1"/>
        <pt x="592" y="173" on="0"/>
        <pt x="686" y="153" on="0"/>
        <pt x="788" y="139" on="0"/>
        <pt x="893" y="131" on="0"/>
        <pt x="942" y="131" on="1"/>
        <pt x="976" y="131" on="0"/>
        <pt x="1039" y="134" on="0"/>
        <pt x="1067" y="139" on="1"/>
        <pt x="1081" y="199" on="0"/>
        <pt x="1098" y="346" on="0"/>
        <pt x="1098" y="420" on="1"/>
        <pt x="1098" y="479" on="0"/>
        <pt x="1092" y="535" on="1"/>
        <pt x="1172" y="527" on="0"/>
        <pt x="1317" y="520" on="0"/>
        <pt x="1393" y="520" on="1"/>
        <pt x="1491" y="520" on="0"/>
        <pt x="1608" y="526" on="1"/>
        <pt x="1585" y="395" on="0"/>
        <pt x="1486" y="205" on="0"/>
        <pt x="1355" y="71" on="0"/>
        <pt x="1204" y="-13" on="0"/>
        <pt x="1055" y="-62" on="0"/>
        <pt x="921" y="-82" on="0"/>
        <pt x="872" y="-84" on="1"/>
        <pt x="852" y="-133" on="1"/>
        <pt x="940" y="-137" on="0"/>
        <pt x="1036" y="-186" on="0"/>
        <pt x="1058" y="-214" on="1"/>
        <pt x="1084" y="-247" on="0"/>
      </contour>
    </TTGlyph>
    <TTGlyph name="Ccircumflex" xMin="59" yMin="-86" xMax="1616" yMax="1917">
      <component glyphName="C" x="0" y="0" flags="0x204"/>
      <component glyphName="circumflex" x="451" y="410" flags="0x4"/>
    </TTGlyph>
    <TTGlyph name="Cdotaccent" xMin="59" yMin="-86" xMax="1616" yMax="1776">
      <component glyphName="C" x="0" y="0" flags="0x204"/>
      <component glyphName="dotaccent" x="731" y="322" flags="0x4"/>
    </TTGlyph>
    <TTGlyph name="D" xMin="115" yMin="-61" xMax="1491" yMax="1493">
      <contour>
        <pt x="1026" y="246" on="1"/>
        <pt x="1046" y="351" on="0"/>
        <pt x="1065" y="582" on="0"/>
        <pt x="1065" y="702" on="1"/>
        <pt x="1065" y="829" on="0"/>
        <pt x="1045" y="1080" on="0"/>
        <pt x="1026" y="1196" on="1"/>
        <pt x="970" y="1212" on="0"/>
        <pt x="904" y="1224" on="1"/>
        <pt x="847" y="1235" on="0"/>
        <pt x="696" y="1253" on="0"/>
        <pt x="608" y="1253" on="1"/>
        <pt x="591" y="1253" on="0"/>
        <pt x="555" y="1253" on="0"/>
        <pt x="537" y="1251" on="1"/>
        <pt x="537" y="1234" on="0"/>
        <pt x="537" y="1152" on="0"/>
        <pt x="538" y="1033" on="0"/>
        <pt x="539" y="884" on="0"/>
        <pt x="541" y="720" on="0"/>
        <pt x="545" y="548" on="0"/>
        <pt x="551" y="380" on="0"/>
        <pt x="558" y="225" on="0"/>
        <pt x="563" y="160" on="1"/>
        <pt x="655" y="164" on="0"/>
        <pt x="822" y="192" on="0"/>
        <pt x="886" y="207" on="1"/>
        <pt x="961" y="225" on="0"/>
      </contour>
      <contour>
        <pt x="430" y="1493" on="1"/>
        <pt x="548" y="1493" on="0"/>
        <pt x="797" y="1469" on="0"/>
        <pt x="1032" y="1407" on="0"/>
        <pt x="1242" y="1299" on="0"/>
        <pt x="1399" y="1133" on="0"/>
        <pt x="1491" y="900" on="0"/>
        <pt x="1491" y="743" on="1"/>
        <pt x="1491" y="591" on="0"/>
        <pt x="1411" y="355" on="0"/>
        <pt x="1274" y="176" on="0"/>
        <pt x="1090" y="52" on="0"/>
        <pt x="881" y="-26" on="0"/>
        <pt x="657" y="-61" on="0"/>
        <pt x="549" y="-61" on="1"/>
        <pt x="444" y="-61" on="0"/>
        <pt x="284" y="-52" on="0"/>
        <pt x="228" y="-47" on="1"/>
        <pt x="163" y="-41" on="0"/>
        <pt x="115" y="-33" on="1"/>
        <pt x="127" y="163" on="0"/>
        <pt x="145" y="553" on="0"/>
        <pt x="145" y="750" on="1"/>
        <pt x="145" y="847" on="0"/>
        <pt x="140" y="1023" on="0"/>
        <pt x="132" y="1195" on="0"/>
        <pt x="121" y="1370" on="0"/>
        <pt x="115" y="1468" on="1"/>
        <pt x="198" y="1484" on="0"/>
        <pt x="358" y="1493" on="0"/>
      </contour>
    </TTGlyph>
    <TTGlyph name="Dcaron" xMin="115" yMin="-61" xMax="1491" yMax="1917">
      <component glyphName="D" x="0" y="0" flags="0x204"/>
      <component glyphName="caron" x="397" y="410" flags="0x4"/>
    </TTGlyph>
    <TTGlyph name="Dcroat" xMin="-37" yMin="-61" xMax="1524" yMax="1493">
      <component glyphName="Eth" x="0" y="0" flags="0x204"/>
    </TTGlyph>
    <TTGlyph name="E" xMin="119" yMin="-35" xMax="1223" yMax="1497">
      <contour>
        <pt x="1059" y="631" on="1"/>
        <pt x="994" y="636" on="0"/>
        <pt x="864" y="641" on="0"/>
        <pt x="799" y="641" on="1"/>
        <pt x="736" y="641" on="0"/>
        <pt x="610" y="636" on="0"/>
        <pt x="545" y="631" on="1"/>
        <pt x="545" y="463" on="1"/>
        <pt x="545" y="403" on="0"/>
        <pt x="547" y="292" on="0"/>
        <pt x="549" y="244" on="1"/>
        <pt x="614" y="246" on="0"/>
        <pt x="761" y="246" on="0"/>
        <pt x="836" y="246" on="1"/>
        <pt x="911" y="246" on="0"/>
        <pt x="1049" y="245" on="0"/>
        <pt x="1103" y="245" on="1"/>
        <pt x="1165" y="244" on="0"/>
        <pt x="1221" y="244" on="1"/>
        <pt x="1220" y="230" on="0"/>
        <pt x="1219" y="213" on="1"/>
        <pt x="1218" y="199" on="0"/>
        <pt x="1217" y="159" on="0"/>
        <pt x="1217" y="135" on="1"/>
        <pt x="1217" y="104" on="0"/>
        <pt x="1220" y="32" on="0"/>
        <pt x="1223" y="-6" on="1"/>
        <pt x="1184" y="-4" on="0"/>
        <pt x="1103" y="-4" on="0"/>
        <pt x="1065" y="-4" on="1"/>
        <pt x="826" y="-4" on="0"/>
        <pt x="357" y="-19" on="0"/>
        <pt x="119" y="-35" on="1"/>
        <pt x="119" y="-5" on="0"/>
        <pt x="121" y="103" on="0"/>
        <pt x="124" y="248" on="0"/>
        <pt x="129" y="421" on="0"/>
        <pt x="133" y="609" on="0"/>
        <pt x="138" y="805" on="0"/>
        <pt x="141" y="996" on="0"/>
        <pt x="143" y="1173" on="0"/>
        <pt x="143" y="1249" on="1"/>
        <pt x="143" y="1322" on="0"/>
        <pt x="142" y="1435" on="0"/>
        <pt x="139" y="1473" on="1"/>
        <pt x="242" y="1473" on="0"/>
        <pt x="448" y="1470" on="0"/>
        <pt x="553" y="1470" on="1"/>
        <pt x="711" y="1470" on="0"/>
        <pt x="1029" y="1480" on="0"/>
        <pt x="1196" y="1497" on="1"/>
        <pt x="1191" y="1463" on="0"/>
        <pt x="1188" y="1400" on="0"/>
        <pt x="1188" y="1372" on="1"/>
        <pt x="1188" y="1345" on="0"/>
        <pt x="1190" y="1300" on="0"/>
        <pt x="1192" y="1284" on="1"/>
        <pt x="1194" y="1266" on="0"/>
        <pt x="1196" y="1251" on="1"/>
        <pt x="1079" y="1245" on="0"/>
        <pt x="965" y="1241" on="1"/>
        <pt x="916" y="1239" on="0"/>
        <pt x="811" y="1236" on="0"/>
        <pt x="706" y="1233" on="0"/>
        <pt x="607" y="1231" on="0"/>
        <pt x="565" y="1231" on="1"/>
        <pt x="563" y="1183" on="0"/>
        <pt x="560" y="1127" on="1"/>
        <pt x="558" y="1079" on="0"/>
        <pt x="553" y="949" on="0"/>
        <pt x="551" y="874" on="1"/>
        <pt x="673" y="876" on="0"/>
        <pt x="922" y="888" on="0"/>
        <pt x="1059" y="899" on="1"/>
        <pt x="1056" y="861" on="0"/>
        <pt x="1051" y="784" on="0"/>
        <pt x="1051" y="743" on="1"/>
        <pt x="1051" y="716" on="0"/>
        <pt x="1054" y="660" on="0"/>
      </contour>
    </TTGlyph>
    <TTGlyph name="Eacute" xMin="119" yMin="-35" xMax="1223" yMax="1928">
      <component glyphName="E" x="0" y="0" flags="0x204"/>
      <component glyphName="acute" x="586" y="369" flags="0x4"/>
    </TTGlyph>
    <TTGlyph name="Ebreve" xMin="119" yMin="-35" xMax="1223" yMax="1843">
      <component glyphName="E" x="0" y="0" flags="0x204"/>
      <component glyphName="breve" x="254" y="350" flags="0x4"/>
    </TTGlyph>
    <TTGlyph name="Ecaron" xMin="119" yMin="-35" xMax="1223" yMax="1917">
      <component glyphName="E" x="0" y="0" flags="0x204"/>
      <component glyphName="caron" x="260" y="410" flags="0x4"/>
    </TTGlyph>
    <TTGlyph name="Ecircumflex" xMin="119" yMin="-35" xMax="1223" yMax="1880">
      <component glyphName="E" x="0" y="0" flags="0x204"/>
      <component glyphName="circumflex" x="276" y="373" flags="0x4"/>
    </TTGlyph>
    <TTGlyph name="Edieresis" xMin="119" yMin="-35" xMax="1223" yMax="1747">
      <component glyphName="E" x="0" y="0" flags="0x204"/>
      <component glyphName="dieresis" x="317" y="293" flags="0x4"/>
    </TTGlyph>
    <TTGlyph name="Edotaccent" xMin="119" yMin="-35" xMax="1223" yMax="1743">
      <component glyphName="E" x="0" y="0" flags="0x204"/>
      <component glyphName="dotaccent" x="492" y="289" flags="0x4"/>
    </TTGlyph>
    <TTGlyph name="Egrave" xMin="119" yMin="-35" xMax="1223" yMax="1921">
      <component glyphName="E" x="0" y="0" flags="0x204"/>
      <component glyphName="grave" x="233" y="362" flags="0x4"/>
    </TTGlyph>
    <TTGlyph name="Emacron" xMin="119" yMin="-35" xMax="1223" yMax="1755">
      <component glyphName="E" x="0" y="0" flags="0x204"/>
      <component glyphName="macron" x="283" y="297" flags="0x4"/>
    </TTGlyph>
    <TTGlyph name="Eng" xMin="113" yMin="-883" xMax="1593" yMax="1542">
      <contour>
        <pt x="1593" y="1542" on="1"/>
        <pt x="1564" y="1242" on="0"/>
        <pt x="1538" y="954" on="1"/>
        <pt x="1527" y="831" on="0"/>
        <pt x="1505" y="567" on="0"/>
        <pt x="1487" y="309" on="0"/>
        <pt x="1473" y="68" on="0"/>
        <pt x="1470" y="-31" on="1"/>
        <pt x="1463" y="-253" on="0"/>
        <pt x="1376" y="-575" on="0"/>
        <pt x="1208" y="-783" on="0"/>
        <pt x="958" y="-883" on="0"/>
        <pt x="788" y="-883" on="1"/>
        <pt x="641" y="-883" on="0"/>
        <pt x="420" y="-800" on="0"/>
        <pt x="274" y="-656" on="0"/>
        <pt x="201" y="-464" on="0"/>
        <pt x="201" y="-356" on="1"/>
        <pt x="201" y="-319" on="0"/>
        <pt x="204" y="-243" on="0"/>
        <pt x="209" y="-205" on="1"/>
        <pt x="266" y="-208" on="0"/>
        <pt x="356" y="-213" on="0"/>
        <pt x="399" y="-213" on="1"/>
        <pt x="443" y="-213" on="0"/>
        <pt x="535" y="-207" on="0"/>
        <pt x="598" y="-201" on="1"/>
        <pt x="596" y="-246" on="0"/>
        <pt x="596" y="-374" on="0"/>
        <pt x="597" y="-434" on="1"/>
        <pt x="598" y="-504" on="0"/>
        <pt x="600" y="-578" on="1"/>
        <pt x="641" y="-578" on="0"/>
        <pt x="748" y="-575" on="0"/>
        <pt x="862" y="-571" on="0"/>
        <pt x="974" y="-564" on="0"/>
        <pt x="1020" y="-559" on="1"/>
        <pt x="1037" y="-447" on="0"/>
        <pt x="1049" y="-181" on="0"/>
        <pt x="1042" y="-41" on="1"/>
        <pt x="475" y="1124" on="1"/>
        <pt x="476" y="1055" on="0"/>
        <pt x="479" y="883" on="0"/>
        <pt x="483" y="696" on="0"/>
        <pt x="488" y="502" on="0"/>
        <pt x="490" y="412" on="1"/>
        <pt x="494" y="200" on="0"/>
        <pt x="500" y="-23" on="1"/>
        <pt x="439" y="-23" on="0"/>
        <pt x="374" y="-25" on="1"/>
        <pt x="318" y="-27" on="0"/>
        <pt x="181" y="-34" on="0"/>
        <pt x="113" y="-41" on="1"/>
        <pt x="120" y="59" on="0"/>
        <pt x="130" y="312" on="0"/>
        <pt x="137" y="591" on="0"/>
        <pt x="141" y="879" on="0"/>
        <pt x="141" y="1014" on="1"/>
        <pt x="141" y="1154" on="0"/>
        <pt x="136" y="1396" on="0"/>
        <pt x="133" y="1481" on="1"/>
        <pt x="214" y="1475" on="0"/>
        <pt x="362" y="1470" on="0"/>
        <pt x="436" y="1470" on="1"/>
        <pt x="511" y="1470" on="0"/>
        <pt x="662" y="1475" on="0"/>
        <pt x="745" y="1481" on="1"/>
        <pt x="790" y="1354" on="0"/>
        <pt x="900" y="1120" on="0"/>
        <pt x="1017" y="891" on="0"/>
        <pt x="1135" y="660" on="0"/>
        <pt x="1190" y="537" on="1"/>
        <pt x="1190" y="603" on="0"/>
        <pt x="1193" y="759" on="0"/>
        <pt x="1197" y="925" on="0"/>
        <pt x="1201" y="1093" on="0"/>
        <pt x="1204" y="1171" on="1"/>
        <pt x="1209" y="1353" on="0"/>
        <pt x="1217" y="1542" on="1"/>
        <pt x="1272" y="1537" on="0"/>
        <pt x="1357" y="1532" on="0"/>
        <pt x="1399" y="1532" on="1"/>
        <pt x="1441" y="1532" on="0"/>
        <pt x="1531" y="1537" on="0"/>
      </contour>
    </TTGlyph>
    <TTGlyph name="Eogonek" xMin="119" yMin="-473" xMax="1223" yMax="1497">
      <contour>
        <pt x="1223" y="-412" on="1"/>
        <pt x="1169" y="-440" on="0"/>
        <pt x="1049" y="-473" on="0"/>
        <pt x="983" y="-473" on="1"/>
        <pt x="926" y="-473" on="0"/>
        <pt x="823" y="-451" on="0"/>
        <pt x="746" y="-406" on="0"/>
        <pt x="700" y="-338" on="0"/>
        <pt x="700" y="-291" on="1"/>
        <pt x="700" y="-252" on="0"/>
        <pt x="728" y="-176" on="0"/>
        <pt x="775" y="-103" on="0"/>
        <pt x="834" y="-35" on="0"/>
        <pt x="866" y="-4" on="1"/>
        <pt x="677" y="-7" on="0"/>
        <pt x="308" y="-22" on="0"/>
        <pt x="119" y="-35" on="1"/>
        <pt x="119" y="-5" on="0"/>
        <pt x="121" y="103" on="0"/>
        <pt x="124" y="248" on="0"/>
        <pt x="129" y="421" on="0"/>
        <pt x="133" y="609" on="0"/>
        <pt x="138" y="805" on="0"/>
        <pt x="141" y="996" on="0"/>
        <pt x="143" y="1173" on="0"/>
        <pt x="143" y="1249" on="1"/>
        <pt x="143" y="1322" on="0"/>
        <pt x="142" y="1435" on="0"/>
        <pt x="139" y="1473" on="1"/>
        <pt x="242" y="1473" on="0"/>
        <pt x="448" y="1470" on="0"/>
        <pt x="553" y="1470" on="1"/>
        <pt x="711" y="1470" on="0"/>
        <pt x="1029" y="1480" on="0"/>
        <pt x="1196" y="1497" on="1"/>
        <pt x="1191" y="1463" on="0"/>
        <pt x="1188" y="1400" on="0"/>
        <pt x="1188" y="1372" on="1"/>
        <pt x="1188" y="1345" on="0"/>
        <pt x="1190" y="1300" on="0"/>
        <pt x="1192" y="1284" on="1"/>
        <pt x="1194" y="1266" on="0"/>
        <pt x="1196" y="1251" on="1"/>
        <pt x="1079" y="1245" on="0"/>
        <pt x="965" y="1241" on="1"/>
        <pt x="916" y="1239" on="0"/>
        <pt x="811" y="1236" on="0"/>
        <pt x="706" y="1233" on="0"/>
        <pt x="607" y="1231" on="0"/>
        <pt x="565" y="1231" on="1"/>
        <pt x="563" y="1183" on="0"/>
        <pt x="560" y="1127" on="1"/>
        <pt x="558" y="1079" on="0"/>
        <pt x="553" y="949" on="0"/>
        <pt x="551" y="874" on="1"/>
        <pt x="673" y="876" on="0"/>
        <pt x="922" y="888" on="0"/>
        <pt x="1059" y="899" on="1"/>
        <pt x="1056" y="861" on="0"/>
        <pt x="1051" y="784" on="0"/>
        <pt x="1051" y="743" on="1"/>
        <pt x="1051" y="716" on="0"/>
        <pt x="1054" y="660" on="0"/>
        <pt x="1059" y="631" on="1"/>
        <pt x="994" y="636" on="0"/>
        <pt x="864" y="641" on="0"/>
        <pt x="799" y="641" on="1"/>
        <pt x="736" y="641" on="0"/>
        <pt x="610" y="636" on="0"/>
        <pt x="545" y="631" on="1"/>
        <pt x="545" y="463" on="1"/>
        <pt x="545" y="403" on="0"/>
        <pt x="547" y="292" on="0"/>
        <pt x="549" y="244" on="1"/>
        <pt x="614" y="246" on="0"/>
        <pt x="761" y="246" on="0"/>
        <pt x="836" y="246" on="1"/>
        <pt x="911" y="246" on="0"/>
        <pt x="1049" y="245" on="0"/>
        <pt x="1103" y="245" on="1"/>
        <pt x="1165" y="244" on="0"/>
        <pt x="1221" y="244" on="1"/>
        <pt x="1220" y="230" on="0"/>
        <pt x="1219" y="213" on="1"/>
        <pt x="1218" y="199" on="0"/>
        <pt x="1217" y="159" on="0"/>
        <pt x="1217" y="135" on="1"/>
        <pt x="1217" y="104" on="0"/>
        <pt x="1220" y="32" on="0"/>
        <pt x="1223" y="-6" on="1"/>
        <pt x="1184" y="-4" on="0"/>
        <pt x="1103" y="-4" on="0"/>
        <pt x="1065" y="-4" on="1"/>
        <pt x="1030" y="-4" on="1"/>
        <pt x="984" y="-72" on="0"/>
        <pt x="924" y="-221" on="0"/>
        <pt x="913" y="-299" on="1"/>
        <pt x="992" y="-294" on="0"/>
        <pt x="1145" y="-275" on="0"/>
        <pt x="1223" y="-258" on="1"/>
      </contour>
    </TTGlyph>
    <TTGlyph name="Eth" xMin="-37" yMin="-61" xMax="1524" yMax="1493">
      <contour>
        <pt x="463" y="1493" on="1"/>
        <pt x="581" y="1493" on="0"/>
        <pt x="830" y="1469" on="0"/>
        <pt x="1065" y="1407" on="0"/>
        <pt x="1275" y="1299" on="0"/>
        <pt x="1432" y="1133" on="0"/>
        <pt x="1524" y="900" on="0"/>
        <pt x="1524" y="743" on="1"/>
        <pt x="1524" y="591" on="0"/>
        <pt x="1444" y="355" on="0"/>
        <pt x="1307" y="176" on="0"/>
        <pt x="1123" y="52" on="0"/>
        <pt x="914" y="-26" on="0"/>
        <pt x="690" y="-61" on="0"/>
        <pt x="582" y="-61" on="1"/>
        <pt x="477" y="-61" on="0"/>
        <pt x="317" y="-52" on="0"/>
        <pt x="261" y="-47" on="1"/>
        <pt x="196" y="-41" on="0"/>
        <pt x="147" y="-33" on="1"/>
        <pt x="157" y="131" on="0"/>
        <pt x="173" y="454" on="0"/>
        <pt x="176" y="618" on="1"/>
        <pt x="-37" y="618" on="1"/>
        <pt x="-37" y="825" on="1"/>
        <pt x="178" y="825" on="1"/>
        <pt x="177" y="909" on="0"/>
        <pt x="172" y="1065" on="0"/>
        <pt x="163" y="1220" on="0"/>
        <pt x="153" y="1380" on="0"/>
        <pt x="147" y="1468" on="1"/>
        <pt x="231" y="1484" on="0"/>
        <pt x="391" y="1493" on="0"/>
      </contour>
      <contour>
        <pt x="782" y="618" on="1"/>
        <pt x="575" y="618" on="1"/>
        <pt x="579" y="494" on="0"/>
        <pt x="588" y="254" on="0"/>
        <pt x="596" y="160" on="1"/>
        <pt x="688" y="164" on="0"/>
        <pt x="855" y="192" on="0"/>
        <pt x="919" y="207" on="1"/>
        <pt x="994" y="225" on="0"/>
        <pt x="1059" y="246" on="1"/>
        <pt x="1079" y="351" on="0"/>
        <pt x="1098" y="582" on="0"/>
        <pt x="1098" y="702" on="1"/>
        <pt x="1098" y="829" on="0"/>
        <pt x="1077" y="1080" on="0"/>
        <pt x="1059" y="1196" on="1"/>
        <pt x="1004" y="1212" on="0"/>
        <pt x="937" y="1224" on="1"/>
        <pt x="880" y="1235" on="0"/>
        <pt x="728" y="1253" on="0"/>
        <pt x="641" y="1253" on="1"/>
        <pt x="624" y="1253" on="0"/>
        <pt x="588" y="1253" on="0"/>
        <pt x="569" y="1251" on="1"/>
        <pt x="569" y="1235" on="0"/>
        <pt x="569" y="1157" on="0"/>
        <pt x="569" y="1044" on="0"/>
        <pt x="570" y="905" on="0"/>
        <pt x="571" y="827" on="1"/>
        <pt x="782" y="827" on="1"/>
      </contour>
    </TTGlyph>
    <TTGlyph name="Euro" xMin="55" yMin="72" xMax="1546" yMax="1337">
      <contour>
        <pt x="809" y="492" on="1"/>
        <pt x="775" y="492" on="0"/>
        <pt x="708" y="494" on="0"/>
        <pt x="674" y="494" on="1"/>
        <pt x="683" y="388" on="0"/>
        <pt x="698" y="291" on="1"/>
        <pt x="728" y="280" on="0"/>
        <pt x="803" y="263" on="0"/>
        <pt x="884" y="252" on="0"/>
        <pt x="969" y="246" on="0"/>
        <pt x="1008" y="246" on="1"/>
        <pt x="1061" y="246" on="0"/>
        <pt x="1108" y="252" on="1"/>
        <pt x="1119" y="300" on="0"/>
        <pt x="1133" y="417" on="0"/>
        <pt x="1133" y="477" on="1"/>
        <pt x="1133" y="500" on="0"/>
        <pt x="1129" y="546" on="0"/>
        <pt x="1126" y="569" on="1"/>
        <pt x="1191" y="563" on="0"/>
        <pt x="1308" y="557" on="0"/>
        <pt x="1368" y="557" on="1"/>
        <pt x="1406" y="557" on="0"/>
        <pt x="1492" y="559" on="0"/>
        <pt x="1540" y="561" on="1"/>
        <pt x="1520" y="445" on="0"/>
        <pt x="1427" y="283" on="0"/>
        <pt x="1306" y="174" on="0"/>
        <pt x="1170" y="112" on="0"/>
        <pt x="1043" y="80" on="0"/>
        <pt x="938" y="72" on="0"/>
        <pt x="909" y="72" on="1"/>
        <pt x="758" y="72" on="0"/>
        <pt x="547" y="143" on="0"/>
        <pt x="409" y="260" on="0"/>
        <pt x="333" y="412" on="0"/>
        <pt x="317" y="494" on="1"/>
        <pt x="55" y="487" on="1"/>
        <pt x="121" y="662" on="1"/>
        <pt x="301" y="657" on="1"/>
        <pt x="301" y="689" on="0"/>
        <pt x="303" y="741" on="0"/>
        <pt x="305" y="766" on="1"/>
        <pt x="268" y="766" on="0"/>
        <pt x="197" y="764" on="0"/>
        <pt x="160" y="762" on="1"/>
        <pt x="225" y="936" on="1"/>
        <pt x="253" y="934" on="0"/>
        <pt x="310" y="934" on="0"/>
        <pt x="338" y="934" on="1"/>
        <pt x="366" y="1024" on="0"/>
        <pt x="469" y="1167" on="0"/>
        <pt x="620" y="1270" on="0"/>
        <pt x="823" y="1330" on="0"/>
        <pt x="952" y="1337" on="1"/>
        <pt x="1063" y="1337" on="0"/>
        <pt x="1263" y="1271" on="0"/>
        <pt x="1422" y="1144" on="0"/>
        <pt x="1529" y="958" on="0"/>
        <pt x="1546" y="838" on="1"/>
        <pt x="1495" y="838" on="0"/>
        <pt x="1402" y="835" on="0"/>
        <pt x="1309" y="830" on="0"/>
        <pt x="1212" y="821" on="0"/>
        <pt x="1157" y="815" on="1"/>
        <pt x="1163" y="857" on="0"/>
        <pt x="1171" y="952" on="0"/>
        <pt x="1171" y="1001" on="1"/>
        <pt x="1171" y="1065" on="0"/>
        <pt x="1165" y="1118" on="1"/>
        <pt x="1108" y="1135" on="0"/>
        <pt x="961" y="1151" on="0"/>
        <pt x="887" y="1151" on="1"/>
        <pt x="836" y="1151" on="0"/>
        <pt x="739" y="1143" on="0"/>
        <pt x="698" y="1137" on="1"/>
        <pt x="689" y="1086" on="0"/>
        <pt x="677" y="984" on="0"/>
        <pt x="672" y="932" on="1"/>
        <pt x="826" y="932" on="0"/>
        <pt x="979" y="938" on="1"/>
        <pt x="913" y="766" on="1"/>
        <pt x="851" y="768" on="0"/>
        <pt x="728" y="770" on="0"/>
        <pt x="666" y="770" on="1"/>
        <pt x="666" y="731" on="1"/>
        <pt x="666" y="657" on="1"/>
        <pt x="771" y="660" on="0"/>
        <pt x="874" y="666" on="1"/>
      </contour>
    </TTGlyph>
    <TTGlyph name="F" xMin="88" yMin="-55" xMax="1223" yMax="1499">
      <contour>
        <pt x="1206" y="1227" on="1"/>
        <pt x="1131" y="1232" on="0"/>
        <pt x="965" y="1239" on="0"/>
        <pt x="879" y="1239" on="1"/>
        <pt x="713" y="1239" on="0"/>
        <pt x="551" y="1227" on="1"/>
        <pt x="546" y="1136" on="0"/>
        <pt x="541" y="895" on="0"/>
        <pt x="541" y="764" on="1"/>
        <pt x="559" y="762" on="0"/>
        <pt x="596" y="764" on="0"/>
        <pt x="616" y="764" on="1"/>
        <pt x="709" y="764" on="0"/>
        <pt x="897" y="774" on="0"/>
        <pt x="997" y="786" on="1"/>
        <pt x="992" y="752" on="0"/>
        <pt x="989" y="687" on="0"/>
        <pt x="989" y="653" on="1"/>
        <pt x="989" y="619" on="0"/>
        <pt x="992" y="552" on="0"/>
        <pt x="997" y="518" on="1"/>
        <pt x="928" y="527" on="0"/>
        <pt x="790" y="537" on="0"/>
        <pt x="721" y="537" on="1"/>
        <pt x="676" y="537" on="0"/>
        <pt x="586" y="534" on="0"/>
        <pt x="541" y="530" on="1"/>
        <pt x="541" y="416" on="0"/>
        <pt x="542" y="214" on="0"/>
        <pt x="544" y="136" on="1"/>
        <pt x="545" y="45" on="0"/>
        <pt x="547" y="-33" on="1"/>
        <pt x="488" y="-33" on="0"/>
        <pt x="377" y="-35" on="0"/>
        <pt x="266" y="-40" on="0"/>
        <pt x="151" y="-48" on="0"/>
        <pt x="88" y="-55" on="1"/>
        <pt x="107" y="90" on="0"/>
        <pt x="130" y="392" on="0"/>
        <pt x="142" y="697" on="0"/>
        <pt x="145" y="999" on="0"/>
        <pt x="145" y="1143" on="1"/>
        <pt x="145" y="1483" on="1"/>
        <pt x="236" y="1478" on="0"/>
        <pt x="427" y="1473" on="0"/>
        <pt x="526" y="1473" on="1"/>
        <pt x="695" y="1473" on="0"/>
        <pt x="1042" y="1487" on="0"/>
        <pt x="1223" y="1499" on="1"/>
      </contour>
    </TTGlyph>
    <TTGlyph name="G" xMin="61" yMin="-49" xMax="1618" yMax="1497">
      <contour>
        <pt x="1618" y="743" on="1"/>
        <pt x="1613" y="595" on="0"/>
        <pt x="1541" y="369" on="0"/>
        <pt x="1430" y="203" on="0"/>
        <pt x="1289" y="88" on="0"/>
        <pt x="1141" y="14" on="0"/>
        <pt x="999" y="-27" on="0"/>
        <pt x="883" y="-46" on="0"/>
        <pt x="805" y="-49" on="0"/>
        <pt x="797" y="-49" on="1"/>
        <pt x="657" y="-49" on="0"/>
        <pt x="440" y="5" on="0"/>
        <pt x="276" y="103" on="0"/>
        <pt x="163" y="240" on="0"/>
        <pt x="92" y="407" on="0"/>
        <pt x="61" y="599" on="0"/>
        <pt x="61" y="702" on="1"/>
        <pt x="61" y="874" on="0"/>
        <pt x="165" y="1157" on="0"/>
        <pt x="366" y="1364" on="0"/>
        <pt x="660" y="1486" on="0"/>
        <pt x="850" y="1497" on="1"/>
        <pt x="940" y="1497" on="0"/>
        <pt x="1113" y="1472" on="0"/>
        <pt x="1268" y="1415" on="0"/>
        <pt x="1402" y="1325" on="0"/>
        <pt x="1506" y="1196" on="0"/>
        <pt x="1576" y="1023" on="0"/>
        <pt x="1589" y="913" on="1"/>
        <pt x="1527" y="911" on="0"/>
        <pt x="1414" y="902" on="0"/>
        <pt x="1304" y="889" on="0"/>
        <pt x="1191" y="873" on="0"/>
        <pt x="1128" y="864" on="1"/>
        <pt x="1136" y="899" on="0"/>
        <pt x="1143" y="986" on="0"/>
        <pt x="1143" y="1032" on="1"/>
        <pt x="1143" y="1086" on="0"/>
        <pt x="1134" y="1195" on="0"/>
        <pt x="1124" y="1243" on="1"/>
        <pt x="1072" y="1251" on="0"/>
        <pt x="934" y="1257" on="0"/>
        <pt x="860" y="1257" on="1"/>
        <pt x="777" y="1257" on="0"/>
        <pt x="619" y="1251" on="0"/>
        <pt x="559" y="1243" on="1"/>
        <pt x="530" y="1109" on="0"/>
        <pt x="500" y="807" on="0"/>
        <pt x="500" y="649" on="1"/>
        <pt x="500" y="535" on="0"/>
        <pt x="515" y="311" on="0"/>
        <pt x="530" y="203" on="1"/>
        <pt x="559" y="200" on="0"/>
        <pt x="631" y="197" on="0"/>
        <pt x="672" y="197" on="1"/>
        <pt x="729" y="197" on="0"/>
        <pt x="855" y="203" on="0"/>
        <pt x="978" y="214" on="0"/>
        <pt x="1095" y="231" on="0"/>
        <pt x="1143" y="242" on="1"/>
        <pt x="1146" y="270" on="0"/>
        <pt x="1151" y="340" on="0"/>
        <pt x="1151" y="377" on="1"/>
        <pt x="1151" y="411" on="0"/>
        <pt x="1148" y="476" on="0"/>
        <pt x="1143" y="502" on="1"/>
        <pt x="1069" y="501" on="0"/>
        <pt x="1000" y="497" on="1"/>
        <pt x="971" y="495" on="0"/>
        <pt x="908" y="491" on="0"/>
        <pt x="848" y="486" on="0"/>
        <pt x="795" y="480" on="0"/>
        <pt x="774" y="477" on="1"/>
        <pt x="795" y="573" on="0"/>
        <pt x="795" y="676" on="1"/>
        <pt x="795" y="693" on="0"/>
        <pt x="795" y="726" on="0"/>
        <pt x="793" y="743" on="1"/>
        <pt x="983" y="731" on="0"/>
        <pt x="1180" y="731" on="1"/>
        <pt x="1286" y="731" on="0"/>
        <pt x="1502" y="737" on="0"/>
      </contour>
    </TTGlyph>
    <TTGlyph name="Gbreve" xMin="61" yMin="-49" xMax="1618" yMax="1882">
      <component glyphName="G" x="0" y="0" flags="0x204"/>
      <component glyphName="breve" x="444" y="389" flags="0x4"/>
    </TTGlyph>
    <TTGlyph name="Gcircumflex" xMin="61" yMin="-49" xMax="1618" yMax="1917">
      <component glyphName="G" x="0" y="0" flags="0x204"/>
      <component glyphName="circumflex" x="449" y="410" flags="0x4"/>
    </TTGlyph>
    <TTGlyph name="Gcommaaccent" xMin="61" yMin="-489" xMax="1618" yMax="1497">
      <component glyphName="G" x="0" y="0" flags="0x204"/>
      <component glyphName="uni0326" x="567" y="-28" flags="0x4"/>
    </TTGlyph>
    <TTGlyph name="Gdotaccent" xMin="61" yMin="-49" xMax="1618" yMax="1771">
      <component glyphName="G" x="0" y="0" flags="0x204"/>
      <component glyphName="dotaccent" x="723" y="317" flags="0x4"/>
    </TTGlyph>
    <TTGlyph name="H" xMin="106" yMin="-33" xMax="1438" yMax="1485">
      <contour>
        <pt x="1438" y="1466" on="1"/>
        <pt x="1419" y="1157" on="0"/>
        <pt x="1401" y="551" on="0"/>
        <pt x="1401" y="248" on="1"/>
        <pt x="1401" y="180" on="0"/>
        <pt x="1401" y="46" on="0"/>
        <pt x="1403" y="-23" on="1"/>
        <pt x="1347" y="-23" on="0"/>
        <pt x="1225" y="-26" on="0"/>
        <pt x="1174" y="-28" on="1"/>
        <pt x="1114" y="-31" on="0"/>
        <pt x="1057" y="-33" on="1"/>
        <pt x="1065" y="91" on="0"/>
        <pt x="1076" y="338" on="0"/>
        <pt x="1079" y="463" on="1"/>
        <pt x="1062" y="463" on="0"/>
        <pt x="1028" y="465" on="0"/>
        <pt x="1010" y="465" on="1"/>
        <pt x="907" y="465" on="0"/>
        <pt x="683" y="445" on="0"/>
        <pt x="578" y="434" on="1"/>
        <pt x="583" y="319" on="0"/>
        <pt x="595" y="92" on="0"/>
        <pt x="604" y="-23" on="1"/>
        <pt x="558" y="-21" on="0"/>
        <pt x="474" y="-18" on="0"/>
        <pt x="432" y="-18" on="1"/>
        <pt x="354" y="-18" on="0"/>
        <pt x="197" y="-27" on="0"/>
        <pt x="106" y="-33" on="1"/>
        <pt x="126" y="154" on="0"/>
        <pt x="147" y="525" on="0"/>
        <pt x="147" y="715" on="1"/>
        <pt x="147" y="902" on="0"/>
        <pt x="126" y="1272" on="0"/>
        <pt x="106" y="1464" on="1"/>
        <pt x="166" y="1464" on="0"/>
        <pt x="275" y="1466" on="0"/>
        <pt x="388" y="1470" on="0"/>
        <pt x="514" y="1479" on="0"/>
        <pt x="592" y="1485" on="1"/>
        <pt x="581" y="1326" on="0"/>
        <pt x="569" y="1007" on="0"/>
        <pt x="569" y="846" on="1"/>
        <pt x="569" y="672" on="1"/>
        <pt x="635" y="672" on="1"/>
        <pt x="744" y="672" on="0"/>
        <pt x="974" y="681" on="0"/>
        <pt x="1085" y="690" on="1"/>
        <pt x="1085" y="749" on="0"/>
        <pt x="1087" y="867" on="0"/>
        <pt x="1087" y="926" on="1"/>
        <pt x="1087" y="1059" on="0"/>
        <pt x="1082" y="1323" on="0"/>
        <pt x="1077" y="1456" on="1"/>
        <pt x="1134" y="1456" on="0"/>
        <pt x="1210" y="1456" on="0"/>
        <pt x="1283" y="1458" on="0"/>
        <pt x="1370" y="1462" on="0"/>
      </contour>
    </TTGlyph>
    <TTGlyph name="Hbar" xMin="0" yMin="-33" xMax="1530" yMax="1485">
      <contour>
        <pt x="1438" y="1466" on="1"/>
        <pt x="1432" y="1369" on="0"/>
        <pt x="1422" y="1177" on="0"/>
        <pt x="1417" y="1081" on="1"/>
        <pt x="1451" y="1083" on="0"/>
        <pt x="1507" y="1088" on="0"/>
        <pt x="1530" y="1092" on="1"/>
        <pt x="1513" y="801" on="1"/>
        <pt x="1409" y="809" on="1"/>
        <pt x="1404" y="667" on="0"/>
        <pt x="1401" y="388" on="0"/>
        <pt x="1401" y="248" on="1"/>
        <pt x="1401" y="180" on="0"/>
        <pt x="1401" y="46" on="0"/>
        <pt x="1403" y="-23" on="1"/>
        <pt x="1347" y="-23" on="0"/>
        <pt x="1225" y="-26" on="0"/>
        <pt x="1174" y="-28" on="1"/>
        <pt x="1114" y="-31" on="0"/>
        <pt x="1057" y="-33" on="1"/>
        <pt x="1065" y="91" on="0"/>
        <pt x="1076" y="338" on="0"/>
        <pt x="1079" y="463" on="1"/>
        <pt x="1062" y="463" on="0"/>
        <pt x="1028" y="465" on="0"/>
        <pt x="1010" y="465" on="1"/>
        <pt x="907" y="465" on="0"/>
        <pt x="683" y="445" on="0"/>
        <pt x="578" y="434" on="1"/>
        <pt x="583" y="319" on="0"/>
        <pt x="595" y="92" on="0"/>
        <pt x="604" y="-23" on="1"/>
        <pt x="558" y="-21" on="0"/>
        <pt x="474" y="-18" on="0"/>
        <pt x="432" y="-18" on="1"/>
        <pt x="354" y="-18" on="0"/>
        <pt x="197" y="-27" on="0"/>
        <pt x="106" y="-33" on="1"/>
        <pt x="126" y="154" on="0"/>
        <pt x="147" y="525" on="0"/>
        <pt x="147" y="715" on="1"/>
        <pt x="147" y="809" on="1"/>
        <pt x="109" y="806" on="0"/>
        <pt x="42" y="802" on="0"/>
        <pt x="14" y="799" on="1"/>
        <pt x="0" y="1090" on="1"/>
        <pt x="29" y="1086" on="0"/>
        <pt x="97" y="1081" on="0"/>
        <pt x="137" y="1079" on="1"/>
        <pt x="131" y="1175" on="0"/>
        <pt x="116" y="1365" on="0"/>
        <pt x="106" y="1464" on="1"/>
        <pt x="166" y="1464" on="0"/>
        <pt x="275" y="1466" on="0"/>
        <pt x="388" y="1470" on="0"/>
        <pt x="514" y="1479" on="0"/>
        <pt x="592" y="1485" on="1"/>
        <pt x="584" y="1380" on="0"/>
        <pt x="573" y="1171" on="0"/>
        <pt x="571" y="1065" on="1"/>
        <pt x="701" y="1063" on="0"/>
        <pt x="966" y="1066" on="0"/>
        <pt x="1087" y="1069" on="1"/>
        <pt x="1085" y="1166" on="0"/>
        <pt x="1080" y="1359" on="0"/>
        <pt x="1077" y="1456" on="1"/>
        <pt x="1134" y="1456" on="0"/>
        <pt x="1210" y="1456" on="0"/>
        <pt x="1283" y="1458" on="0"/>
        <pt x="1370" y="1462" on="0"/>
      </contour>
      <contour>
        <pt x="1087" y="821" on="1"/>
        <pt x="964" y="824" on="0"/>
        <pt x="699" y="825" on="0"/>
        <pt x="569" y="823" on="1"/>
        <pt x="569" y="672" on="1"/>
        <pt x="635" y="672" on="1"/>
        <pt x="744" y="672" on="0"/>
        <pt x="974" y="681" on="0"/>
        <pt x="1085" y="690" on="1"/>
        <pt x="1085" y="722" on="0"/>
        <pt x="1085" y="789" on="0"/>
      </contour>
    </TTGlyph>
    <TTGlyph name="Hcircumflex" xMin="106" yMin="-33" xMax="1438" yMax="1917">
      <component glyphName="H" x="0" y="0" flags="0x204"/>
      <component glyphName="circumflex" x="397" y="410" flags="0x4"/>
    </TTGlyph>
    <TTGlyph name="I" xMin="55" yMin="-12" xMax="930" yMax="1505">
      <contour>
        <pt x="930" y="1243" on="1"/>
        <pt x="801" y="1249" on="0"/>
        <pt x="674" y="1249" on="1"/>
        <pt x="668" y="1249" on="1"/>
        <pt x="668" y="1207" on="0"/>
        <pt x="667" y="1056" on="0"/>
        <pt x="667" y="869" on="0"/>
        <pt x="665" y="661" on="0"/>
        <pt x="665" y="465" on="0"/>
        <pt x="664" y="296" on="0"/>
        <pt x="664" y="240" on="1"/>
        <pt x="883" y="240" on="1"/>
        <pt x="883" y="-12" on="1"/>
        <pt x="55" y="-12" on="1"/>
        <pt x="55" y="240" on="1"/>
        <pt x="233" y="240" on="1"/>
        <pt x="235" y="292" on="0"/>
        <pt x="240" y="440" on="0"/>
        <pt x="246" y="612" on="0"/>
        <pt x="253" y="800" on="0"/>
        <pt x="258" y="987" on="0"/>
        <pt x="262" y="1163" on="0"/>
        <pt x="262" y="1237" on="1"/>
        <pt x="214" y="1235" on="0"/>
        <pt x="120" y="1230" on="0"/>
        <pt x="72" y="1227" on="1"/>
        <pt x="75" y="1270" on="0"/>
        <pt x="80" y="1345" on="0"/>
        <pt x="80" y="1382" on="1"/>
        <pt x="80" y="1411" on="0"/>
        <pt x="77" y="1470" on="0"/>
        <pt x="72" y="1505" on="1"/>
        <pt x="144" y="1500" on="0"/>
        <pt x="326" y="1497" on="0"/>
        <pt x="422" y="1497" on="1"/>
        <pt x="518" y="1497" on="0"/>
        <pt x="699" y="1499" on="0"/>
        <pt x="771" y="1501" on="1"/>
        <pt x="855" y="1503" on="0"/>
        <pt x="930" y="1505" on="1"/>
      </contour>
    </TTGlyph>
    <TTGlyph name="IJ" xMin="55" yMin="-45" xMax="2228" yMax="1518">
      <component glyphName="I" x="0" y="0" flags="0x4"/>
      <component glyphName="J" x="948" y="0" flags="0x4"/>
    </TTGlyph>
    <TTGlyph name="Iacute" xMin="55" yMin="-12" xMax="930" yMax="1960">
      <component glyphName="I" x="0" y="0" flags="0x204"/>
      <component glyphName="acute" x="408" y="401" flags="0x4"/>
    </TTGlyph>
    <TTGlyph name="Ibreve" xMin="55" yMin="-12" xMax="930" yMax="1903">
      <component glyphName="I" x="0" y="0" flags="0x204"/>
      <component glyphName="breve" x="104" y="410" flags="0x4"/>
    </TTGlyph>
    <TTGlyph name="Icircumflex" xMin="55" yMin="-12" xMax="930" yMax="1908">
      <component glyphName="I" x="0" y="0" flags="0x204"/>
      <component glyphName="circumflex" x="98" y="401" flags="0x4"/>
    </TTGlyph>
    <TTGlyph name="Idieresis" xMin="55" yMin="-12" xMax="930" yMax="1765">
      <component glyphName="I" x="0" y="0" flags="0x204"/>
      <component glyphName="dieresis" x="139" y="311" flags="0x4"/>
    </TTGlyph>
    <TTGlyph name="Idotaccent" xMin="55" yMin="-12" xMax="930" yMax="1780">
      <component glyphName="I" x="0" y="0" flags="0x204"/>
      <component glyphName="dotaccent" x="342" y="326" flags="0x4"/>
    </TTGlyph>
    <TTGlyph name="Igrave" xMin="43" yMin="-12" xMax="930" yMax="1960">
      <component glyphName="I" x="0" y="0" flags="0x204"/>
      <component glyphName="grave" x="43" y="401" flags="0x4"/>
    </TTGlyph>
    <TTGlyph name="Imacron" xMin="55" yMin="-12" xMax="930" yMax="1790">
      <component glyphName="I" x="0" y="0" flags="0x204"/>
      <component glyphName="macron" x="133" y="332" flags="0x4"/>
    </TTGlyph>
    <TTGlyph name="Iogonek" xMin="55" yMin="-473" xMax="930" yMax="1505">
      <contour>
        <pt x="727" y="-412" on="1"/>
        <pt x="673" y="-440" on="0"/>
        <pt x="553" y="-473" on="0"/>
        <pt x="487" y="-473" on="1"/>
        <pt x="430" y="-473" on="0"/>
        <pt x="328" y="-451" on="0"/>
        <pt x="251" y="-406" on="0"/>
        <pt x="205" y="-338" on="0"/>
        <pt x="205" y="-291" on="1"/>
        <pt x="205" y="-253" on="0"/>
        <pt x="232" y="-179" on="0"/>
        <pt x="277" y="-108" on="0"/>
        <pt x="334" y="-42" on="0"/>
        <pt x="365" y="-12" on="1"/>
        <pt x="55" y="-12" on="1"/>
        <pt x="55" y="240" on="1"/>
        <pt x="233" y="240" on="1"/>
        <pt x="235" y="292" on="0"/>
        <pt x="240" y="440" on="0"/>
        <pt x="246" y="612" on="0"/>
        <pt x="253" y="800" on="0"/>
        <pt x="258" y="987" on="0"/>
        <pt x="262" y="1163" on="0"/>
        <pt x="262" y="1237" on="1"/>
        <pt x="214" y="1235" on="0"/>
        <pt x="120" y="1230" on="0"/>
        <pt x="72" y="1227" on="1"/>
        <pt x="75" y="1270" on="0"/>
        <pt x="80" y="1345" on="0"/>
        <pt x="80" y="1382" on="1"/>
        <pt x="80" y="1411" on="0"/>
        <pt x="77" y="1470" on="0"/>
        <pt x="72" y="1505" on="1"/>
        <pt x="144" y="1500" on="0"/>
        <pt x="326" y="1497" on="0"/>
        <pt x="422" y="1497" on="1"/>
        <pt x="518" y="1497" on="0"/>
        <pt x="699" y="1499" on="0"/>
        <pt x="771" y="1501" on="1"/>
        <pt x="855" y="1503" on="0"/>
        <pt x="930" y="1505" on="1"/>
        <pt x="930" y="1243" on="1"/>
        <pt x="801" y="1249" on="0"/>
        <pt x="674" y="1249" on="1"/>
        <pt x="668" y="1249" on="1"/>
        <pt x="668" y="1207" on="0"/>
        <pt x="667" y="1056" on="0"/>
        <pt x="667" y="869" on="0"/>
        <pt x="665" y="661" on="0"/>
        <pt x="665" y="465" on="0"/>
        <pt x="664" y="296" on="0"/>
        <pt x="664" y="240" on="1"/>
        <pt x="883" y="240" on="1"/>
        <pt x="883" y="-12" on="1"/>
        <pt x="528" y="-12" on="1"/>
        <pt x="485" y="-78" on="0"/>
        <pt x="427" y="-224" on="0"/>
        <pt x="418" y="-299" on="1"/>
        <pt x="496" y="-294" on="0"/>
        <pt x="650" y="-275" on="0"/>
        <pt x="727" y="-258" on="1"/>
      </contour>
    </TTGlyph>
    <TTGlyph name="Itilde" xMin="45" yMin="-12" xMax="930" yMax="1921">
      <component glyphName="I" x="0" y="0" flags="0x204"/>
      <component glyphName="tilde" x="45" y="410" flags="0x4"/>
    </TTGlyph>
    <TTGlyph name="J" xMin="29" yMin="-45" xMax="1280" yMax="1518">
      <contour>
        <pt x="1280" y="692" on="1"/>
        <pt x="1278" y="542" on="0"/>
        <pt x="1197" y="275" on="0"/>
        <pt x="1033" y="73" on="0"/>
        <pt x="785" y="-45" on="0"/>
        <pt x="616" y="-45" on="1"/>
        <pt x="469" y="-45" on="0"/>
        <pt x="248" y="28" on="0"/>
        <pt x="102" y="181" on="0"/>
        <pt x="29" y="419" on="0"/>
        <pt x="29" y="584" on="1"/>
        <pt x="29" y="621" on="0"/>
        <pt x="32" y="697" on="0"/>
        <pt x="37" y="735" on="1"/>
        <pt x="94" y="732" on="0"/>
        <pt x="184" y="727" on="0"/>
        <pt x="227" y="727" on="1"/>
        <pt x="271" y="727" on="0"/>
        <pt x="363" y="733" on="0"/>
        <pt x="426" y="739" on="1"/>
        <pt x="424" y="693" on="0"/>
        <pt x="423" y="645" on="1"/>
        <pt x="421" y="603" on="0"/>
        <pt x="420" y="500" on="0"/>
        <pt x="420" y="449" on="1"/>
        <pt x="420" y="389" on="0"/>
        <pt x="423" y="285" on="0"/>
        <pt x="428" y="260" on="1"/>
        <pt x="469" y="260" on="0"/>
        <pt x="576" y="262" on="0"/>
        <pt x="690" y="267" on="0"/>
        <pt x="802" y="274" on="0"/>
        <pt x="848" y="279" on="1"/>
        <pt x="866" y="396" on="0"/>
        <pt x="881" y="672" on="0"/>
        <pt x="881" y="817" on="1"/>
        <pt x="881" y="930" on="0"/>
        <pt x="875" y="1152" on="0"/>
        <pt x="870" y="1255" on="1"/>
        <pt x="841" y="1255" on="0"/>
        <pt x="771" y="1252" on="0"/>
        <pt x="698" y="1246" on="0"/>
        <pt x="627" y="1236" on="0"/>
        <pt x="596" y="1229" on="1"/>
        <pt x="578" y="1505" on="1"/>
        <pt x="693" y="1499" on="0"/>
        <pt x="807" y="1499" on="1"/>
        <pt x="909" y="1499" on="0"/>
        <pt x="1117" y="1508" on="0"/>
        <pt x="1233" y="1518" on="1"/>
        <pt x="1247" y="1352" on="0"/>
        <pt x="1265" y="1055" on="0"/>
        <pt x="1270" y="940" on="1"/>
        <pt x="1276" y="806" on="0"/>
      </contour>
    </TTGlyph>
    <TTGlyph name="Jcircumflex" xMin="29" yMin="-45" xMax="1291" yMax="1917">
      <component glyphName="J" x="0" y="0" flags="0x204"/>
      <component glyphName="circumflex" x="543" y="410" flags="0x4"/>
    </TTGlyph>
    <TTGlyph name="K" xMin="115" yMin="-53" xMax="1497" yMax="1470">
      <contour>
        <pt x="1028" y="-53" on="1"/>
        <pt x="923" y="106" on="0"/>
        <pt x="675" y="432" on="0"/>
        <pt x="551" y="602" on="1"/>
        <pt x="551" y="-18" on="1"/>
        <pt x="115" y="-37" on="1"/>
        <pt x="129" y="159" on="0"/>
        <pt x="145" y="553" on="0"/>
        <pt x="145" y="756" on="1"/>
        <pt x="145" y="1114" on="0"/>
        <pt x="115" y="1470" on="1"/>
        <pt x="551" y="1470" on="1"/>
        <pt x="551" y="784" on="1"/>
        <pt x="1206" y="1470" on="1"/>
        <pt x="1497" y="1399" on="1"/>
        <pt x="913" y="768" on="1"/>
        <pt x="1054" y="579" on="0"/>
        <pt x="1271" y="297" on="0"/>
        <pt x="1346" y="201" on="1"/>
        <pt x="1433" y="89" on="0"/>
        <pt x="1497" y="10" on="1"/>
      </contour>
    </TTGlyph>
    <TTGlyph name="Kcommaaccent" xMin="115" yMin="-461" xMax="1497" yMax="1470">
      <component glyphName="K" x="0" y="0" flags="0x204"/>
      <component glyphName="uni0326" x="524" y="0" flags="0x4"/>
    </TTGlyph>
    <TTGlyph name="L" xMin="123" yMin="-35" xMax="1157" yMax="1475">
      <contour>
        <pt x="1157" y="-35" on="1"/>
        <pt x="1020" y="-26" on="0"/>
        <pt x="742" y="-16" on="0"/>
        <pt x="602" y="-16" on="1"/>
        <pt x="483" y="-16" on="0"/>
        <pt x="245" y="-24" on="0"/>
        <pt x="123" y="-35" on="1"/>
        <pt x="131" y="145" on="0"/>
        <pt x="139" y="500" on="0"/>
        <pt x="139" y="680" on="1"/>
        <pt x="139" y="881" on="0"/>
        <pt x="131" y="1280" on="0"/>
        <pt x="123" y="1475" on="1"/>
        <pt x="565" y="1475" on="1"/>
        <pt x="561" y="1238" on="0"/>
        <pt x="557" y="1014" on="1"/>
        <pt x="555" y="918" on="0"/>
        <pt x="553" y="714" on="0"/>
        <pt x="550" y="516" on="0"/>
        <pt x="549" y="335" on="0"/>
        <pt x="549" y="262" on="1"/>
        <pt x="1157" y="279" on="1"/>
      </contour>
    </TTGlyph>
    <TTGlyph name="Lacute" xMin="123" yMin="-35" xMax="1157" yMax="1969">
      <component glyphName="L" x="0" y="0" flags="0x204"/>
      <component glyphName="acute" x="338" y="410" flags="0x4"/>
    </TTGlyph>
    <TTGlyph name="Lcaron" xMin="123" yMin="-35" xMax="1157" yMax="1696">
      <component glyphName="L" x="0" y="0" flags="0x204"/>
      <component glyphName="uni0315" x="639" y="211" flags="0x4"/>
    </TTGlyph>
    <TTGlyph name="Lcommaaccent" xMin="123" yMin="-461" xMax="1157" yMax="1475">
      <component glyphName="L" x="0" y="0" flags="0x204"/>
      <component glyphName="uni0326" x="367" y="0" flags="0x4"/>
    </TTGlyph>
    <TTGlyph name="Ldot" xMin="123" yMin="-35" xMax="1391" yMax="1475">
      <component glyphName="L" x="0" y="0" flags="0x4"/>
      <component glyphName="periodcentered" x="924" y="0" flags="0x4"/>
    </TTGlyph>
    <TTGlyph name="Lslash" xMin="-25" yMin="-35" xMax="1174" yMax="1475">
      <contour>
        <pt x="795" y="791" on="1"/>
        <pt x="567" y="692" on="1"/>
        <pt x="565" y="571" on="0"/>
        <pt x="565" y="350" on="0"/>
        <pt x="565" y="262" on="1"/>
        <pt x="1174" y="279" on="1"/>
        <pt x="1174" y="-35" on="1"/>
        <pt x="1036" y="-26" on="0"/>
        <pt x="759" y="-16" on="0"/>
        <pt x="618" y="-16" on="1"/>
        <pt x="500" y="-16" on="0"/>
        <pt x="261" y="-24" on="0"/>
        <pt x="139" y="-35" on="1"/>
        <pt x="145" y="102" on="0"/>
        <pt x="152" y="377" on="0"/>
        <pt x="154" y="514" on="1"/>
        <pt x="-25" y="436" on="1"/>
        <pt x="-25" y="643" on="1"/>
        <pt x="156" y="721" on="1"/>
        <pt x="154" y="911" on="0"/>
        <pt x="145" y="1289" on="0"/>
        <pt x="139" y="1475" on="1"/>
        <pt x="582" y="1475" on="1"/>
        <pt x="580" y="1395" on="0"/>
        <pt x="578" y="1303" on="1"/>
        <pt x="576" y="1224" on="0"/>
        <pt x="573" y="1017" on="0"/>
        <pt x="571" y="903" on="1"/>
        <pt x="795" y="999" on="1"/>
      </contour>
    </TTGlyph>
    <TTGlyph name="M" xMin="45" yMin="-35" xMax="1925" yMax="1485">
      <contour>
        <pt x="1513" y="-35" on="1"/>
        <pt x="1509" y="-12" on="0"/>
        <pt x="1495" y="110" on="0"/>
        <pt x="1478" y="276" on="0"/>
        <pt x="1458" y="474" on="0"/>
        <pt x="1449" y="574" on="1"/>
        <pt x="1426" y="808" on="0"/>
        <pt x="1401" y="1090" on="1"/>
        <pt x="1182" y="-8" on="1"/>
        <pt x="754" y="-35" on="1"/>
        <pt x="700" y="187" on="0"/>
        <pt x="652" y="395" on="1"/>
        <pt x="631" y="483" on="0"/>
        <pt x="588" y="672" on="0"/>
        <pt x="547" y="853" on="0"/>
        <pt x="512" y="1017" on="0"/>
        <pt x="500" y="1081" on="1"/>
        <pt x="496" y="1027" on="0"/>
        <pt x="483" y="874" on="0"/>
        <pt x="468" y="697" on="0"/>
        <pt x="451" y="507" on="0"/>
        <pt x="442" y="416" on="1"/>
        <pt x="422" y="202" on="0"/>
        <pt x="399" y="-35" on="1"/>
        <pt x="45" y="-35" on="1"/>
        <pt x="104" y="336" on="0"/>
        <pt x="191" y="1074" on="0"/>
        <pt x="213" y="1454" on="1"/>
        <pt x="795" y="1485" on="1"/>
        <pt x="1032" y="399" on="1"/>
        <pt x="1075" y="604" on="0"/>
        <pt x="1113" y="801" on="1"/>
        <pt x="1129" y="885" on="0"/>
        <pt x="1162" y="1067" on="0"/>
        <pt x="1190" y="1246" on="0"/>
        <pt x="1214" y="1414" on="0"/>
        <pt x="1221" y="1485" on="1"/>
        <pt x="1774" y="1485" on="1"/>
        <pt x="1794" y="1117" on="0"/>
        <pt x="1868" y="381" on="0"/>
        <pt x="1925" y="4" on="1"/>
      </contour>
    </TTGlyph>
    <TTGlyph name="N" xMin="113" yMin="-45" xMax="1593" yMax="1542">
      <contour>
        <pt x="1593" y="1542" on="1"/>
        <pt x="1559" y="1242" on="0"/>
        <pt x="1533" y="954" on="1"/>
        <pt x="1522" y="831" on="0"/>
        <pt x="1500" y="567" on="0"/>
        <pt x="1482" y="309" on="0"/>
        <pt x="1470" y="68" on="0"/>
        <pt x="1470" y="-31" on="1"/>
        <pt x="1395" y="-39" on="0"/>
        <pt x="1262" y="-45" on="0"/>
        <pt x="1194" y="-45" on="1"/>
        <pt x="1159" y="-45" on="0"/>
        <pt x="1083" y="-43" on="0"/>
        <pt x="1042" y="-41" on="1"/>
        <pt x="475" y="1124" on="1"/>
        <pt x="476" y="1055" on="0"/>
        <pt x="479" y="883" on="0"/>
        <pt x="483" y="696" on="0"/>
        <pt x="488" y="502" on="0"/>
        <pt x="490" y="412" on="1"/>
        <pt x="494" y="200" on="0"/>
        <pt x="500" y="-23" on="1"/>
        <pt x="439" y="-23" on="0"/>
        <pt x="374" y="-25" on="1"/>
        <pt x="318" y="-27" on="0"/>
        <pt x="181" y="-34" on="0"/>
        <pt x="113" y="-41" on="1"/>
        <pt x="120" y="59" on="0"/>
        <pt x="130" y="312" on="0"/>
        <pt x="137" y="591" on="0"/>
        <pt x="141" y="879" on="0"/>
        <pt x="141" y="1014" on="1"/>
        <pt x="141" y="1154" on="0"/>
        <pt x="136" y="1396" on="0"/>
        <pt x="133" y="1481" on="1"/>
        <pt x="214" y="1475" on="0"/>
        <pt x="362" y="1470" on="0"/>
        <pt x="436" y="1470" on="1"/>
        <pt x="511" y="1470" on="0"/>
        <pt x="662" y="1475" on="0"/>
        <pt x="745" y="1481" on="1"/>
        <pt x="790" y="1354" on="0"/>
        <pt x="900" y="1120" on="0"/>
        <pt x="1017" y="891" on="0"/>
        <pt x="1135" y="660" on="0"/>
        <pt x="1190" y="537" on="1"/>
        <pt x="1190" y="603" on="0"/>
        <pt x="1193" y="759" on="0"/>
        <pt x="1197" y="925" on="0"/>
        <pt x="1201" y="1093" on="0"/>
        <pt x="1204" y="1171" on="1"/>
        <pt x="1209" y="1353" on="0"/>
        <pt x="1217" y="1542" on="1"/>
        <pt x="1272" y="1537" on="0"/>
        <pt x="1357" y="1532" on="0"/>
        <pt x="1399" y="1532" on="1"/>
        <pt x="1441" y="1532" on="0"/>
        <pt x="1531" y="1537" on="0"/>
      </contour>
    </TTGlyph>
    <TTGlyph name="Nacute" xMin="113" yMin="-45" xMax="1593" yMax="1969">
      <component glyphName="N" x="0" y="0" flags="0x204"/>
      <component glyphName="acute" x="733" y="410" flags="0x4"/>
    </TTGlyph>
    <TTGlyph name="Ncaron" xMin="113" yMin="-45" xMax="1593" yMax="1917">
      <component glyphName="N" x="0" y="0" flags="0x204"/>
      <component glyphName="caron" x="453" y="410" flags="0x4"/>
    </TTGlyph>
    <TTGlyph name="Ncommaaccent" xMin="113" yMin="-461" xMax="1593" yMax="1542">
      <component glyphName="N" x="0" y="0" flags="0x204"/>
      <component glyphName="uni0326" x="606" y="0" flags="0x4"/>
    </TTGlyph>
    <TTGlyph name="Ntilde" xMin="113" yMin="-45" xMax="1593" yMax="1869">
      <component glyphName="N" x="0" y="0" flags="0x204"/>
      <component glyphName="tilde" x="414" y="358" flags="0x4"/>
    </TTGlyph>
    <TTGlyph name="O" xMin="61" yMin="-49" xMax="1532" yMax="1505">
      <contour>
        <pt x="1044" y="236" on="1"/>
        <pt x="1050" y="296" on="0"/>
        <pt x="1060" y="440" on="0"/>
        <pt x="1066" y="590" on="0"/>
        <pt x="1069" y="735" on="0"/>
        <pt x="1069" y="795" on="1"/>
        <pt x="1069" y="910" on="0"/>
        <pt x="1057" y="1159" on="0"/>
        <pt x="1044" y="1274" on="1"/>
        <pt x="1029" y="1275" on="0"/>
        <pt x="987" y="1277" on="0"/>
        <pt x="942" y="1278" on="0"/>
        <pt x="900" y="1278" on="0"/>
        <pt x="885" y="1278" on="1"/>
        <pt x="840" y="1278" on="0"/>
        <pt x="739" y="1274" on="0"/>
        <pt x="635" y="1265" on="0"/>
        <pt x="534" y="1252" on="0"/>
        <pt x="489" y="1243" on="1"/>
        <pt x="489" y="1221" on="0"/>
        <pt x="488" y="1152" on="0"/>
        <pt x="488" y="1079" on="0"/>
        <pt x="487" y="1012" on="0"/>
        <pt x="487" y="991" on="1"/>
        <pt x="487" y="804" on="0"/>
        <pt x="512" y="418" on="0"/>
        <pt x="537" y="236" on="1"/>
        <pt x="562" y="232" on="0"/>
        <pt x="625" y="226" on="0"/>
        <pt x="691" y="223" on="0"/>
        <pt x="755" y="221" on="0"/>
        <pt x="780" y="221" on="1"/>
        <pt x="808" y="221" on="0"/>
        <pt x="876" y="223" on="0"/>
        <pt x="946" y="226" on="0"/>
        <pt x="1015" y="232" on="0"/>
      </contour>
      <contour>
        <pt x="1532" y="723" on="1"/>
        <pt x="1532" y="559" on="0"/>
        <pt x="1422" y="277" on="0"/>
        <pt x="1220" y="70" on="0"/>
        <pt x="937" y="-49" on="0"/>
        <pt x="764" y="-49" on="1"/>
        <pt x="689" y="-49" on="0"/>
        <pt x="527" y="-14" on="0"/>
        <pt x="371" y="65" on="0"/>
        <pt x="230" y="191" on="0"/>
        <pt x="124" y="373" on="0"/>
        <pt x="61" y="615" on="0"/>
        <pt x="61" y="770" on="1"/>
        <pt x="61" y="922" on="0"/>
        <pt x="132" y="1150" on="0"/>
        <pt x="248" y="1313" on="0"/>
        <pt x="399" y="1419" on="0"/>
        <pt x="559" y="1481" on="0"/>
        <pt x="715" y="1505" on="0"/>
        <pt x="780" y="1505" on="1"/>
        <pt x="881" y="1505" on="0"/>
        <pt x="1070" y="1468" on="0"/>
        <pt x="1236" y="1389" on="0"/>
        <pt x="1374" y="1265" on="0"/>
        <pt x="1474" y="1091" on="0"/>
        <pt x="1531" y="865" on="0"/>
      </contour>
    </TTGlyph>
    <TTGlyph name="OE" xMin="61" yMin="-49" xMax="2214" yMax="1505">
      <contour>
        <pt x="2212" y="244" on="1"/>
        <pt x="2211" y="230" on="0"/>
        <pt x="2210" y="213" on="1"/>
        <pt x="2209" y="199" on="0"/>
        <pt x="2208" y="159" on="0"/>
        <pt x="2208" y="135" on="1"/>
        <pt x="2208" y="104" on="0"/>
        <pt x="2211" y="32" on="0"/>
        <pt x="2214" y="-6" on="1"/>
        <pt x="2176" y="-4" on="0"/>
        <pt x="2094" y="-4" on="0"/>
        <pt x="2056" y="-4" on="1"/>
        <pt x="1817" y="-4" on="0"/>
        <pt x="1348" y="-19" on="0"/>
        <pt x="1110" y="-35" on="1"/>
        <pt x="1110" y="25" on="1"/>
        <pt x="1033" y="-11" on="0"/>
        <pt x="861" y="-49" on="0"/>
        <pt x="764" y="-49" on="1"/>
        <pt x="689" y="-49" on="0"/>
        <pt x="527" y="-14" on="0"/>
        <pt x="371" y="65" on="0"/>
        <pt x="230" y="191" on="0"/>
        <pt x="124" y="373" on="0"/>
        <pt x="61" y="615" on="0"/>
        <pt x="61" y="770" on="1"/>
        <pt x="61" y="922" on="0"/>
        <pt x="132" y="1150" on="0"/>
        <pt x="248" y="1313" on="0"/>
        <pt x="399" y="1419" on="0"/>
        <pt x="559" y="1481" on="0"/>
        <pt x="715" y="1505" on="0"/>
        <pt x="780" y="1505" on="1"/>
        <pt x="874" y="1505" on="0"/>
        <pt x="1052" y="1472" on="0"/>
        <pt x="1133" y="1438" on="1"/>
        <pt x="1131" y="1447" on="0"/>
        <pt x="1130" y="1465" on="0"/>
        <pt x="1130" y="1473" on="1"/>
        <pt x="1234" y="1473" on="0"/>
        <pt x="1439" y="1470" on="0"/>
        <pt x="1544" y="1470" on="1"/>
        <pt x="1702" y="1470" on="0"/>
        <pt x="2020" y="1480" on="0"/>
        <pt x="2187" y="1497" on="1"/>
        <pt x="2182" y="1463" on="0"/>
        <pt x="2179" y="1400" on="0"/>
        <pt x="2179" y="1372" on="1"/>
        <pt x="2179" y="1345" on="0"/>
        <pt x="2181" y="1300" on="0"/>
        <pt x="2183" y="1284" on="1"/>
        <pt x="2185" y="1266" on="0"/>
        <pt x="2187" y="1251" on="1"/>
        <pt x="2070" y="1245" on="0"/>
        <pt x="1956" y="1241" on="1"/>
        <pt x="1907" y="1239" on="0"/>
        <pt x="1802" y="1236" on="0"/>
        <pt x="1697" y="1233" on="0"/>
        <pt x="1598" y="1231" on="0"/>
        <pt x="1556" y="1231" on="1"/>
        <pt x="1554" y="1183" on="0"/>
        <pt x="1551" y="1127" on="1"/>
        <pt x="1549" y="1079" on="0"/>
        <pt x="1544" y="949" on="0"/>
        <pt x="1542" y="874" on="1"/>
        <pt x="1664" y="876" on="0"/>
        <pt x="1913" y="888" on="0"/>
        <pt x="2050" y="899" on="1"/>
        <pt x="2047" y="861" on="0"/>
        <pt x="2042" y="784" on="0"/>
        <pt x="2042" y="743" on="1"/>
        <pt x="2042" y="716" on="0"/>
        <pt x="2045" y="660" on="0"/>
        <pt x="2050" y="631" on="1"/>
        <pt x="1985" y="636" on="0"/>
        <pt x="1855" y="641" on="0"/>
        <pt x="1790" y="641" on="1"/>
        <pt x="1727" y="641" on="0"/>
        <pt x="1601" y="636" on="0"/>
        <pt x="1536" y="631" on="1"/>
        <pt x="1536" y="463" on="1"/>
        <pt x="1536" y="403" on="0"/>
        <pt x="1538" y="292" on="0"/>
        <pt x="1540" y="244" on="1"/>
        <pt x="1605" y="246" on="0"/>
        <pt x="1753" y="246" on="0"/>
        <pt x="1827" y="246" on="1"/>
        <pt x="1902" y="246" on="0"/>
        <pt x="2041" y="245" on="0"/>
        <pt x="2095" y="245" on="1"/>
        <pt x="2157" y="244" on="0"/>
      </contour>
      <contour>
        <pt x="1044" y="236" on="1"/>
        <pt x="1050" y="296" on="0"/>
        <pt x="1060" y="440" on="0"/>
        <pt x="1066" y="590" on="0"/>
        <pt x="1069" y="735" on="0"/>
        <pt x="1069" y="795" on="1"/>
        <pt x="1069" y="910" on="0"/>
        <pt x="1057" y="1159" on="0"/>
        <pt x="1044" y="1274" on="1"/>
        <pt x="1029" y="1275" on="0"/>
        <pt x="987" y="1277" on="0"/>
        <pt x="942" y="1278" on="0"/>
        <pt x="900" y="1278" on="0"/>
        <pt x="885" y="1278" on="1"/>
        <pt x="840" y="1278" on="0"/>
        <pt x="739" y="1274" on="0"/>
        <pt x="635" y="1265" on="0"/>
        <pt x="534" y="1252" on="0"/>
        <pt x="489" y="1243" on="1"/>
        <pt x="489" y="1221" on="0"/>
        <pt x="488" y="1152" on="0"/>
        <pt x="488" y="1079" on="0"/>
        <pt x="487" y="1012" on="0"/>
        <pt x="487" y="991" on="1"/>
        <pt x="487" y="804" on="0"/>
        <pt x="512" y="418" on="0"/>
        <pt x="537" y="236" on="1"/>
        <pt x="562" y="232" on="0"/>
        <pt x="625" y="226" on="0"/>
        <pt x="691" y="223" on="0"/>
        <pt x="755" y="221" on="0"/>
        <pt x="780" y="221" on="1"/>
        <pt x="808" y="221" on="0"/>
        <pt x="876" y="223" on="0"/>
        <pt x="946" y="226" on="0"/>
        <pt x="1015" y="232" on="0"/>
      </contour>
    </TTGlyph>
    <TTGlyph name="Oacute" xMin="61" yMin="-49" xMax="1532" yMax="1958">
      <component glyphName="O" x="0" y="0" flags="0x204"/>
      <component glyphName="acute" x="752" y="399" flags="0x4"/>
    </TTGlyph>
    <TTGlyph name="Obreve" xMin="61" yMin="-49" xMax="1532" yMax="1903">
      <component glyphName="O" x="0" y="0" flags="0x204"/>
      <component glyphName="breve" x="416" y="410" flags="0x4"/>
    </TTGlyph>
    <TTGlyph name="Ocircumflex" xMin="61" yMin="-49" xMax="1532" yMax="1910">
      <component glyphName="O" x="0" y="0" flags="0x204"/>
      <component glyphName="circumflex" x="401" y="403" flags="0x4"/>
    </TTGlyph>
    <TTGlyph name="Odieresis" xMin="61" yMin="-49" xMax="1532" yMax="1767">
      <component glyphName="O" x="0" y="0" flags="0x204"/>
      <component glyphName="dieresis" x="444" y="313" flags="0x4"/>
    </TTGlyph>
    <TTGlyph name="Ograve" xMin="61" yMin="-49" xMax="1532" yMax="1950">
      <component glyphName="O" x="0" y="0" flags="0x204"/>
      <component glyphName="grave" x="285" y="391" flags="0x4"/>
    </TTGlyph>
    <TTGlyph name="Ohungarumlaut" xMin="61" yMin="-49" xMax="1532" yMax="1969">
      <component glyphName="O" x="0" y="0" flags="0x204"/>
      <component glyphName="hungarumlaut" x="582" y="410" flags="0x4"/>
    </TTGlyph>
    <TTGlyph name="Omacron" xMin="61" yMin="-49" xMax="1532" yMax="1773">
      <component glyphName="O" x="0" y="0" flags="0x204"/>
      <component glyphName="macron" x="442" y="315" flags="0x4"/>
    </TTGlyph>
    <TTGlyph name="Oslash" xMin="61" yMin="-76" xMax="1532" yMax="1505">
      <contour>
        <pt x="1370" y="1470" on="1"/>
        <pt x="1350" y="1438" on="0"/>
        <pt x="1308" y="1373" on="0"/>
        <pt x="1288" y="1339" on="1"/>
        <pt x="1343" y="1293" on="0"/>
        <pt x="1432" y="1172" on="0"/>
        <pt x="1495" y="1019" on="0"/>
        <pt x="1530" y="834" on="0"/>
        <pt x="1532" y="723" on="1"/>
        <pt x="1532" y="559" on="0"/>
        <pt x="1422" y="277" on="0"/>
        <pt x="1220" y="70" on="0"/>
        <pt x="937" y="-49" on="0"/>
        <pt x="764" y="-49" on="1"/>
        <pt x="701" y="-49" on="0"/>
        <pt x="566" y="-24" on="0"/>
        <pt x="498" y="2" on="1"/>
        <pt x="487" y="-17" on="0"/>
        <pt x="468" y="-56" on="0"/>
        <pt x="457" y="-76" on="1"/>
        <pt x="223" y="-25" on="1"/>
        <pt x="311" y="117" on="1"/>
        <pt x="257" y="165" on="0"/>
        <pt x="166" y="291" on="0"/>
        <pt x="99" y="452" on="0"/>
        <pt x="61" y="650" on="0"/>
        <pt x="61" y="770" on="1"/>
        <pt x="61" y="922" on="0"/>
        <pt x="132" y="1150" on="0"/>
        <pt x="248" y="1313" on="0"/>
        <pt x="399" y="1419" on="0"/>
        <pt x="559" y="1481" on="0"/>
        <pt x="715" y="1505" on="0"/>
        <pt x="780" y="1505" on="1"/>
        <pt x="865" y="1505" on="0"/>
        <pt x="1028" y="1479" on="0"/>
        <pt x="1102" y="1450" on="1"/>
        <pt x="1122" y="1489" on="1"/>
      </contour>
      <contour>
        <pt x="487" y="991" on="1"/>
        <pt x="487" y="857" on="0"/>
        <pt x="500" y="579" on="0"/>
        <pt x="512" y="442" on="1"/>
        <pt x="642" y="651" on="0"/>
        <pt x="893" y="1072" on="0"/>
        <pt x="1008" y="1276" on="1"/>
        <pt x="976" y="1278" on="0"/>
        <pt x="906" y="1278" on="0"/>
        <pt x="885" y="1278" on="1"/>
        <pt x="840" y="1278" on="0"/>
        <pt x="739" y="1274" on="0"/>
        <pt x="635" y="1265" on="0"/>
        <pt x="534" y="1252" on="0"/>
        <pt x="489" y="1243" on="1"/>
        <pt x="489" y="1221" on="0"/>
        <pt x="488" y="1152" on="0"/>
        <pt x="488" y="1079" on="0"/>
        <pt x="487" y="1012" on="0"/>
      </contour>
      <contour>
        <pt x="1044" y="236" on="1"/>
        <pt x="1050" y="296" on="0"/>
        <pt x="1060" y="440" on="0"/>
        <pt x="1066" y="590" on="0"/>
        <pt x="1069" y="735" on="0"/>
        <pt x="1069" y="795" on="1"/>
        <pt x="1069" y="840" on="0"/>
        <pt x="1067" y="931" on="0"/>
        <pt x="1065" y="979" on="1"/>
        <pt x="952" y="795" on="0"/>
        <pt x="727" y="415" on="0"/>
        <pt x="621" y="225" on="1"/>
        <pt x="663" y="222" on="0"/>
        <pt x="748" y="221" on="0"/>
        <pt x="780" y="221" on="1"/>
        <pt x="808" y="221" on="0"/>
        <pt x="876" y="223" on="0"/>
        <pt x="946" y="226" on="0"/>
        <pt x="1015" y="232" on="0"/>
      </contour>
    </TTGlyph>
    <TTGlyph name="Oslashacute" xMin="61" yMin="-76" xMax="1532" yMax="1969">
      <component glyphName="Oslash" x="0" y="0" flags="0x204"/>
      <component glyphName="acute" x="733" y="410" flags="0x4"/>
    </TTGlyph>
    <TTGlyph name="Otilde" xMin="61" yMin="-49" xMax="1532" yMax="1888">
      <component glyphName="O" x="0" y="0" flags="0x204"/>
      <component glyphName="tilde" x="328" y="377" flags="0x4"/>
    </TTGlyph>
    <TTGlyph name="P" xMin="98" yMin="-45" xMax="1331" yMax="1507">
      <contour>
        <pt x="1331" y="956" on="1"/>
        <pt x="1331" y="803" on="0"/>
        <pt x="1216" y="579" on="0"/>
        <pt x="1008" y="428" on="0"/>
        <pt x="715" y="344" on="0"/>
        <pt x="537" y="332" on="1"/>
        <pt x="545" y="251" on="0"/>
        <pt x="560" y="82" on="0"/>
        <pt x="571" y="-12" on="1"/>
        <pt x="98" y="-45" on="1"/>
        <pt x="118" y="212" on="0"/>
        <pt x="141" y="721" on="0"/>
        <pt x="141" y="979" on="1"/>
        <pt x="141" y="1046" on="0"/>
        <pt x="140" y="1156" on="0"/>
        <pt x="137" y="1260" on="0"/>
        <pt x="131" y="1370" on="0"/>
        <pt x="127" y="1438" on="1"/>
        <pt x="248" y="1475" on="0"/>
        <pt x="499" y="1507" on="0"/>
        <pt x="633" y="1507" on="1"/>
        <pt x="700" y="1507" on="0"/>
        <pt x="856" y="1493" on="0"/>
        <pt x="1011" y="1451" on="0"/>
        <pt x="1154" y="1376" on="0"/>
        <pt x="1265" y="1254" on="0"/>
        <pt x="1331" y="1077" on="0"/>
      </contour>
      <contour>
        <pt x="500" y="1296" on="1"/>
        <pt x="500" y="1201" on="0"/>
        <pt x="501" y="1020" on="0"/>
        <pt x="505" y="841" on="0"/>
        <pt x="512" y="659" on="0"/>
        <pt x="518" y="563" on="1"/>
        <pt x="555" y="563" on="1"/>
        <pt x="643" y="563" on="0"/>
        <pt x="821" y="574" on="0"/>
        <pt x="901" y="588" on="1"/>
        <pt x="915" y="642" on="0"/>
        <pt x="928" y="806" on="0"/>
        <pt x="928" y="899" on="1"/>
        <pt x="928" y="957" on="0"/>
        <pt x="922" y="1075" on="0"/>
        <pt x="912" y="1183" on="0"/>
        <pt x="895" y="1276" on="0"/>
        <pt x="885" y="1309" on="1"/>
        <pt x="871" y="1311" on="0"/>
        <pt x="834" y="1313" on="0"/>
        <pt x="811" y="1313" on="1"/>
        <pt x="765" y="1313" on="0"/>
        <pt x="658" y="1307" on="0"/>
        <pt x="610" y="1304" on="1"/>
        <pt x="555" y="1300" on="0"/>
      </contour>
    </TTGlyph>
    <TTGlyph name="Q" xMin="61" yMin="-401" xMax="1532" yMax="1505">
      <contour>
        <pt x="1532" y="723" on="1"/>
        <pt x="1532" y="622" on="0"/>
        <pt x="1489" y="437" on="0"/>
        <pt x="1409" y="275" on="0"/>
        <pt x="1294" y="139" on="0"/>
        <pt x="1221" y="88" on="1"/>
        <pt x="1298" y="16" on="0"/>
        <pt x="1430" y="-137" on="0"/>
        <pt x="1489" y="-217" on="1"/>
        <pt x="1352" y="-246" on="0"/>
        <pt x="1112" y="-339" on="0"/>
        <pt x="1004" y="-401" on="1"/>
        <pt x="987" y="-305" on="0"/>
        <pt x="944" y="-125" on="0"/>
        <pt x="920" y="-35" on="1"/>
        <pt x="881" y="-41" on="0"/>
        <pt x="804" y="-49" on="0"/>
        <pt x="764" y="-49" on="1"/>
        <pt x="689" y="-49" on="0"/>
        <pt x="527" y="-14" on="0"/>
        <pt x="371" y="65" on="0"/>
        <pt x="230" y="191" on="0"/>
        <pt x="124" y="373" on="0"/>
        <pt x="61" y="615" on="0"/>
        <pt x="61" y="770" on="1"/>
        <pt x="61" y="922" on="0"/>
        <pt x="132" y="1150" on="0"/>
        <pt x="248" y="1313" on="0"/>
        <pt x="399" y="1419" on="0"/>
        <pt x="559" y="1481" on="0"/>
        <pt x="715" y="1505" on="0"/>
        <pt x="780" y="1505" on="1"/>
        <pt x="881" y="1505" on="0"/>
        <pt x="1070" y="1468" on="0"/>
        <pt x="1236" y="1389" on="0"/>
        <pt x="1374" y="1265" on="0"/>
        <pt x="1474" y="1091" on="0"/>
        <pt x="1531" y="865" on="0"/>
      </contour>
      <contour>
        <pt x="1044" y="236" on="1"/>
        <pt x="1050" y="296" on="0"/>
        <pt x="1060" y="440" on="0"/>
        <pt x="1066" y="590" on="0"/>
        <pt x="1069" y="735" on="0"/>
        <pt x="1069" y="795" on="1"/>
        <pt x="1069" y="910" on="0"/>
        <pt x="1057" y="1159" on="0"/>
        <pt x="1044" y="1274" on="1"/>
        <pt x="1029" y="1275" on="0"/>
        <pt x="987" y="1277" on="0"/>
        <pt x="942" y="1278" on="0"/>
        <pt x="900" y="1278" on="0"/>
        <pt x="885" y="1278" on="1"/>
        <pt x="840" y="1278" on="0"/>
        <pt x="739" y="1274" on="0"/>
        <pt x="635" y="1265" on="0"/>
        <pt x="534" y="1252" on="0"/>
        <pt x="489" y="1243" on="1"/>
        <pt x="489" y="1221" on="0"/>
        <pt x="488" y="1152" on="0"/>
        <pt x="488" y="1079" on="0"/>
        <pt x="487" y="1012" on="0"/>
        <pt x="487" y="991" on="1"/>
        <pt x="487" y="804" on="0"/>
        <pt x="512" y="418" on="0"/>
        <pt x="537" y="236" on="1"/>
        <pt x="562" y="232" on="0"/>
        <pt x="625" y="226" on="0"/>
        <pt x="691" y="223" on="0"/>
        <pt x="755" y="221" on="0"/>
        <pt x="780" y="221" on="1"/>
        <pt x="808" y="221" on="0"/>
        <pt x="876" y="223" on="0"/>
        <pt x="946" y="226" on="0"/>
        <pt x="1015" y="232" on="0"/>
      </contour>
    </TTGlyph>
    <TTGlyph name="R" xMin="98" yMin="-47" xMax="1411" yMax="1507">
      <contour>
        <pt x="1331" y="997" on="1"/>
        <pt x="1331" y="919" on="0"/>
        <pt x="1281" y="786" on="0"/>
        <pt x="1187" y="675" on="0"/>
        <pt x="1053" y="585" on="0"/>
        <pt x="969" y="551" on="1"/>
        <pt x="1411" y="4" on="1"/>
        <pt x="948" y="-47" on="1"/>
        <pt x="657" y="463" on="1"/>
        <pt x="626" y="457" on="0"/>
        <pt x="560" y="447" on="0"/>
        <pt x="526" y="442" on="1"/>
        <pt x="534" y="339" on="0"/>
        <pt x="557" y="115" on="0"/>
        <pt x="571" y="-12" on="1"/>
        <pt x="98" y="-45" on="1"/>
        <pt x="118" y="212" on="0"/>
        <pt x="141" y="721" on="0"/>
        <pt x="141" y="979" on="1"/>
        <pt x="141" y="1046" on="0"/>
        <pt x="140" y="1156" on="0"/>
        <pt x="137" y="1260" on="0"/>
        <pt x="131" y="1370" on="0"/>
        <pt x="127" y="1438" on="1"/>
        <pt x="248" y="1475" on="0"/>
        <pt x="499" y="1507" on="0"/>
        <pt x="633" y="1507" on="1"/>
        <pt x="700" y="1507" on="0"/>
        <pt x="856" y="1489" on="0"/>
        <pt x="1011" y="1445" on="0"/>
        <pt x="1154" y="1371" on="0"/>
        <pt x="1265" y="1257" on="0"/>
        <pt x="1331" y="1101" on="0"/>
      </contour>
      <contour>
        <pt x="500" y="1296" on="1"/>
        <pt x="500" y="1132" on="0"/>
        <pt x="505" y="827" on="0"/>
        <pt x="514" y="666" on="1"/>
        <pt x="555" y="666" on="1"/>
        <pt x="643" y="666" on="0"/>
        <pt x="821" y="676" on="0"/>
        <pt x="901" y="690" on="1"/>
        <pt x="915" y="744" on="0"/>
        <pt x="928" y="883" on="0"/>
        <pt x="928" y="958" on="1"/>
        <pt x="928" y="1006" on="0"/>
        <pt x="922" y="1103" on="0"/>
        <pt x="912" y="1194" on="0"/>
        <pt x="895" y="1276" on="0"/>
        <pt x="885" y="1309" on="1"/>
        <pt x="871" y="1311" on="0"/>
        <pt x="834" y="1313" on="0"/>
        <pt x="811" y="1313" on="1"/>
        <pt x="765" y="1313" on="0"/>
        <pt x="658" y="1307" on="0"/>
        <pt x="610" y="1304" on="1"/>
        <pt x="555" y="1300" on="0"/>
      </contour>
    </TTGlyph>
    <TTGlyph name="Racute" xMin="98" yMin="-47" xMax="1411" yMax="1969">
      <component glyphName="R" x="0" y="0" flags="0x204"/>
      <component glyphName="acute" x="610" y="410" flags="0x4"/>
    </TTGlyph>
    <TTGlyph name="Rcaron" xMin="98" yMin="-47" xMax="1411" yMax="1917">
      <component glyphName="R" x="0" y="0" flags="0x204"/>
      <component glyphName="caron" x="334" y="410" flags="0x4"/>
    </TTGlyph>
    <TTGlyph name="Rcommaaccent" xMin="98" yMin="-461" xMax="1411" yMax="1507">
      <component glyphName="R" x="0" y="0" flags="0x204"/>
      <component glyphName="uni0326" x="487" y="0" flags="0x4"/>
    </TTGlyph>
    <TTGlyph name="S" xMin="39" yMin="-51" xMax="1384" yMax="1507">
      <contour>
        <pt x="1384" y="418" on="1"/>
        <pt x="1384" y="288" on="0"/>
        <pt x="1281" y="109" on="0"/>
        <pt x="1098" y="-2" on="0"/>
        <pt x="846" y="-51" on="0"/>
        <pt x="698" y="-51" on="1"/>
        <pt x="631" y="-51" on="0"/>
        <pt x="487" y="-26" on="0"/>
        <pt x="347" y="29" on="0"/>
        <pt x="219" y="113" on="0"/>
        <pt x="118" y="232" on="0"/>
        <pt x="49" y="386" on="0"/>
        <pt x="39" y="483" on="1"/>
        <pt x="475" y="492" on="1"/>
        <pt x="473" y="464" on="0"/>
        <pt x="473" y="406" on="0"/>
        <pt x="473" y="375" on="1"/>
        <pt x="473" y="288" on="0"/>
        <pt x="479" y="197" on="1"/>
        <pt x="538" y="190" on="0"/>
        <pt x="656" y="184" on="0"/>
        <pt x="715" y="184" on="1"/>
        <pt x="774" y="184" on="0"/>
        <pt x="890" y="190" on="0"/>
        <pt x="950" y="197" on="1"/>
        <pt x="955" y="231" on="0"/>
        <pt x="961" y="296" on="0"/>
        <pt x="961" y="330" on="1"/>
        <pt x="961" y="385" on="0"/>
        <pt x="947" y="497" on="0"/>
        <pt x="936" y="553" on="1"/>
        <pt x="866" y="561" on="0"/>
        <pt x="684" y="581" on="0"/>
        <pt x="493" y="620" on="0"/>
        <pt x="310" y="685" on="0"/>
        <pt x="166" y="792" on="0"/>
        <pt x="78" y="948" on="0"/>
        <pt x="78" y="1059" on="1"/>
        <pt x="78" y="1136" on="0"/>
        <pt x="135" y="1262" on="0"/>
        <pt x="232" y="1361" on="0"/>
        <pt x="361" y="1435" on="0"/>
        <pt x="504" y="1483" on="0"/>
        <pt x="652" y="1507" on="0"/>
        <pt x="721" y="1507" on="1"/>
        <pt x="872" y="1507" on="0"/>
        <pt x="1102" y="1413" on="0"/>
        <pt x="1259" y="1262" on="0"/>
        <pt x="1345" y="1072" on="0"/>
        <pt x="1352" y="977" on="1"/>
        <pt x="895" y="928" on="1"/>
        <pt x="900" y="966" on="0"/>
        <pt x="903" y="1043" on="0"/>
        <pt x="903" y="1081" on="1"/>
        <pt x="903" y="1168" on="0"/>
        <pt x="891" y="1257" on="1"/>
        <pt x="857" y="1262" on="0"/>
        <pt x="790" y="1266" on="0"/>
        <pt x="756" y="1266" on="1"/>
        <pt x="621" y="1266" on="0"/>
        <pt x="483" y="1233" on="1"/>
        <pt x="481" y="1208" on="0"/>
        <pt x="481" y="1160" on="0"/>
        <pt x="481" y="1137" on="1"/>
        <pt x="481" y="1067" on="0"/>
        <pt x="492" y="932" on="0"/>
        <pt x="508" y="864" on="1"/>
        <pt x="591" y="853" on="0"/>
        <pt x="785" y="828" on="0"/>
        <pt x="980" y="787" on="0"/>
        <pt x="1161" y="726" on="0"/>
        <pt x="1300" y="635" on="0"/>
        <pt x="1384" y="506" on="0"/>
      </contour>
    </TTGlyph>
    <TTGlyph name="Sacute" xMin="39" yMin="-51" xMax="1384" yMax="1969">
      <component glyphName="S" x="0" y="0" flags="0x204"/>
      <component glyphName="acute" x="633" y="410" flags="0x4"/>
    </TTGlyph>
    <TTGlyph name="Scaron" xMin="39" yMin="-51" xMax="1384" yMax="1939">
      <component glyphName="S" x="0" y="0" flags="0x204"/>
      <component glyphName="caron" x="358" y="432" flags="0x4"/>
    </TTGlyph>
    <TTGlyph name="Scedilla" xMin="39" yMin="-484" xMax="1384" yMax="1507">
      <contour>
        <pt x="965" y="-287" on="1"/>
        <pt x="965" y="-341" on="0"/>
        <pt x="912" y="-415" on="0"/>
        <pt x="836" y="-462" on="0"/>
        <pt x="753" y="-483" on="0"/>
        <pt x="723" y="-483" on="1"/>
        <pt x="698" y="-484" on="0"/>
        <pt x="661" y="-481" on="1"/>
        <pt x="629" y="-479" on="0"/>
        <pt x="533" y="-471" on="0"/>
        <pt x="465" y="-463" on="1"/>
        <pt x="465" y="-344" on="1"/>
        <pt x="529" y="-350" on="0"/>
        <pt x="592" y="-350" on="1"/>
        <pt x="623" y="-350" on="0"/>
        <pt x="683" y="-347" on="0"/>
        <pt x="715" y="-344" on="1"/>
        <pt x="720" y="-329" on="0"/>
        <pt x="723" y="-296" on="0"/>
        <pt x="723" y="-281" on="1"/>
        <pt x="723" y="-265" on="0"/>
        <pt x="720" y="-235" on="0"/>
        <pt x="715" y="-219" on="1"/>
        <pt x="692" y="-216" on="0"/>
        <pt x="643" y="-211" on="0"/>
        <pt x="618" y="-211" on="1"/>
        <pt x="595" y="-211" on="0"/>
        <pt x="544" y="-216" on="0"/>
        <pt x="518" y="-219" on="1"/>
        <pt x="522" y="-208" on="0"/>
        <pt x="540" y="-172" on="0"/>
        <pt x="565" y="-126" on="0"/>
        <pt x="596" y="-74" on="0"/>
        <pt x="612" y="-47" on="1"/>
        <pt x="549" y="-40" on="0"/>
        <pt x="420" y="-4" on="0"/>
        <pt x="299" y="56" on="0"/>
        <pt x="191" y="141" on="0"/>
        <pt x="105" y="254" on="0"/>
        <pt x="48" y="396" on="0"/>
        <pt x="39" y="483" on="1"/>
        <pt x="475" y="492" on="1"/>
        <pt x="473" y="464" on="0"/>
        <pt x="473" y="406" on="0"/>
        <pt x="473" y="375" on="1"/>
        <pt x="473" y="288" on="0"/>
        <pt x="479" y="197" on="1"/>
        <pt x="538" y="190" on="0"/>
        <pt x="656" y="184" on="0"/>
        <pt x="715" y="184" on="1"/>
        <pt x="774" y="184" on="0"/>
        <pt x="890" y="190" on="0"/>
        <pt x="950" y="197" on="1"/>
        <pt x="955" y="231" on="0"/>
        <pt x="961" y="296" on="0"/>
        <pt x="961" y="330" on="1"/>
        <pt x="961" y="385" on="0"/>
        <pt x="947" y="497" on="0"/>
        <pt x="936" y="553" on="1"/>
        <pt x="866" y="561" on="0"/>
        <pt x="684" y="581" on="0"/>
        <pt x="493" y="620" on="0"/>
        <pt x="310" y="685" on="0"/>
        <pt x="166" y="792" on="0"/>
        <pt x="78" y="948" on="0"/>
        <pt x="78" y="1059" on="1"/>
        <pt x="78" y="1136" on="0"/>
        <pt x="135" y="1262" on="0"/>
        <pt x="232" y="1361" on="0"/>
        <pt x="361" y="1435" on="0"/>
        <pt x="504" y="1483" on="0"/>
        <pt x="652" y="1507" on="0"/>
        <pt x="721" y="1507" on="1"/>
        <pt x="872" y="1507" on="0"/>
        <pt x="1102" y="1413" on="0"/>
        <pt x="1259" y="1262" on="0"/>
        <pt x="1345" y="1072" on="0"/>
        <pt x="1352" y="977" on="1"/>
        <pt x="895" y="928" on="1"/>
        <pt x="900" y="966" on="0"/>
        <pt x="903" y="1043" on="0"/>
        <pt x="903" y="1081" on="1"/>
        <pt x="903" y="1168" on="0"/>
        <pt x="891" y="1257" on="1"/>
        <pt x="857" y="1262" on="0"/>
        <pt x="790" y="1266" on="0"/>
        <pt x="756" y="1266" on="1"/>
        <pt x="621" y="1266" on="0"/>
        <pt x="483" y="1233" on="1"/>
        <pt x="481" y="1208" on="0"/>
        <pt x="481" y="1160" on="0"/>
        <pt x="481" y="1137" on="1"/>
        <pt x="481" y="1067" on="0"/>
        <pt x="492" y="932" on="0"/>
        <pt x="508" y="864" on="1"/>
        <pt x="591" y="853" on="0"/>
        <pt x="785" y="828" on="0"/>
        <pt x="980" y="787" on="0"/>
        <pt x="1161" y="726" on="0"/>
        <pt x="1300" y="635" on="0"/>
        <pt x="1384" y="506" on="0"/>
        <pt x="1384" y="418" on="1"/>
        <pt x="1384" y="295" on="0"/>
        <pt x="1291" y="122" on="0"/>
        <pt x="1126" y="10" on="0"/>
        <pt x="899" y="-45" on="0"/>
        <pt x="764" y="-49" on="1"/>
        <pt x="729" y="-133" on="1"/>
        <pt x="773" y="-135" on="0"/>
        <pt x="840" y="-150" on="0"/>
        <pt x="890" y="-173" on="0"/>
        <pt x="924" y="-200" on="0"/>
        <pt x="935" y="-214" on="1"/>
        <pt x="961" y="-247" on="0"/>
      </contour>
    </TTGlyph>
    <TTGlyph name="Scircumflex" xMin="39" yMin="-51" xMax="1384" yMax="1917">
      <component glyphName="S" x="0" y="0" flags="0x204"/>
      <component glyphName="circumflex" x="340" y="410" flags="0x4"/>
    </TTGlyph>
    <TTGlyph name="T" xMin="18" yMin="-14" xMax="1243" yMax="1497">
      <contour>
        <pt x="1243" y="1219" on="1"/>
        <pt x="1169" y="1219" on="0"/>
        <pt x="1018" y="1221" on="0"/>
        <pt x="940" y="1221" on="1"/>
        <pt x="852" y="1221" on="1"/>
        <pt x="852" y="913" on="0"/>
        <pt x="860" y="295" on="0"/>
        <pt x="877" y="-14" on="1"/>
        <pt x="422" y="-14" on="1"/>
        <pt x="432" y="212" on="0"/>
        <pt x="442" y="434" on="1"/>
        <pt x="446" y="528" on="0"/>
        <pt x="454" y="734" on="0"/>
        <pt x="462" y="938" on="0"/>
        <pt x="467" y="1131" on="0"/>
        <pt x="469" y="1214" on="1"/>
        <pt x="354" y="1211" on="0"/>
        <pt x="131" y="1203" on="0"/>
        <pt x="18" y="1198" on="1"/>
        <pt x="18" y="1497" on="1"/>
        <pt x="176" y="1491" on="0"/>
        <pt x="487" y="1487" on="0"/>
        <pt x="645" y="1487" on="1"/>
        <pt x="797" y="1487" on="0"/>
        <pt x="1095" y="1491" on="0"/>
        <pt x="1243" y="1497" on="1"/>
      </contour>
    </TTGlyph>
    <TTGlyph name="Tbar" xMin="18" yMin="-14" xMax="1243" yMax="1497">
      <contour>
        <pt x="1040" y="571" on="1"/>
        <pt x="856" y="571" on="1"/>
        <pt x="858" y="423" on="0"/>
        <pt x="869" y="132" on="0"/>
        <pt x="877" y="-14" on="1"/>
        <pt x="422" y="-14" on="1"/>
        <pt x="427" y="66" on="0"/>
        <pt x="431" y="160" on="1"/>
        <pt x="435" y="241" on="0"/>
        <pt x="444" y="451" on="0"/>
        <pt x="449" y="569" on="1"/>
        <pt x="221" y="569" on="1"/>
        <pt x="221" y="860" on="1"/>
        <pt x="459" y="860" on="1"/>
        <pt x="469" y="1214" on="1"/>
        <pt x="354" y="1211" on="0"/>
        <pt x="131" y="1203" on="0"/>
        <pt x="18" y="1198" on="1"/>
        <pt x="18" y="1497" on="1"/>
        <pt x="176" y="1491" on="0"/>
        <pt x="487" y="1487" on="0"/>
        <pt x="645" y="1487" on="1"/>
        <pt x="797" y="1487" on="0"/>
        <pt x="1095" y="1491" on="0"/>
        <pt x="1243" y="1497" on="1"/>
        <pt x="1243" y="1219" on="1"/>
        <pt x="1169" y="1219" on="0"/>
        <pt x="1018" y="1221" on="0"/>
        <pt x="940" y="1221" on="1"/>
        <pt x="852" y="1221" on="1"/>
        <pt x="852" y="862" on="1"/>
        <pt x="1040" y="862" on="1"/>
      </contour>
    </TTGlyph>
    <TTGlyph name="Tcaron" xMin="18" yMin="-14" xMax="1243" yMax="1917">
      <component glyphName="T" x="0" y="0" flags="0x204"/>
      <component glyphName="caron" x="295" y="410" flags="0x4"/>
    </TTGlyph>
    <TTGlyph name="Tcommaaccent" xMin="18" yMin="-461" xMax="1243" yMax="1497">
      <component glyphName="T" x="0" y="0" flags="0x204"/>
      <component glyphName="uni0326" x="410" y="0" flags="0x4"/>
    </TTGlyph>
    <TTGlyph name="Thorn" xMin="104" yMin="-45" xMax="1337" yMax="1524">
      <contour>
        <pt x="1337" y="793" on="1"/>
        <pt x="1337" y="641" on="0"/>
        <pt x="1225" y="417" on="0"/>
        <pt x="1020" y="266" on="0"/>
        <pt x="732" y="181" on="0"/>
        <pt x="557" y="168" on="1"/>
        <pt x="578" y="-12" on="1"/>
        <pt x="104" y="-45" on="1"/>
        <pt x="111" y="40" on="0"/>
        <pt x="122" y="186" on="0"/>
        <pt x="132" y="320" on="0"/>
        <pt x="139" y="448" on="0"/>
        <pt x="144" y="583" on="0"/>
        <pt x="147" y="730" on="0"/>
        <pt x="147" y="815" on="1"/>
        <pt x="147" y="988" on="0"/>
        <pt x="122" y="1326" on="0"/>
        <pt x="111" y="1499" on="1"/>
        <pt x="520" y="1524" on="1"/>
        <pt x="510" y="1339" on="1"/>
        <pt x="542" y="1341" on="0"/>
        <pt x="607" y="1343" on="0"/>
        <pt x="639" y="1343" on="1"/>
        <pt x="706" y="1343" on="0"/>
        <pt x="862" y="1329" on="0"/>
        <pt x="1017" y="1287" on="0"/>
        <pt x="1160" y="1212" on="0"/>
        <pt x="1271" y="1090" on="0"/>
        <pt x="1337" y="914" on="0"/>
      </contour>
      <contour>
        <pt x="506" y="1133" on="1"/>
        <pt x="506" y="1022" on="0"/>
        <pt x="508" y="840" on="0"/>
        <pt x="514" y="671" on="0"/>
        <pt x="526" y="499" on="0"/>
        <pt x="535" y="399" on="1"/>
        <pt x="561" y="399" on="1"/>
        <pt x="649" y="399" on="0"/>
        <pt x="827" y="410" on="0"/>
        <pt x="907" y="424" on="1"/>
        <pt x="921" y="478" on="0"/>
        <pt x="934" y="642" on="0"/>
        <pt x="934" y="735" on="1"/>
        <pt x="934" y="793" on="0"/>
        <pt x="929" y="911" on="0"/>
        <pt x="918" y="1019" on="0"/>
        <pt x="902" y="1112" on="0"/>
        <pt x="891" y="1145" on="1"/>
        <pt x="877" y="1147" on="0"/>
        <pt x="840" y="1149" on="0"/>
        <pt x="817" y="1149" on="1"/>
        <pt x="771" y="1149" on="0"/>
        <pt x="664" y="1144" on="0"/>
        <pt x="616" y="1141" on="1"/>
        <pt x="561" y="1137" on="0"/>
      </contour>
    </TTGlyph>
    <TTGlyph name="U" xMin="96" yMin="-49" xMax="1460" yMax="1458">
      <contour>
        <pt x="1460" y="748" on="1"/>
        <pt x="1459" y="641" on="0"/>
        <pt x="1429" y="441" on="0"/>
        <pt x="1363" y="263" on="0"/>
        <pt x="1257" y="116" on="0"/>
        <pt x="1105" y="10" on="0"/>
        <pt x="903" y="-49" on="0"/>
        <pt x="774" y="-49" on="1"/>
        <pt x="622" y="-49" on="0"/>
        <pt x="372" y="38" on="0"/>
        <pt x="194" y="231" on="0"/>
        <pt x="96" y="541" on="0"/>
        <pt x="96" y="764" on="1"/>
        <pt x="96" y="881" on="0"/>
        <pt x="108" y="1094" on="0"/>
        <pt x="130" y="1272" on="0"/>
        <pt x="159" y="1413" on="0"/>
        <pt x="176" y="1458" on="1"/>
        <pt x="569" y="1458" on="1"/>
        <pt x="565" y="1434" on="0"/>
        <pt x="550" y="1314" on="0"/>
        <pt x="535" y="1152" on="0"/>
        <pt x="524" y="963" on="0"/>
        <pt x="524" y="872" on="1"/>
        <pt x="524" y="787" on="0"/>
        <pt x="529" y="607" on="0"/>
        <pt x="540" y="436" on="0"/>
        <pt x="557" y="283" on="0"/>
        <pt x="569" y="225" on="1"/>
        <pt x="613" y="219" on="0"/>
        <pt x="721" y="213" on="0"/>
        <pt x="778" y="213" on="1"/>
        <pt x="835" y="213" on="0"/>
        <pt x="947" y="219" on="0"/>
        <pt x="995" y="225" on="1"/>
        <pt x="1003" y="283" on="0"/>
        <pt x="1013" y="435" on="0"/>
        <pt x="1019" y="605" on="0"/>
        <pt x="1022" y="784" on="0"/>
        <pt x="1022" y="868" on="1"/>
        <pt x="1022" y="960" on="0"/>
        <pt x="1018" y="1123" on="0"/>
        <pt x="1010" y="1269" on="0"/>
        <pt x="1001" y="1399" on="0"/>
        <pt x="995" y="1458" on="1"/>
        <pt x="1378" y="1458" on="1"/>
        <pt x="1405" y="1323" on="0"/>
        <pt x="1437" y="1110" on="0"/>
        <pt x="1455" y="939" on="0"/>
        <pt x="1460" y="805" on="0"/>
      </contour>
    </TTGlyph>
    <TTGlyph name="Uacute" xMin="96" yMin="-49" xMax="1460" yMax="1903">
      <component glyphName="U" x="0" y="0" flags="0x204"/>
      <component glyphName="acute" x="696" y="344" flags="0x4"/>
    </TTGlyph>
    <TTGlyph name="Ubreve" xMin="96" yMin="-49" xMax="1460" yMax="1849">
      <component glyphName="U" x="0" y="0" flags="0x204"/>
      <component glyphName="breve" x="397" y="356" flags="0x4"/>
    </TTGlyph>
    <TTGlyph name="Ucircumflex" xMin="96" yMin="-49" xMax="1460" yMax="1861">
      <component glyphName="U" x="0" y="0" flags="0x204"/>
      <component glyphName="circumflex" x="383" y="354" flags="0x4"/>
    </TTGlyph>
    <TTGlyph name="Udieresis" xMin="96" yMin="-49" xMax="1460" yMax="1741">
      <component glyphName="U" x="0" y="0" flags="0x204"/>
      <component glyphName="dieresis" x="426" y="287" flags="0x4"/>
    </TTGlyph>
    <TTGlyph name="Ugrave" xMin="96" yMin="-49" xMax="1460" yMax="1901">
      <component glyphName="U" x="0" y="0" flags="0x204"/>
      <component glyphName="grave" x="365" y="342" flags="0x4"/>
    </TTGlyph>
    <TTGlyph name="Uhungarumlaut" xMin="96" yMin="-49" xMax="1460" yMax="1944">
      <component glyphName="U" x="0" y="0" flags="0x204"/>
      <component glyphName="hungarumlaut" x="549" y="385" flags="0x4"/>
    </TTGlyph>
    <TTGlyph name="Umacron" xMin="96" yMin="-49" xMax="1460" yMax="1747">
      <component glyphName="U" x="0" y="0" flags="0x204"/>
      <component glyphName="macron" x="424" y="289" flags="0x4"/>
    </TTGlyph>
    <TTGlyph name="Uogonek" xMin="96" yMin="-473" xMax="1460" yMax="1458">
      <contour>
        <pt x="1081" y="-412" on="1"/>
        <pt x="1027" y="-440" on="0"/>
        <pt x="908" y="-473" on="0"/>
        <pt x="842" y="-473" on="1"/>
        <pt x="785" y="-473" on="0"/>
        <pt x="682" y="-451" on="0"/>
        <pt x="605" y="-406" on="0"/>
        <pt x="559" y="-338" on="0"/>
        <pt x="559" y="-291" on="1"/>
        <pt x="559" y="-259" on="0"/>
        <pt x="579" y="-195" on="0"/>
        <pt x="613" y="-132" on="0"/>
        <pt x="660" y="-73" on="0"/>
        <pt x="686" y="-45" on="1"/>
        <pt x="552" y="-33" on="0"/>
        <pt x="335" y="67" on="0"/>
        <pt x="180" y="262" on="0"/>
        <pt x="96" y="557" on="0"/>
        <pt x="96" y="764" on="1"/>
        <pt x="96" y="881" on="0"/>
        <pt x="108" y="1094" on="0"/>
        <pt x="130" y="1272" on="0"/>
        <pt x="159" y="1413" on="0"/>
        <pt x="176" y="1458" on="1"/>
        <pt x="569" y="1458" on="1"/>
        <pt x="565" y="1434" on="0"/>
        <pt x="550" y="1314" on="0"/>
        <pt x="535" y="1152" on="0"/>
        <pt x="524" y="963" on="0"/>
        <pt x="524" y="872" on="1"/>
        <pt x="524" y="787" on="0"/>
        <pt x="529" y="607" on="0"/>
        <pt x="540" y="436" on="0"/>
        <pt x="557" y="283" on="0"/>
        <pt x="569" y="225" on="1"/>
        <pt x="613" y="219" on="0"/>
        <pt x="721" y="213" on="0"/>
        <pt x="778" y="213" on="1"/>
        <pt x="835" y="213" on="0"/>
        <pt x="947" y="219" on="0"/>
        <pt x="995" y="225" on="1"/>
        <pt x="1003" y="283" on="0"/>
        <pt x="1013" y="435" on="0"/>
        <pt x="1019" y="605" on="0"/>
        <pt x="1022" y="784" on="0"/>
        <pt x="1022" y="868" on="1"/>
        <pt x="1022" y="960" on="0"/>
        <pt x="1018" y="1123" on="0"/>
        <pt x="1010" y="1269" on="0"/>
        <pt x="1001" y="1399" on="0"/>
        <pt x="995" y="1458" on="1"/>
        <pt x="1378" y="1458" on="1"/>
        <pt x="1405" y="1323" on="0"/>
        <pt x="1437" y="1110" on="0"/>
        <pt x="1455" y="939" on="0"/>
        <pt x="1460" y="805" on="0"/>
        <pt x="1460" y="748" on="1"/>
        <pt x="1459" y="647" on="0"/>
        <pt x="1433" y="458" on="0"/>
        <pt x="1374" y="288" on="0"/>
        <pt x="1282" y="144" on="0"/>
        <pt x="1149" y="35" on="0"/>
        <pt x="974" y="-35" on="0"/>
        <pt x="862" y="-45" on="1"/>
        <pt x="827" y="-105" on="0"/>
        <pt x="781" y="-233" on="0"/>
        <pt x="772" y="-299" on="1"/>
        <pt x="851" y="-294" on="0"/>
        <pt x="1004" y="-275" on="0"/>
        <pt x="1081" y="-258" on="1"/>
      </contour>
    </TTGlyph>
    <TTGlyph name="Uring" xMin="96" yMin="-49" xMax="1460" yMax="1960">
      <component glyphName="U" x="0" y="0" flags="0x204"/>
      <component glyphName="ring" x="492" y="410" flags="0x4"/>
    </TTGlyph>
    <TTGlyph name="Utilde" xMin="96" yMin="-49" xMax="1460" yMax="1878">
      <component glyphName="U" x="0" y="0" flags="0x204"/>
      <component glyphName="tilde" x="338" y="367" flags="0x4"/>
    </TTGlyph>
    <TTGlyph name="V" xMin="27" yMin="-49" xMax="1430" yMax="1520">
      <contour>
        <pt x="1430" y="1520" on="1"/>
        <pt x="1309" y="1134" on="0"/>
        <pt x="1112" y="352" on="0"/>
        <pt x="1034" y="-33" on="1"/>
        <pt x="940" y="-37" on="0"/>
        <pt x="836" y="-41" on="1"/>
        <pt x="747" y="-44" on="0"/>
        <pt x="525" y="-49" on="0"/>
        <pt x="410" y="-49" on="1"/>
        <pt x="27" y="1466" on="1"/>
        <pt x="506" y="1497" on="1"/>
        <pt x="561" y="1253" on="0"/>
        <pt x="613" y="1018" on="1"/>
        <pt x="635" y="918" on="0"/>
        <pt x="681" y="701" on="0"/>
        <pt x="725" y="488" on="0"/>
        <pt x="765" y="289" on="0"/>
        <pt x="780" y="205" on="1"/>
        <pt x="810" y="319" on="0"/>
        <pt x="874" y="575" on="0"/>
        <pt x="935" y="834" on="0"/>
        <pt x="992" y="1083" on="0"/>
        <pt x="1040" y="1299" on="0"/>
        <pt x="1075" y="1470" on="0"/>
        <pt x="1085" y="1520" on="1"/>
      </contour>
    </TTGlyph>
    <TTGlyph name="W" xMin="39" yMin="-33" xMax="2124" yMax="1487">
      <contour>
        <pt x="2124" y="1487" on="1"/>
        <pt x="1812" y="0" on="1"/>
        <pt x="1190" y="-33" on="1"/>
        <pt x="1179" y="62" on="0"/>
        <pt x="1152" y="272" on="0"/>
        <pt x="1123" y="483" on="0"/>
        <pt x="1093" y="686" on="0"/>
        <pt x="1066" y="864" on="0"/>
        <pt x="1042" y="1007" on="0"/>
        <pt x="1034" y="1053" on="1"/>
        <pt x="1026" y="997" on="0"/>
        <pt x="996" y="825" on="0"/>
        <pt x="960" y="622" on="0"/>
        <pt x="920" y="404" on="0"/>
        <pt x="883" y="199" on="0"/>
        <pt x="853" y="24" on="0"/>
        <pt x="844" y="-33" on="1"/>
        <pt x="332" y="-33" on="1"/>
        <pt x="39" y="1448" on="1"/>
        <pt x="512" y="1487" on="1"/>
        <pt x="558" y="1214" on="0"/>
        <pt x="598" y="984" on="1"/>
        <pt x="615" y="886" on="0"/>
        <pt x="648" y="689" on="0"/>
        <pt x="677" y="520" on="0"/>
        <pt x="699" y="392" on="0"/>
        <pt x="705" y="362" on="1"/>
        <pt x="721" y="423" on="0"/>
        <pt x="753" y="576" on="0"/>
        <pt x="786" y="744" on="0"/>
        <pt x="817" y="920" on="0"/>
        <pt x="846" y="1089" on="0"/>
        <pt x="870" y="1242" on="0"/>
        <pt x="889" y="1364" on="0"/>
        <pt x="901" y="1446" on="0"/>
        <pt x="903" y="1460" on="1"/>
        <pt x="1374" y="1487" on="1"/>
        <pt x="1410" y="1259" on="0"/>
        <pt x="1445" y="1047" on="1"/>
        <pt x="1460" y="956" on="0"/>
        <pt x="1491" y="764" on="0"/>
        <pt x="1523" y="580" on="0"/>
        <pt x="1553" y="414" on="0"/>
        <pt x="1565" y="350" on="1"/>
        <pt x="1574" y="414" on="0"/>
        <pt x="1599" y="581" on="0"/>
        <pt x="1628" y="765" on="0"/>
        <pt x="1660" y="957" on="0"/>
        <pt x="1675" y="1047" on="1"/>
        <pt x="1710" y="1259" on="0"/>
        <pt x="1749" y="1487" on="1"/>
      </contour>
    </TTGlyph>
    <TTGlyph name="Wacute" xMin="39" yMin="-33" xMax="2124" yMax="1958">
      <component glyphName="W" x="0" y="0" flags="0x204"/>
      <component glyphName="acute" x="1053" y="399" flags="0x4"/>
    </TTGlyph>
    <TTGlyph name="Wcircumflex" xMin="39" yMin="-33" xMax="2124" yMax="1917">
      <component glyphName="W" x="0" y="0" flags="0x204"/>
      <component glyphName="circumflex" x="737" y="410" flags="0x4"/>
    </TTGlyph>
    <TTGlyph name="Wdieresis" xMin="39" yMin="-33" xMax="2124" yMax="1776">
      <component glyphName="W" x="0" y="0" flags="0x204"/>
      <component glyphName="dieresis" x="793" y="322" flags="0x4"/>
    </TTGlyph>
    <TTGlyph name="Wgrave" xMin="39" yMin="-33" xMax="2124" yMax="1969">
      <component glyphName="W" x="0" y="0" flags="0x204"/>
      <component glyphName="grave" x="719" y="410" flags="0x4"/>
    </TTGlyph>
    <TTGlyph name="X" xMin="-12" yMin="-49" xMax="1522" yMax="1481">
      <contour>
        <pt x="946" y="-49" on="1"/>
        <pt x="929" y="-21" on="0"/>
        <pt x="876" y="61" on="0"/>
        <pt x="809" y="164" on="0"/>
        <pt x="729" y="285" on="0"/>
        <pt x="684" y="352" on="1"/>
        <pt x="606" y="252" on="0"/>
        <pt x="448" y="60" on="0"/>
        <pt x="373" y="-31" on="1"/>
        <pt x="-12" y="-18" on="1"/>
        <pt x="116" y="137" on="0"/>
        <pt x="381" y="452" on="0"/>
        <pt x="512" y="614" on="1"/>
        <pt x="437" y="729" on="0"/>
        <pt x="287" y="964" on="0"/>
        <pt x="149" y="1189" on="0"/>
        <pt x="31" y="1395" on="0"/>
        <pt x="-12" y="1481" on="1"/>
        <pt x="563" y="1481" on="1"/>
        <pt x="578" y="1449" on="0"/>
        <pt x="630" y="1354" on="0"/>
        <pt x="699" y="1235" on="0"/>
        <pt x="782" y="1095" on="0"/>
        <pt x="829" y="1018" on="1"/>
        <pt x="917" y="1133" on="0"/>
        <pt x="1079" y="1363" on="0"/>
        <pt x="1151" y="1481" on="1"/>
        <pt x="1518" y="1481" on="1"/>
        <pt x="1418" y="1335" on="0"/>
        <pt x="1148" y="961" on="0"/>
        <pt x="993" y="756" on="1"/>
        <pt x="1057" y="657" on="0"/>
        <pt x="1191" y="454" on="0"/>
        <pt x="1327" y="257" on="0"/>
        <pt x="1460" y="71" on="0"/>
        <pt x="1522" y="-10" on="1"/>
      </contour>
    </TTGlyph>
    <TTGlyph name="Y" xMin="-18" yMin="-43" xMax="1634" yMax="1479">
      <contour>
        <pt x="1634" y="1479" on="1"/>
        <pt x="1520" y="1218" on="0"/>
        <pt x="1318" y="848" on="0"/>
        <pt x="1242" y="730" on="1"/>
        <pt x="1153" y="592" on="0"/>
        <pt x="1077" y="502" on="1"/>
        <pt x="1075" y="480" on="0"/>
        <pt x="1073" y="423" on="0"/>
        <pt x="1073" y="389" on="1"/>
        <pt x="1073" y="334" on="0"/>
        <pt x="1077" y="208" on="0"/>
        <pt x="1084" y="90" on="0"/>
        <pt x="1093" y="-7" on="0"/>
        <pt x="1098" y="-33" on="1"/>
        <pt x="541" y="-43" on="1"/>
        <pt x="545" y="-26" on="0"/>
        <pt x="556" y="51" on="0"/>
        <pt x="567" y="148" on="0"/>
        <pt x="576" y="256" on="0"/>
        <pt x="584" y="351" on="0"/>
        <pt x="589" y="423" on="0"/>
        <pt x="590" y="436" on="1"/>
        <pt x="547" y="503" on="0"/>
        <pt x="449" y="662" on="0"/>
        <pt x="343" y="837" on="0"/>
        <pt x="233" y="1022" on="0"/>
        <pt x="127" y="1209" on="0"/>
        <pt x="26" y="1393" on="0"/>
        <pt x="-18" y="1479" on="1"/>
        <pt x="549" y="1454" on="1"/>
        <pt x="570" y="1386" on="0"/>
        <pt x="636" y="1210" on="0"/>
        <pt x="720" y="1011" on="0"/>
        <pt x="820" y="801" on="0"/>
        <pt x="874" y="700" on="1"/>
        <pt x="946" y="832" on="0"/>
        <pt x="1012" y="968" on="1"/>
        <pt x="1040" y="1026" on="0"/>
        <pt x="1100" y="1154" on="0"/>
        <pt x="1156" y="1287" on="0"/>
        <pt x="1206" y="1418" on="0"/>
        <pt x="1225" y="1479" on="1"/>
      </contour>
    </TTGlyph>
    <TTGlyph name="Yacute" xMin="-18" yMin="-43" xMax="1634" yMax="1842">
      <component glyphName="Y" x="0" y="0" flags="0x204"/>
      <component glyphName="acute" x="797" y="283" flags="0x4"/>
    </TTGlyph>
    <TTGlyph name="Ycircumflex" xMin="-18" yMin="-43" xMax="1634" yMax="1894">
      <component glyphName="Y" x="0" y="0" flags="0x204"/>
      <component glyphName="circumflex" x="477" y="387" flags="0x4"/>
    </TTGlyph>
    <TTGlyph name="Ydieresis" xMin="-18" yMin="-43" xMax="1634" yMax="1735">
      <component glyphName="Y" x="0" y="0" flags="0x204"/>
      <component glyphName="dieresis" x="512" y="281" flags="0x4"/>
    </TTGlyph>
    <TTGlyph name="Ygrave" xMin="-18" yMin="-43" xMax="1634" yMax="1848">
      <component glyphName="Y" x="0" y="0" flags="0x204"/>
      <component glyphName="grave" x="481" y="289" flags="0x4"/>
    </TTGlyph>
    <TTGlyph name="Z" xMin="-12" yMin="-41" xMax="1348" yMax="1479">
      <contour>
        <pt x="1348" y="1479" on="1"/>
        <pt x="1275" y="1318" on="0"/>
        <pt x="1117" y="1016" on="0"/>
        <pt x="943" y="720" on="0"/>
        <pt x="749" y="424" on="0"/>
        <pt x="641" y="268" on="1"/>
        <pt x="800" y="268" on="0"/>
        <pt x="1116" y="281" on="0"/>
        <pt x="1286" y="295" on="1"/>
        <pt x="1278" y="-20" on="1"/>
        <pt x="1077" y="-33" on="0"/>
        <pt x="676" y="-41" on="0"/>
        <pt x="471" y="-41" on="1"/>
        <pt x="350" y="-41" on="0"/>
        <pt x="110" y="-39" on="0"/>
        <pt x="-12" y="-37" on="1"/>
        <pt x="57" y="71" on="0"/>
        <pt x="211" y="302" on="0"/>
        <pt x="366" y="534" on="0"/>
        <pt x="514" y="760" on="0"/>
        <pt x="643" y="967" on="0"/>
        <pt x="745" y="1150" on="0"/>
        <pt x="776" y="1223" on="1"/>
        <pt x="730" y="1226" on="0"/>
        <pt x="630" y="1227" on="0"/>
        <pt x="578" y="1227" on="1"/>
        <pt x="515" y="1227" on="0"/>
        <pt x="384" y="1224" on="0"/>
        <pt x="254" y="1220" on="0"/>
        <pt x="127" y="1213" on="0"/>
        <pt x="68" y="1210" on="1"/>
        <pt x="68" y="1479" on="1"/>
        <pt x="229" y="1472" on="0"/>
        <pt x="550" y="1464" on="0"/>
        <pt x="715" y="1464" on="1"/>
        <pt x="871" y="1464" on="0"/>
        <pt x="1183" y="1472" on="0"/>
      </contour>
    </TTGlyph>
    <TTGlyph name="Zacute" xMin="-12" yMin="-41" xMax="1348" yMax="1944">
      <component glyphName="Z" x="0" y="0" flags="0x204"/>
      <component glyphName="acute" x="612" y="385" flags="0x4"/>
    </TTGlyph>
    <TTGlyph name="Zcaron" xMin="-12" yMin="-41" xMax="1348" yMax="1890">
      <component glyphName="Z" x="0" y="0" flags="0x204"/>
      <component glyphName="caron" x="313" y="383" flags="0x4"/>
    </TTGlyph>
    <TTGlyph name="Zdotaccent" xMin="-12" yMin="-41" xMax="1348" yMax="1751">
      <component glyphName="Z" x="0" y="0" flags="0x204"/>
      <component glyphName="dotaccent" x="535" y="297" flags="0x4"/>
    </TTGlyph>
    <TTGlyph name="a" xMin="55" yMin="-41" xMax="1229" yMax="1063">
      <contour>
        <pt x="907" y="-33" on="1"/>
        <pt x="907" y="-4" on="0"/>
        <pt x="905" y="55" on="0"/>
        <pt x="905" y="84" on="1"/>
        <pt x="852" y="36" on="0"/>
        <pt x="737" y="-13" on="0"/>
        <pt x="689" y="-25" on="1"/>
        <pt x="633" y="-39" on="0"/>
        <pt x="578" y="-41" on="1"/>
        <pt x="478" y="-41" on="0"/>
        <pt x="293" y="20" on="0"/>
        <pt x="149" y="142" on="0"/>
        <pt x="60" y="325" on="0"/>
        <pt x="55" y="446" on="1"/>
        <pt x="55" y="568" on="0"/>
        <pt x="121" y="769" on="0"/>
        <pt x="253" y="913" on="0"/>
        <pt x="449" y="992" on="0"/>
        <pt x="578" y="993" on="1"/>
        <pt x="582" y="993" on="0"/>
        <pt x="635" y="990" on="0"/>
        <pt x="713" y="975" on="0"/>
        <pt x="805" y="942" on="0"/>
        <pt x="850" y="913" on="1"/>
        <pt x="834" y="1036" on="1"/>
        <pt x="1229" y="1063" on="1"/>
        <pt x="1217" y="776" on="0"/>
        <pt x="1217" y="492" on="1"/>
        <pt x="1217" y="423" on="0"/>
        <pt x="1218" y="300" on="0"/>
        <pt x="1221" y="179" on="0"/>
        <pt x="1226" y="56" on="0"/>
        <pt x="1229" y="-12" on="1"/>
      </contour>
      <contour>
        <pt x="440" y="209" on="1"/>
        <pt x="559" y="214" on="0"/>
        <pt x="789" y="236" on="0"/>
        <pt x="901" y="258" on="1"/>
        <pt x="898" y="382" on="0"/>
        <pt x="883" y="614" on="0"/>
        <pt x="870" y="735" on="1"/>
        <pt x="813" y="735" on="1"/>
        <pt x="716" y="735" on="0"/>
        <pt x="521" y="722" on="0"/>
        <pt x="422" y="707" on="1"/>
        <pt x="410" y="602" on="0"/>
        <pt x="410" y="496" on="1"/>
        <pt x="410" y="456" on="0"/>
        <pt x="414" y="387" on="0"/>
        <pt x="421" y="319" on="0"/>
        <pt x="432" y="249" on="0"/>
      </contour>
    </TTGlyph>
    <TTGlyph name="aacute" xMin="55" yMin="-41" xMax="1229" yMax="1470">
      <component glyphName="a" x="0" y="0" flags="0x204"/>
      <component glyphName="acute" x="512" y="-89" flags="0x4"/>
    </TTGlyph>
    <TTGlyph name="abreve" xMin="55" yMin="-41" xMax="1229" yMax="1410">
      <component glyphName="a" x="0" y="0" flags="0x204"/>
      <component glyphName="breve" x="285" y="-83" flags="0x4"/>
    </TTGlyph>
    <TTGlyph name="acircumflex" xMin="55" yMin="-41" xMax="1229" yMax="1453">
      <component glyphName="a" x="0" y="0" flags="0x204"/>
      <component glyphName="circumflex" x="248" y="-54" flags="0x4"/>
    </TTGlyph>
    <TTGlyph name="acute" xMin="0" yMin="1143" xMax="496" yMax="1559">
      <contour>
        <pt x="496" y="1464" on="1"/>
        <pt x="135" y="1143" on="1"/>
        <pt x="0" y="1178" on="1"/>
        <pt x="258" y="1559" on="1"/>
      </contour>
    </TTGlyph>
    <TTGlyph name="adieresis" xMin="55" yMin="-41" xMax="1229" yMax="1330">
      <component glyphName="a" x="0" y="0" flags="0x204"/>
      <component glyphName="dieresis" x="289" y="-124" flags="0x4"/>
    </TTGlyph>
    <TTGlyph name="ae" xMin="49" yMin="-78" xMax="2005" yMax="1063">
      <contour>
        <pt x="2005" y="469" on="1"/>
        <pt x="1223" y="406" on="1"/>
        <pt x="1228" y="344" on="0"/>
        <pt x="1246" y="222" on="0"/>
        <pt x="1260" y="160" on="1"/>
        <pt x="1348" y="154" on="0"/>
        <pt x="1430" y="154" on="1"/>
        <pt x="1475" y="154" on="0"/>
        <pt x="1559" y="157" on="0"/>
        <pt x="1604" y="160" on="1"/>
        <pt x="1606" y="180" on="0"/>
        <pt x="1608" y="220" on="0"/>
        <pt x="1608" y="240" on="1"/>
        <pt x="1608" y="258" on="0"/>
        <pt x="1607" y="293" on="0"/>
        <pt x="1604" y="311" on="1"/>
        <pt x="1980" y="303" on="1"/>
        <pt x="1953" y="208" on="0"/>
        <pt x="1848" y="72" on="0"/>
        <pt x="1705" y="-15" on="0"/>
        <pt x="1529" y="-55" on="0"/>
        <pt x="1432" y="-55" on="1"/>
        <pt x="1272" y="-55" on="0"/>
        <pt x="1147" y="0" on="1"/>
        <pt x="1141" y="-55" on="1"/>
        <pt x="829" y="-55" on="1"/>
        <pt x="829" y="-40" on="0"/>
        <pt x="829" y="-12" on="0"/>
        <pt x="831" y="2" on="1"/>
        <pt x="751" y="-41" on="0"/>
        <pt x="563" y="-78" on="0"/>
        <pt x="473" y="-78" on="1"/>
        <pt x="395" y="-78" on="0"/>
        <pt x="243" y="-53" on="0"/>
        <pt x="123" y="14" on="0"/>
        <pt x="49" y="131" on="0"/>
        <pt x="49" y="223" on="1"/>
        <pt x="49" y="294" on="0"/>
        <pt x="108" y="416" on="0"/>
        <pt x="227" y="506" on="0"/>
        <pt x="407" y="557" on="0"/>
        <pt x="528" y="557" on="1"/>
        <pt x="552" y="557" on="0"/>
        <pt x="620" y="553" on="0"/>
        <pt x="701" y="540" on="0"/>
        <pt x="791" y="517" on="0"/>
        <pt x="836" y="498" on="1"/>
        <pt x="832" y="583" on="0"/>
        <pt x="822" y="754" on="0"/>
        <pt x="813" y="842" on="1"/>
        <pt x="776" y="848" on="0"/>
        <pt x="685" y="854" on="0"/>
        <pt x="647" y="854" on="1"/>
        <pt x="605" y="854" on="0"/>
        <pt x="520" y="846" on="0"/>
        <pt x="475" y="838" on="1"/>
        <pt x="446" y="765" on="0"/>
        <pt x="446" y="690" on="1"/>
        <pt x="446" y="675" on="0"/>
        <pt x="447" y="646" on="0"/>
        <pt x="449" y="631" on="1"/>
        <pt x="51" y="631" on="1"/>
        <pt x="74" y="733" on="0"/>
        <pt x="171" y="877" on="0"/>
        <pt x="291" y="973" on="0"/>
        <pt x="423" y="1028" on="0"/>
        <pt x="543" y="1056" on="0"/>
        <pt x="637" y="1063" on="0"/>
        <pt x="659" y="1063" on="1"/>
        <pt x="802" y="1063" on="0"/>
        <pt x="996" y="1007" on="0"/>
        <pt x="1059" y="961" on="1"/>
        <pt x="1136" y="1013" on="0"/>
        <pt x="1326" y="1063" on="0"/>
        <pt x="1432" y="1063" on="1"/>
        <pt x="1551" y="1063" on="0"/>
        <pt x="1760" y="999" on="0"/>
        <pt x="1915" y="863" on="0"/>
        <pt x="2005" y="651" on="0"/>
        <pt x="2005" y="504" on="1"/>
      </contour>
      <contour>
        <pt x="414" y="123" on="1"/>
        <pt x="522" y="125" on="0"/>
        <pt x="730" y="139" on="0"/>
        <pt x="836" y="150" on="1"/>
        <pt x="836" y="199" on="0"/>
        <pt x="838" y="297" on="0"/>
        <pt x="838" y="346" on="1"/>
        <pt x="838" y="406" on="1"/>
        <pt x="714" y="402" on="0"/>
        <pt x="491" y="371" on="0"/>
        <pt x="377" y="346" on="1"/>
        <pt x="372" y="326" on="0"/>
        <pt x="369" y="293" on="0"/>
        <pt x="369" y="276" on="1"/>
        <pt x="369" y="238" on="0"/>
        <pt x="389" y="166" on="0"/>
      </contour>
      <contour>
        <pt x="1212" y="616" on="1"/>
        <pt x="1614" y="616" on="1"/>
        <pt x="1614" y="740" on="0"/>
        <pt x="1589" y="852" on="1"/>
        <pt x="1503" y="870" on="0"/>
        <pt x="1409" y="870" on="1"/>
        <pt x="1317" y="870" on="0"/>
        <pt x="1223" y="852" on="1"/>
        <pt x="1216" y="796" on="0"/>
        <pt x="1212" y="681" on="0"/>
      </contour>
    </TTGlyph>
    <TTGlyph name="aeacute" xMin="49" yMin="-78" xMax="2005" yMax="1521">
      <component glyphName="ae" x="0" y="0" flags="0x204"/>
      <component glyphName="acute" x="987" y="-38" flags="0x4"/>
    </TTGlyph>
    <TTGlyph name="agrave" xMin="55" yMin="-41" xMax="1229" yMax="1462">
      <component glyphName="a" x="0" y="0" flags="0x204"/>
      <component glyphName="grave" x="141" y="-97" flags="0x4"/>
    </TTGlyph>
    <TTGlyph name="amacron" xMin="55" yMin="-41" xMax="1229" yMax="1346">
      <component glyphName="a" x="0" y="0" flags="0x204"/>
      <component glyphName="macron" x="313" y="-112" flags="0x4"/>
    </TTGlyph>
    <TTGlyph name="ampersand" xMin="20" yMin="-94" xMax="1341" yMax="1479">
      <contour>
        <pt x="973" y="-76" on="1"/>
        <pt x="918" y="-12" on="1"/>
        <pt x="830" y="-53" on="0"/>
        <pt x="635" y="-92" on="0"/>
        <pt x="532" y="-94" on="1"/>
        <pt x="401" y="-94" on="0"/>
        <pt x="208" y="-49" on="0"/>
        <pt x="82" y="35" on="0"/>
        <pt x="20" y="155" on="0"/>
        <pt x="20" y="229" on="1"/>
        <pt x="20" y="288" on="0"/>
        <pt x="78" y="406" on="0"/>
        <pt x="180" y="526" on="0"/>
        <pt x="322" y="651" on="0"/>
        <pt x="406" y="717" on="1"/>
        <pt x="349" y="831" on="0"/>
        <pt x="281" y="1054" on="0"/>
        <pt x="281" y="1159" on="1"/>
        <pt x="281" y="1226" on="0"/>
        <pt x="329" y="1343" on="0"/>
        <pt x="430" y="1430" on="0"/>
        <pt x="586" y="1479" on="0"/>
        <pt x="694" y="1479" on="1"/>
        <pt x="799" y="1479" on="0"/>
        <pt x="945" y="1429" on="0"/>
        <pt x="1036" y="1348" on="0"/>
        <pt x="1077" y="1243" on="0"/>
        <pt x="1077" y="1188" on="1"/>
        <pt x="1077" y="1129" on="0"/>
        <pt x="1044" y="1025" on="0"/>
        <pt x="967" y="912" on="0"/>
        <pt x="842" y="782" on="0"/>
        <pt x="750" y="698" on="1"/>
        <pt x="787" y="626" on="0"/>
        <pt x="870" y="490" on="0"/>
        <pt x="920" y="424" on="1"/>
        <pt x="928" y="456" on="0"/>
        <pt x="937" y="519" on="0"/>
        <pt x="942" y="551" on="1"/>
        <pt x="1307" y="551" on="1"/>
        <pt x="1297" y="427" on="0"/>
        <pt x="1215" y="231" on="0"/>
        <pt x="1149" y="156" on="1"/>
        <pt x="1195" y="108" on="0"/>
        <pt x="1290" y="19" on="0"/>
        <pt x="1341" y="-25" on="1"/>
      </contour>
      <contour>
        <pt x="586" y="162" on="1"/>
        <pt x="631" y="162" on="0"/>
        <pt x="722" y="166" on="0"/>
        <pt x="768" y="172" on="1"/>
        <pt x="709" y="246" on="0"/>
        <pt x="595" y="401" on="0"/>
        <pt x="543" y="481" on="1"/>
        <pt x="487" y="418" on="0"/>
        <pt x="380" y="268" on="0"/>
        <pt x="332" y="180" on="1"/>
        <pt x="397" y="171" on="0"/>
        <pt x="521" y="162" on="0"/>
      </contour>
      <contour>
        <pt x="580" y="1243" on="1"/>
        <pt x="591" y="1163" on="0"/>
        <pt x="624" y="1012" on="0"/>
        <pt x="647" y="940" on="1"/>
        <pt x="681" y="976" on="0"/>
        <pt x="745" y="1053" on="0"/>
        <pt x="797" y="1131" on="0"/>
        <pt x="834" y="1208" on="0"/>
        <pt x="840" y="1243" on="1"/>
        <pt x="809" y="1251" on="0"/>
        <pt x="745" y="1260" on="0"/>
        <pt x="711" y="1260" on="1"/>
        <pt x="679" y="1260" on="0"/>
        <pt x="612" y="1251" on="0"/>
      </contour>
    </TTGlyph>
    <TTGlyph name="aogonek" xMin="55" yMin="-473" xMax="1341" yMax="1063">
      <contour>
        <pt x="1341" y="-412" on="1"/>
        <pt x="1287" y="-440" on="0"/>
        <pt x="1168" y="-473" on="0"/>
        <pt x="1102" y="-473" on="1"/>
        <pt x="1045" y="-473" on="0"/>
        <pt x="942" y="-451" on="0"/>
        <pt x="865" y="-406" on="0"/>
        <pt x="819" y="-338" on="0"/>
        <pt x="819" y="-291" on="1"/>
        <pt x="819" y="-257" on="0"/>
        <pt x="842" y="-188" on="0"/>
        <pt x="881" y="-121" on="0"/>
        <pt x="932" y="-58" on="0"/>
        <pt x="961" y="-29" on="1"/>
        <pt x="907" y="-33" on="1"/>
        <pt x="907" y="-4" on="0"/>
        <pt x="905" y="55" on="0"/>
        <pt x="905" y="84" on="1"/>
        <pt x="852" y="36" on="0"/>
        <pt x="737" y="-13" on="0"/>
        <pt x="689" y="-25" on="1"/>
        <pt x="633" y="-39" on="0"/>
        <pt x="578" y="-41" on="1"/>
        <pt x="478" y="-41" on="0"/>
        <pt x="293" y="20" on="0"/>
        <pt x="149" y="142" on="0"/>
        <pt x="60" y="325" on="0"/>
        <pt x="55" y="446" on="1"/>
        <pt x="55" y="568" on="0"/>
        <pt x="121" y="769" on="0"/>
        <pt x="253" y="913" on="0"/>
        <pt x="449" y="992" on="0"/>
        <pt x="578" y="993" on="1"/>
        <pt x="582" y="993" on="0"/>
        <pt x="635" y="990" on="0"/>
        <pt x="713" y="975" on="0"/>
        <pt x="805" y="942" on="0"/>
        <pt x="850" y="913" on="1"/>
        <pt x="834" y="1036" on="1"/>
        <pt x="1229" y="1063" on="1"/>
        <pt x="1217" y="776" on="0"/>
        <pt x="1217" y="492" on="1"/>
        <pt x="1217" y="423" on="0"/>
        <pt x="1218" y="300" on="0"/>
        <pt x="1221" y="179" on="0"/>
        <pt x="1226" y="56" on="0"/>
        <pt x="1229" y="-12" on="1"/>
        <pt x="1139" y="-18" on="1"/>
        <pt x="1097" y="-84" on="0"/>
        <pt x="1041" y="-225" on="0"/>
        <pt x="1032" y="-299" on="1"/>
        <pt x="1111" y="-294" on="0"/>
        <pt x="1264" y="-275" on="0"/>
        <pt x="1341" y="-258" on="1"/>
      </contour>
      <contour>
        <pt x="440" y="209" on="1"/>
        <pt x="559" y="214" on="0"/>
        <pt x="789" y="236" on="0"/>
        <pt x="901" y="258" on="1"/>
        <pt x="898" y="382" on="0"/>
        <pt x="883" y="614" on="0"/>
        <pt x="870" y="735" on="1"/>
        <pt x="813" y="735" on="1"/>
        <pt x="716" y="735" on="0"/>
        <pt x="521" y="722" on="0"/>
        <pt x="422" y="707" on="1"/>
        <pt x="410" y="602" on="0"/>
        <pt x="410" y="496" on="1"/>
        <pt x="410" y="456" on="0"/>
        <pt x="414" y="387" on="0"/>
        <pt x="421" y="319" on="0"/>
        <pt x="432" y="249" on="0"/>
      </contour>
    </TTGlyph>
    <TTGlyph name="approxequal" xMin="100" yMin="55" xMax="1610" yMax="1356">
      <contour>
        <pt x="1591" y="1309" on="1"/>
        <pt x="1610" y="1224" on="0"/>
        <pt x="1610" y="1151" on="1"/>
        <pt x="1610" y="1059" on="0"/>
        <pt x="1542" y="898" on="0"/>
        <pt x="1422" y="779" on="0"/>
        <pt x="1258" y="711" on="0"/>
        <pt x="1163" y="711" on="1"/>
        <pt x="1133" y="711" on="0"/>
        <pt x="1039" y="718" on="0"/>
        <pt x="931" y="743" on="0"/>
        <pt x="823" y="792" on="0"/>
        <pt x="735" y="875" on="0"/>
        <pt x="680" y="998" on="0"/>
        <pt x="680" y="1085" on="1"/>
        <pt x="483" y="1067" on="1"/>
        <pt x="475" y="1032" on="0"/>
        <pt x="467" y="960" on="0"/>
        <pt x="467" y="926" on="1"/>
        <pt x="467" y="879" on="0"/>
        <pt x="480" y="788" on="0"/>
        <pt x="494" y="743" on="1"/>
        <pt x="125" y="743" on="1"/>
        <pt x="113" y="794" on="0"/>
        <pt x="100" y="885" on="0"/>
        <pt x="100" y="926" on="1"/>
        <pt x="100" y="1005" on="0"/>
        <pt x="137" y="1127" on="0"/>
        <pt x="198" y="1217" on="0"/>
        <pt x="276" y="1279" on="0"/>
        <pt x="317" y="1300" on="1"/>
        <pt x="413" y="1348" on="0"/>
        <pt x="535" y="1356" on="1"/>
        <pt x="538" y="1356" on="0"/>
        <pt x="583" y="1355" on="0"/>
        <pt x="654" y="1347" on="0"/>
        <pt x="742" y="1331" on="0"/>
        <pt x="833" y="1299" on="0"/>
        <pt x="921" y="1251" on="0"/>
        <pt x="989" y="1181" on="0"/>
        <pt x="1030" y="1085" on="0"/>
        <pt x="1030" y="1022" on="1"/>
        <pt x="1030" y="1008" on="0"/>
        <pt x="1029" y="978" on="0"/>
        <pt x="1024" y="963" on="1"/>
        <pt x="1050" y="959" on="0"/>
        <pt x="1099" y="954" on="0"/>
        <pt x="1122" y="954" on="1"/>
        <pt x="1150" y="954" on="0"/>
        <pt x="1208" y="960" on="0"/>
        <pt x="1237" y="967" on="1"/>
        <pt x="1245" y="1009" on="0"/>
        <pt x="1255" y="1093" on="0"/>
        <pt x="1255" y="1135" on="1"/>
        <pt x="1255" y="1177" on="0"/>
        <pt x="1245" y="1256" on="0"/>
        <pt x="1237" y="1298" on="1"/>
      </contour>
      <contour>
        <pt x="1591" y="653" on="1"/>
        <pt x="1601" y="610" on="0"/>
        <pt x="1610" y="531" on="0"/>
        <pt x="1610" y="496" on="1"/>
        <pt x="1610" y="404" on="0"/>
        <pt x="1542" y="243" on="0"/>
        <pt x="1422" y="124" on="0"/>
        <pt x="1258" y="55" on="0"/>
        <pt x="1163" y="55" on="1"/>
        <pt x="1133" y="55" on="0"/>
        <pt x="1039" y="62" on="0"/>
        <pt x="931" y="88" on="0"/>
        <pt x="823" y="136" on="0"/>
        <pt x="735" y="220" on="0"/>
        <pt x="680" y="343" on="0"/>
        <pt x="680" y="430" on="1"/>
        <pt x="483" y="412" on="1"/>
        <pt x="475" y="377" on="0"/>
        <pt x="467" y="304" on="0"/>
        <pt x="467" y="270" on="1"/>
        <pt x="467" y="224" on="0"/>
        <pt x="480" y="133" on="0"/>
        <pt x="494" y="88" on="1"/>
        <pt x="125" y="88" on="1"/>
        <pt x="113" y="139" on="0"/>
        <pt x="100" y="230" on="0"/>
        <pt x="100" y="270" on="1"/>
        <pt x="100" y="349" on="0"/>
        <pt x="137" y="471" on="0"/>
        <pt x="198" y="561" on="0"/>
        <pt x="276" y="623" on="0"/>
        <pt x="317" y="644" on="1"/>
        <pt x="413" y="692" on="0"/>
        <pt x="535" y="700" on="1"/>
        <pt x="538" y="700" on="0"/>
        <pt x="583" y="699" on="0"/>
        <pt x="654" y="691" on="0"/>
        <pt x="742" y="675" on="0"/>
        <pt x="833" y="644" on="0"/>
        <pt x="921" y="596" on="0"/>
        <pt x="989" y="525" on="0"/>
        <pt x="1030" y="430" on="0"/>
        <pt x="1030" y="367" on="1"/>
        <pt x="1030" y="353" on="0"/>
        <pt x="1029" y="323" on="0"/>
        <pt x="1024" y="307" on="1"/>
        <pt x="1050" y="304" on="0"/>
        <pt x="1099" y="299" on="0"/>
        <pt x="1122" y="299" on="1"/>
        <pt x="1178" y="299" on="0"/>
        <pt x="1237" y="311" on="1"/>
        <pt x="1245" y="353" on="0"/>
        <pt x="1255" y="437" on="0"/>
        <pt x="1255" y="479" on="1"/>
        <pt x="1255" y="521" on="0"/>
        <pt x="1245" y="601" on="0"/>
        <pt x="1237" y="643" on="1"/>
      </contour>
    </TTGlyph>
    <TTGlyph name="aring" xMin="55" yMin="-41" xMax="1229" yMax="1520">
      <component glyphName="a" x="0" y="0" flags="0x204"/>
      <component glyphName="ring" x="358" y="-30" flags="0x4"/>
    </TTGlyph>
    <TTGlyph name="asciicircum" xMin="68" yMin="786" xMax="1151" yMax="1458">
      <contour>
        <pt x="750" y="786" on="1"/>
        <pt x="722" y="907" on="0"/>
        <pt x="633" y="1141" on="0"/>
        <pt x="567" y="1253" on="1"/>
        <pt x="490" y="1154" on="0"/>
        <pt x="368" y="948" on="0"/>
        <pt x="317" y="842" on="1"/>
        <pt x="68" y="883" on="1"/>
        <pt x="176" y="1028" on="0"/>
        <pt x="368" y="1313" on="0"/>
        <pt x="453" y="1458" on="1"/>
        <pt x="834" y="1458" on="1"/>
        <pt x="894" y="1306" on="0"/>
        <pt x="1052" y="1020" on="0"/>
        <pt x="1151" y="881" on="1"/>
      </contour>
    </TTGlyph>
    <TTGlyph name="asciitilde" xMin="90" yMin="403" xMax="1599" yMax="1049">
      <contour>
        <pt x="1581" y="1001" on="1"/>
        <pt x="1599" y="915" on="0"/>
        <pt x="1599" y="844" on="1"/>
        <pt x="1599" y="752" on="0"/>
        <pt x="1531" y="591" on="0"/>
        <pt x="1411" y="472" on="0"/>
        <pt x="1248" y="403" on="0"/>
        <pt x="1153" y="403" on="1"/>
        <pt x="1123" y="403" on="0"/>
        <pt x="1029" y="410" on="0"/>
        <pt x="921" y="436" on="0"/>
        <pt x="813" y="484" on="0"/>
        <pt x="725" y="568" on="0"/>
        <pt x="670" y="691" on="0"/>
        <pt x="670" y="778" on="1"/>
        <pt x="473" y="760" on="1"/>
        <pt x="465" y="725" on="0"/>
        <pt x="457" y="653" on="0"/>
        <pt x="457" y="618" on="1"/>
        <pt x="457" y="572" on="0"/>
        <pt x="469" y="481" on="0"/>
        <pt x="483" y="436" on="1"/>
        <pt x="115" y="436" on="1"/>
        <pt x="90" y="536" on="0"/>
        <pt x="90" y="618" on="1"/>
        <pt x="90" y="697" on="0"/>
        <pt x="127" y="819" on="0"/>
        <pt x="188" y="909" on="0"/>
        <pt x="266" y="971" on="0"/>
        <pt x="307" y="992" on="1"/>
        <pt x="402" y="1040" on="0"/>
        <pt x="524" y="1049" on="1"/>
        <pt x="528" y="1049" on="0"/>
        <pt x="604" y="1046" on="0"/>
        <pt x="714" y="1028" on="0"/>
        <pt x="841" y="988" on="0"/>
        <pt x="949" y="914" on="0"/>
        <pt x="1020" y="799" on="0"/>
        <pt x="1020" y="715" on="1"/>
        <pt x="1020" y="701" on="0"/>
        <pt x="1019" y="671" on="0"/>
        <pt x="1014" y="655" on="1"/>
        <pt x="1040" y="652" on="0"/>
        <pt x="1089" y="647" on="0"/>
        <pt x="1112" y="647" on="1"/>
        <pt x="1168" y="647" on="0"/>
        <pt x="1227" y="659" on="1"/>
        <pt x="1235" y="701" on="0"/>
        <pt x="1245" y="785" on="0"/>
        <pt x="1245" y="827" on="1"/>
        <pt x="1245" y="869" on="0"/>
        <pt x="1235" y="949" on="0"/>
        <pt x="1227" y="991" on="1"/>
      </contour>
    </TTGlyph>
    <TTGlyph name="asterisk" xMin="72" yMin="600" xMax="1116" yMax="1573">
      <contour>
        <pt x="1116" y="1063" on="1"/>
        <pt x="844" y="1063" on="1"/>
        <pt x="1092" y="834" on="1"/>
        <pt x="827" y="664" on="1"/>
        <pt x="633" y="987" on="1"/>
        <pt x="418" y="600" on="1"/>
        <pt x="125" y="758" on="1"/>
        <pt x="430" y="1063" on="1"/>
        <pt x="72" y="1063" on="1"/>
        <pt x="125" y="1366" on="1"/>
        <pt x="479" y="1274" on="1"/>
        <pt x="461" y="1548" on="1"/>
        <pt x="801" y="1573" on="1"/>
        <pt x="764" y="1280" on="1"/>
        <pt x="1092" y="1366" on="1"/>
      </contour>
    </TTGlyph>
    <TTGlyph name="at" xMin="70" yMin="-162" xMax="1696" yMax="1092">
      <contour>
        <pt x="1696" y="547" on="1"/>
        <pt x="1696" y="542" on="0"/>
        <pt x="1693" y="482" on="0"/>
        <pt x="1679" y="395" on="0"/>
        <pt x="1650" y="292" on="0"/>
        <pt x="1596" y="194" on="0"/>
        <pt x="1515" y="112" on="0"/>
        <pt x="1456" y="90" on="1"/>
        <pt x="1034" y="119" on="1"/>
        <pt x="1034" y="140" on="0"/>
        <pt x="1036" y="183" on="0"/>
        <pt x="1036" y="203" on="1"/>
        <pt x="1001" y="187" on="0"/>
        <pt x="931" y="171" on="0"/>
        <pt x="903" y="167" on="1"/>
        <pt x="870" y="163" on="0"/>
        <pt x="840" y="162" on="1"/>
        <pt x="781" y="162" on="0"/>
        <pt x="658" y="194" on="0"/>
        <pt x="558" y="259" on="0"/>
        <pt x="494" y="357" on="0"/>
        <pt x="494" y="422" on="1"/>
        <pt x="494" y="554" on="0"/>
        <pt x="686" y="705" on="0"/>
        <pt x="874" y="705" on="1"/>
        <pt x="898" y="704" on="0"/>
        <pt x="924" y="700" on="1"/>
        <pt x="946" y="697" on="0"/>
        <pt x="1001" y="685" on="0"/>
        <pt x="1028" y="674" on="1"/>
        <pt x="1022" y="743" on="1"/>
        <pt x="1249" y="743" on="1"/>
        <pt x="1232" y="641" on="0"/>
        <pt x="1217" y="437" on="0"/>
        <pt x="1217" y="334" on="1"/>
        <pt x="1217" y="311" on="0"/>
        <pt x="1218" y="265" on="0"/>
        <pt x="1221" y="242" on="1"/>
        <pt x="1266" y="236" on="0"/>
        <pt x="1315" y="236" on="1"/>
        <pt x="1367" y="236" on="0"/>
        <pt x="1417" y="242" on="1"/>
        <pt x="1430" y="320" on="0"/>
        <pt x="1440" y="477" on="0"/>
        <pt x="1440" y="555" on="1"/>
        <pt x="1440" y="632" on="0"/>
        <pt x="1430" y="785" on="0"/>
        <pt x="1417" y="862" on="1"/>
        <pt x="1318" y="867" on="0"/>
        <pt x="1121" y="872" on="0"/>
        <pt x="1022" y="872" on="1"/>
        <pt x="854" y="872" on="0"/>
        <pt x="523" y="858" on="0"/>
        <pt x="354" y="846" on="1"/>
        <pt x="345" y="752" on="0"/>
        <pt x="334" y="567" on="0"/>
        <pt x="334" y="473" on="1"/>
        <pt x="334" y="371" on="0"/>
        <pt x="345" y="172" on="0"/>
        <pt x="354" y="70" on="1"/>
        <pt x="473" y="51" on="0"/>
        <pt x="707" y="31" on="0"/>
        <pt x="825" y="31" on="1"/>
        <pt x="864" y="31" on="0"/>
        <pt x="940" y="33" on="0"/>
        <pt x="975" y="35" on="1"/>
        <pt x="973" y="-162" on="1"/>
        <pt x="804" y="-162" on="0"/>
        <pt x="546" y="-111" on="0"/>
        <pt x="356" y="-27" on="0"/>
        <pt x="225" y="81" on="0"/>
        <pt x="141" y="194" on="0"/>
        <pt x="95" y="303" on="0"/>
        <pt x="74" y="390" on="0"/>
        <pt x="70" y="446" on="0"/>
        <pt x="70" y="449" on="1"/>
        <pt x="70" y="574" on="0"/>
        <pt x="137" y="767" on="0"/>
        <pt x="253" y="910" on="0"/>
        <pt x="409" y="1007" on="0"/>
        <pt x="589" y="1066" on="0"/>
        <pt x="783" y="1092" on="0"/>
        <pt x="879" y="1092" on="1"/>
        <pt x="956" y="1092" on="0"/>
        <pt x="1137" y="1071" on="0"/>
        <pt x="1318" y="1022" on="0"/>
        <pt x="1487" y="940" on="0"/>
        <pt x="1617" y="819" on="0"/>
        <pt x="1695" y="654" on="0"/>
      </contour>
      <contour>
        <pt x="809" y="319" on="1"/>
        <pt x="868" y="319" on="0"/>
        <pt x="979" y="325" on="0"/>
        <pt x="1036" y="330" on="1"/>
        <pt x="1036" y="384" on="0"/>
        <pt x="1036" y="491" on="0"/>
        <pt x="1034" y="545" on="1"/>
        <pt x="983" y="545" on="1"/>
        <pt x="926" y="545" on="0"/>
        <pt x="816" y="540" on="0"/>
        <pt x="760" y="535" on="1"/>
        <pt x="747" y="509" on="0"/>
        <pt x="737" y="457" on="0"/>
        <pt x="737" y="432" on="1"/>
        <pt x="737" y="404" on="0"/>
        <pt x="747" y="349" on="0"/>
        <pt x="760" y="322" on="1"/>
        <pt x="771" y="322" on="0"/>
        <pt x="798" y="319" on="0"/>
      </contour>
    </TTGlyph>
    <TTGlyph name="atilde" xMin="55" yMin="-41" xMax="1229" yMax="1440">
      <component glyphName="a" x="0" y="0" flags="0x204"/>
      <component glyphName="tilde" x="203" y="-71" flags="0x4"/>
    </TTGlyph>
    <TTGlyph name="b" xMin="76" yMin="-20" xMax="1276" yMax="1468">
      <contour>
        <pt x="1276" y="500" on="1"/>
        <pt x="1276" y="416" on="0"/>
        <pt x="1236" y="275" on="0"/>
        <pt x="1166" y="159" on="0"/>
        <pt x="1073" y="71" on="0"/>
        <pt x="966" y="11" on="0"/>
        <pt x="852" y="-20" on="0"/>
        <pt x="797" y="-20" on="1"/>
        <pt x="731" y="-18" on="0"/>
        <pt x="668" y="-4" on="1"/>
        <pt x="641" y="2" on="0"/>
        <pt x="582" y="21" on="0"/>
        <pt x="524" y="49" on="0"/>
        <pt x="469" y="86" on="0"/>
        <pt x="446" y="111" on="1"/>
        <pt x="448" y="80" on="0"/>
        <pt x="452" y="19" on="0"/>
        <pt x="455" y="-10" on="1"/>
        <pt x="119" y="-10" on="1"/>
        <pt x="119" y="350" on="0"/>
        <pt x="99" y="1088" on="0"/>
        <pt x="76" y="1446" on="1"/>
        <pt x="455" y="1468" on="1"/>
        <pt x="447" y="1325" on="0"/>
        <pt x="437" y="1035" on="0"/>
        <pt x="434" y="889" on="1"/>
        <pt x="457" y="916" on="0"/>
        <pt x="511" y="958" on="0"/>
        <pt x="570" y="990" on="0"/>
        <pt x="629" y="1011" on="0"/>
        <pt x="656" y="1018" on="1"/>
        <pt x="720" y="1034" on="0"/>
        <pt x="786" y="1036" on="1"/>
        <pt x="901" y="1036" on="0"/>
        <pt x="1083" y="962" on="0"/>
        <pt x="1209" y="824" on="0"/>
        <pt x="1276" y="625" on="0"/>
      </contour>
      <contour>
        <pt x="434" y="662" on="1"/>
        <pt x="434" y="559" on="0"/>
        <pt x="437" y="356" on="0"/>
        <pt x="440" y="256" on="1"/>
        <pt x="478" y="251" on="0"/>
        <pt x="545" y="245" on="0"/>
        <pt x="610" y="242" on="0"/>
        <pt x="674" y="240" on="0"/>
        <pt x="709" y="240" on="1"/>
        <pt x="781" y="240" on="0"/>
        <pt x="877" y="246" on="1"/>
        <pt x="889" y="336" on="0"/>
        <pt x="903" y="513" on="0"/>
        <pt x="903" y="604" on="1"/>
        <pt x="903" y="649" on="0"/>
        <pt x="900" y="736" on="0"/>
        <pt x="895" y="782" on="1"/>
        <pt x="841" y="787" on="0"/>
        <pt x="749" y="793" on="0"/>
        <pt x="707" y="793" on="1"/>
        <pt x="636" y="793" on="0"/>
        <pt x="507" y="776" on="0"/>
        <pt x="434" y="758" on="1"/>
      </contour>
    </TTGlyph>
    <TTGlyph name="backslash" xMin="45" yMin="-35" xMax="1200" yMax="1450">
      <contour>
        <pt x="434" y="1450" on="1"/>
        <pt x="592" y="1089" on="0"/>
        <pt x="977" y="375" on="0"/>
        <pt x="1200" y="16" on="1"/>
        <pt x="821" y="-35" on="1"/>
        <pt x="658" y="341" on="0"/>
        <pt x="272" y="1076" on="0"/>
        <pt x="45" y="1432" on="1"/>
      </contour>
    </TTGlyph>
    <TTGlyph name="bar" xMin="100" yMin="-338" xMax="543" yMax="1640">
      <contour>
        <pt x="543" y="1640" on="1"/>
        <pt x="502" y="1279" on="0"/>
        <pt x="471" y="560" on="0"/>
        <pt x="471" y="201" on="1"/>
        <pt x="471" y="64" on="0"/>
        <pt x="474" y="-204" on="0"/>
        <pt x="479" y="-338" on="1"/>
        <pt x="100" y="-338" on="1"/>
        <pt x="120" y="60" on="0"/>
        <pt x="145" y="858" on="0"/>
        <pt x="145" y="1257" on="1"/>
        <pt x="145" y="1348" on="0"/>
        <pt x="145" y="1529" on="0"/>
        <pt x="143" y="1620" on="1"/>
      </contour>
    </TTGlyph>
    <TTGlyph name="braceleft" xMin="10" yMin="-338" xMax="932" yMax="1655">
      <contour>
        <pt x="932" y="-317" on="1"/>
        <pt x="884" y="-328" on="0"/>
        <pt x="796" y="-338" on="0"/>
        <pt x="754" y="-338" on="1"/>
        <pt x="698" y="-338" on="0"/>
        <pt x="572" y="-313" on="0"/>
        <pt x="448" y="-263" on="0"/>
        <pt x="335" y="-191" on="0"/>
        <pt x="248" y="-97" on="0"/>
        <pt x="197" y="19" on="0"/>
        <pt x="197" y="86" on="1"/>
        <pt x="197" y="137" on="0"/>
        <pt x="229" y="224" on="0"/>
        <pt x="268" y="301" on="0"/>
        <pt x="301" y="370" on="0"/>
        <pt x="301" y="403" on="1"/>
        <pt x="301" y="449" on="0"/>
        <pt x="240" y="511" on="0"/>
        <pt x="151" y="550" on="0"/>
        <pt x="50" y="567" on="0"/>
        <pt x="10" y="569" on="1"/>
        <pt x="10" y="745" on="1"/>
        <pt x="43" y="746" on="0"/>
        <pt x="142" y="763" on="0"/>
        <pt x="235" y="802" on="0"/>
        <pt x="301" y="865" on="0"/>
        <pt x="301" y="913" on="1"/>
        <pt x="301" y="945" on="0"/>
        <pt x="268" y="1014" on="0"/>
        <pt x="229" y="1092" on="0"/>
        <pt x="197" y="1180" on="0"/>
        <pt x="197" y="1231" on="1"/>
        <pt x="197" y="1295" on="0"/>
        <pt x="245" y="1408" on="0"/>
        <pt x="328" y="1502" on="0"/>
        <pt x="437" y="1576" on="0"/>
        <pt x="561" y="1628" on="0"/>
        <pt x="692" y="1655" on="0"/>
        <pt x="754" y="1655" on="1"/>
        <pt x="796" y="1655" on="0"/>
        <pt x="884" y="1645" on="0"/>
        <pt x="932" y="1634" on="1"/>
        <pt x="883" y="1260" on="1"/>
        <pt x="835" y="1275" on="0"/>
        <pt x="757" y="1288" on="0"/>
        <pt x="723" y="1288" on="1"/>
        <pt x="683" y="1288" on="0"/>
        <pt x="602" y="1266" on="0"/>
        <pt x="537" y="1221" on="0"/>
        <pt x="496" y="1153" on="0"/>
        <pt x="496" y="1106" on="1"/>
        <pt x="496" y="1064" on="0"/>
        <pt x="524" y="980" on="0"/>
        <pt x="558" y="902" on="0"/>
        <pt x="586" y="834" on="0"/>
        <pt x="586" y="807" on="1"/>
        <pt x="586" y="782" on="0"/>
        <pt x="545" y="740" on="0"/>
        <pt x="484" y="707" on="0"/>
        <pt x="412" y="682" on="0"/>
        <pt x="349" y="665" on="0"/>
        <pt x="306" y="657" on="0"/>
        <pt x="305" y="657" on="1"/>
        <pt x="306" y="657" on="0"/>
        <pt x="349" y="649" on="0"/>
        <pt x="412" y="632" on="0"/>
        <pt x="484" y="607" on="0"/>
        <pt x="545" y="574" on="0"/>
        <pt x="586" y="532" on="0"/>
        <pt x="586" y="508" on="1"/>
        <pt x="586" y="482" on="0"/>
        <pt x="558" y="414" on="0"/>
        <pt x="524" y="336" on="0"/>
        <pt x="496" y="251" on="0"/>
        <pt x="496" y="209" on="1"/>
        <pt x="496" y="166" on="0"/>
        <pt x="534" y="99" on="0"/>
        <pt x="597" y="53" on="0"/>
        <pt x="679" y="29" on="0"/>
        <pt x="723" y="29" on="1"/>
        <pt x="757" y="29" on="0"/>
        <pt x="835" y="41" on="0"/>
        <pt x="883" y="55" on="1"/>
      </contour>
    </TTGlyph>
    <TTGlyph name="braceright" xMin="47" yMin="-338" xMax="969" yMax="1655">
      <contour>
        <pt x="96" y="55" on="1"/>
        <pt x="144" y="41" on="0"/>
        <pt x="222" y="29" on="0"/>
        <pt x="256" y="29" on="1"/>
        <pt x="300" y="29" on="0"/>
        <pt x="382" y="53" on="0"/>
        <pt x="445" y="99" on="0"/>
        <pt x="483" y="166" on="0"/>
        <pt x="483" y="209" on="1"/>
        <pt x="483" y="251" on="0"/>
        <pt x="455" y="336" on="0"/>
        <pt x="421" y="414" on="0"/>
        <pt x="393" y="482" on="0"/>
        <pt x="393" y="508" on="1"/>
        <pt x="393" y="532" on="0"/>
        <pt x="434" y="574" on="0"/>
        <pt x="495" y="607" on="0"/>
        <pt x="567" y="632" on="0"/>
        <pt x="630" y="649" on="0"/>
        <pt x="672" y="657" on="0"/>
        <pt x="674" y="657" on="1"/>
        <pt x="672" y="657" on="0"/>
        <pt x="630" y="665" on="0"/>
        <pt x="567" y="682" on="0"/>
        <pt x="495" y="707" on="0"/>
        <pt x="434" y="740" on="0"/>
        <pt x="393" y="782" on="0"/>
        <pt x="393" y="807" on="1"/>
        <pt x="393" y="834" on="0"/>
        <pt x="421" y="902" on="0"/>
        <pt x="455" y="980" on="0"/>
        <pt x="483" y="1064" on="0"/>
        <pt x="483" y="1106" on="1"/>
        <pt x="483" y="1153" on="0"/>
        <pt x="442" y="1221" on="0"/>
        <pt x="377" y="1266" on="0"/>
        <pt x="296" y="1288" on="0"/>
        <pt x="256" y="1288" on="1"/>
        <pt x="222" y="1288" on="0"/>
        <pt x="144" y="1275" on="0"/>
        <pt x="96" y="1260" on="1"/>
        <pt x="47" y="1634" on="1"/>
        <pt x="95" y="1645" on="0"/>
        <pt x="183" y="1655" on="0"/>
        <pt x="225" y="1655" on="1"/>
        <pt x="287" y="1655" on="0"/>
        <pt x="418" y="1628" on="0"/>
        <pt x="542" y="1576" on="0"/>
        <pt x="651" y="1502" on="0"/>
        <pt x="734" y="1408" on="0"/>
        <pt x="782" y="1295" on="0"/>
        <pt x="782" y="1231" on="1"/>
        <pt x="782" y="1180" on="0"/>
        <pt x="749" y="1092" on="0"/>
        <pt x="710" y="1014" on="0"/>
        <pt x="678" y="945" on="0"/>
        <pt x="678" y="913" on="1"/>
        <pt x="678" y="865" on="0"/>
        <pt x="744" y="802" on="0"/>
        <pt x="837" y="763" on="0"/>
        <pt x="936" y="746" on="0"/>
        <pt x="969" y="745" on="1"/>
        <pt x="969" y="569" on="1"/>
        <pt x="929" y="567" on="0"/>
        <pt x="828" y="550" on="0"/>
        <pt x="739" y="511" on="0"/>
        <pt x="678" y="449" on="0"/>
        <pt x="678" y="403" on="1"/>
        <pt x="678" y="370" on="0"/>
        <pt x="710" y="301" on="0"/>
        <pt x="749" y="224" on="0"/>
        <pt x="782" y="137" on="0"/>
        <pt x="782" y="86" on="1"/>
        <pt x="782" y="18" on="0"/>
        <pt x="731" y="-97" on="0"/>
        <pt x="644" y="-191" on="0"/>
        <pt x="531" y="-263" on="0"/>
        <pt x="407" y="-313" on="0"/>
        <pt x="281" y="-338" on="0"/>
        <pt x="225" y="-338" on="1"/>
        <pt x="183" y="-338" on="0"/>
        <pt x="95" y="-328" on="0"/>
        <pt x="47" y="-317" on="1"/>
      </contour>
    </TTGlyph>
    <TTGlyph name="bracketleft" xMin="119" yMin="-373" xMax="885" yMax="1634">
      <contour>
        <pt x="856" y="-373" on="1"/>
        <pt x="760" y="-368" on="0"/>
        <pt x="569" y="-362" on="0"/>
        <pt x="475" y="-362" on="1"/>
        <pt x="385" y="-362" on="0"/>
        <pt x="209" y="-368" on="0"/>
        <pt x="119" y="-373" on="1"/>
        <pt x="127" y="-127" on="0"/>
        <pt x="135" y="359" on="0"/>
        <pt x="135" y="604" on="1"/>
        <pt x="135" y="862" on="0"/>
        <pt x="127" y="1374" on="0"/>
        <pt x="119" y="1634" on="1"/>
        <pt x="215" y="1628" on="0"/>
        <pt x="406" y="1624" on="0"/>
        <pt x="500" y="1624" on="1"/>
        <pt x="593" y="1624" on="0"/>
        <pt x="773" y="1628" on="0"/>
        <pt x="866" y="1634" on="1"/>
        <pt x="840" y="1339" on="1"/>
        <pt x="790" y="1342" on="0"/>
        <pt x="691" y="1346" on="0"/>
        <pt x="641" y="1346" on="1"/>
        <pt x="590" y="1346" on="0"/>
        <pt x="494" y="1342" on="0"/>
        <pt x="444" y="1339" on="1"/>
        <pt x="420" y="1003" on="0"/>
        <pt x="403" y="332" on="0"/>
        <pt x="403" y="-2" on="1"/>
        <pt x="463" y="-7" on="0"/>
        <pt x="582" y="-10" on="0"/>
        <pt x="641" y="-10" on="1"/>
        <pt x="703" y="-10" on="0"/>
        <pt x="825" y="-7" on="0"/>
        <pt x="885" y="-2" on="1"/>
      </contour>
    </TTGlyph>
    <TTGlyph name="bracketright" xMin="43" yMin="-373" xMax="809" yMax="1634">
      <contour>
        <pt x="43" y="-2" on="1"/>
        <pt x="103" y="-7" on="0"/>
        <pt x="225" y="-10" on="0"/>
        <pt x="287" y="-10" on="1"/>
        <pt x="346" y="-10" on="0"/>
        <pt x="464" y="-7" on="0"/>
        <pt x="524" y="-2" on="1"/>
        <pt x="524" y="332" on="0"/>
        <pt x="508" y="1003" on="0"/>
        <pt x="483" y="1339" on="1"/>
        <pt x="434" y="1342" on="0"/>
        <pt x="338" y="1346" on="0"/>
        <pt x="287" y="1346" on="1"/>
        <pt x="237" y="1346" on="0"/>
        <pt x="138" y="1342" on="0"/>
        <pt x="88" y="1339" on="1"/>
        <pt x="61" y="1634" on="1"/>
        <pt x="154" y="1628" on="0"/>
        <pt x="335" y="1624" on="0"/>
        <pt x="428" y="1624" on="1"/>
        <pt x="522" y="1624" on="0"/>
        <pt x="713" y="1628" on="0"/>
        <pt x="809" y="1634" on="1"/>
        <pt x="801" y="1374" on="0"/>
        <pt x="793" y="862" on="0"/>
        <pt x="793" y="604" on="1"/>
        <pt x="793" y="359" on="0"/>
        <pt x="801" y="-127" on="0"/>
        <pt x="809" y="-373" on="1"/>
        <pt x="719" y="-368" on="0"/>
        <pt x="542" y="-362" on="0"/>
        <pt x="453" y="-362" on="1"/>
        <pt x="359" y="-362" on="0"/>
        <pt x="168" y="-368" on="0"/>
        <pt x="72" y="-373" on="1"/>
      </contour>
    </TTGlyph>
    <TTGlyph name="breve" xMin="0" yMin="1165" xMax="758" yMax="1493">
      <contour>
        <pt x="758" y="1493" on="1"/>
        <pt x="758" y="1431" on="0"/>
        <pt x="725" y="1338" on="0"/>
        <pt x="672" y="1269" on="0"/>
        <pt x="604" y="1221" on="0"/>
        <pt x="568" y="1206" on="1"/>
        <pt x="484" y="1170" on="0"/>
        <pt x="379" y="1165" on="1"/>
        <pt x="273" y="1170" on="0"/>
        <pt x="189" y="1204" on="1"/>
        <pt x="153" y="1219" on="0"/>
        <pt x="85" y="1264" on="0"/>
        <pt x="32" y="1330" on="0"/>
        <pt x="0" y="1420" on="0"/>
        <pt x="0" y="1479" on="1"/>
        <pt x="246" y="1493" on="1"/>
        <pt x="246" y="1485" on="0"/>
        <pt x="242" y="1472" on="0"/>
        <pt x="242" y="1464" on="1"/>
        <pt x="242" y="1381" on="0"/>
        <pt x="285" y="1305" on="1"/>
        <pt x="306" y="1301" on="0"/>
        <pt x="354" y="1298" on="0"/>
        <pt x="379" y="1298" on="1"/>
        <pt x="402" y="1298" on="0"/>
        <pt x="453" y="1301" on="0"/>
        <pt x="479" y="1305" on="1"/>
        <pt x="485" y="1329" on="0"/>
        <pt x="492" y="1378" on="0"/>
        <pt x="492" y="1401" on="1"/>
        <pt x="492" y="1426" on="0"/>
        <pt x="485" y="1471" on="0"/>
        <pt x="479" y="1493" on="1"/>
      </contour>
    </TTGlyph>
    <TTGlyph name="brokenbar" xMin="96" yMin="-367" xMax="512" yMax="1673">
      <contour>
        <pt x="96" y="-367" on="1"/>
        <pt x="118" y="-133" on="0"/>
        <pt x="149" y="325" on="0"/>
        <pt x="156" y="555" on="1"/>
        <pt x="410" y="555" on="1"/>
        <pt x="410" y="520" on="0"/>
        <pt x="408" y="447" on="0"/>
        <pt x="408" y="412" on="1"/>
        <pt x="408" y="223" on="0"/>
        <pt x="427" y="-149" on="0"/>
        <pt x="442" y="-338" on="1"/>
      </contour>
      <contour>
        <pt x="512" y="1673" on="1"/>
        <pt x="472" y="1426" on="0"/>
        <pt x="431" y="940" on="0"/>
        <pt x="426" y="692" on="1"/>
        <pt x="162" y="692" on="1"/>
        <pt x="160" y="943" on="0"/>
        <pt x="128" y="1429" on="0"/>
        <pt x="96" y="1673" on="1"/>
      </contour>
    </TTGlyph>
    <TTGlyph name="bullet" xMin="127" yMin="266" xMax="705" yMax="713">
      <contour>
        <pt x="705" y="489" on="1"/>
        <pt x="705" y="443" on="0"/>
        <pt x="660" y="362" on="0"/>
        <pt x="583" y="301" on="0"/>
        <pt x="478" y="266" on="0"/>
        <pt x="418" y="266" on="1"/>
        <pt x="358" y="266" on="0"/>
        <pt x="252" y="301" on="0"/>
        <pt x="173" y="362" on="0"/>
        <pt x="127" y="443" on="0"/>
        <pt x="127" y="489" on="1"/>
        <pt x="127" y="535" on="0"/>
        <pt x="173" y="617" on="0"/>
        <pt x="252" y="678" on="0"/>
        <pt x="358" y="713" on="0"/>
        <pt x="418" y="713" on="1"/>
        <pt x="478" y="713" on="0"/>
        <pt x="583" y="678" on="0"/>
        <pt x="660" y="617" on="0"/>
        <pt x="705" y="535" on="0"/>
      </contour>
    </TTGlyph>
    <TTGlyph name="c" xMin="55" yMin="-55" xMax="1184" yMax="1063">
      <contour>
        <pt x="784" y="664" on="1"/>
        <pt x="789" y="688" on="0"/>
        <pt x="793" y="737" on="0"/>
        <pt x="793" y="762" on="1"/>
        <pt x="793" y="785" on="0"/>
        <pt x="789" y="829" on="0"/>
        <pt x="784" y="852" on="1"/>
        <pt x="741" y="860" on="0"/>
        <pt x="653" y="866" on="0"/>
        <pt x="606" y="866" on="1"/>
        <pt x="560" y="866" on="0"/>
        <pt x="466" y="860" on="0"/>
        <pt x="418" y="852" on="1"/>
        <pt x="413" y="798" on="0"/>
        <pt x="408" y="694" on="0"/>
        <pt x="408" y="641" on="1"/>
        <pt x="408" y="519" on="0"/>
        <pt x="433" y="280" on="0"/>
        <pt x="455" y="160" on="1"/>
        <pt x="500" y="155" on="0"/>
        <pt x="583" y="152" on="0"/>
        <pt x="627" y="152" on="1"/>
        <pt x="670" y="152" on="0"/>
        <pt x="754" y="155" on="0"/>
        <pt x="799" y="160" on="1"/>
        <pt x="801" y="181" on="0"/>
        <pt x="803" y="221" on="0"/>
        <pt x="803" y="240" on="1"/>
        <pt x="803" y="258" on="0"/>
        <pt x="801" y="294" on="0"/>
        <pt x="799" y="311" on="1"/>
        <pt x="1176" y="303" on="1"/>
        <pt x="1148" y="208" on="0"/>
        <pt x="1043" y="72" on="0"/>
        <pt x="900" y="-15" on="0"/>
        <pt x="724" y="-55" on="0"/>
        <pt x="627" y="-55" on="1"/>
        <pt x="508" y="-55" on="0"/>
        <pt x="299" y="9" on="0"/>
        <pt x="144" y="152" on="0"/>
        <pt x="55" y="382" on="0"/>
        <pt x="55" y="549" on="1"/>
        <pt x="55" y="684" on="0"/>
        <pt x="149" y="878" on="0"/>
        <pt x="306" y="1004" on="0"/>
        <pt x="513" y="1063" on="0"/>
        <pt x="627" y="1063" on="1"/>
        <pt x="728" y="1063" on="0"/>
        <pt x="910" y="1016" on="0"/>
        <pt x="1057" y="919" on="0"/>
        <pt x="1161" y="768" on="0"/>
        <pt x="1184" y="664" on="1"/>
      </contour>
    </TTGlyph>
    <TTGlyph name="cacute" xMin="55" yMin="-55" xMax="1184" yMax="1559">
      <component glyphName="c" x="0" y="0" flags="0x204"/>
      <component glyphName="acute" x="592" y="0" flags="0x4"/>
    </TTGlyph>
    <TTGlyph name="caron" xMin="0" yMin="1137" xMax="748" yMax="1507">
      <contour>
        <pt x="0" y="1446" on="1"/>
        <pt x="283" y="1507" on="1"/>
        <pt x="385" y="1245" on="1"/>
        <pt x="483" y="1491" on="1"/>
        <pt x="748" y="1491" on="1"/>
        <pt x="516" y="1163" on="1"/>
        <pt x="211" y="1137" on="1"/>
      </contour>
    </TTGlyph>
    <TTGlyph name="ccaron" xMin="55" yMin="-55" xMax="1184" yMax="1507">
      <component glyphName="c" x="0" y="0" flags="0x204"/>
      <component glyphName="caron" x="236" y="0" flags="0x4"/>
    </TTGlyph>
    <TTGlyph name="ccedilla" xMin="57" yMin="-484" xMax="1186" yMax="1063">
      <contour>
        <pt x="870" y="-287" on="1"/>
        <pt x="870" y="-341" on="0"/>
        <pt x="817" y="-415" on="0"/>
        <pt x="742" y="-462" on="0"/>
        <pt x="659" y="-483" on="0"/>
        <pt x="629" y="-483" on="1"/>
        <pt x="604" y="-484" on="0"/>
        <pt x="567" y="-481" on="1"/>
        <pt x="535" y="-479" on="0"/>
        <pt x="439" y="-471" on="0"/>
        <pt x="371" y="-463" on="1"/>
        <pt x="371" y="-344" on="1"/>
        <pt x="435" y="-350" on="0"/>
        <pt x="498" y="-350" on="1"/>
        <pt x="529" y="-350" on="0"/>
        <pt x="589" y="-347" on="0"/>
        <pt x="621" y="-344" on="1"/>
        <pt x="626" y="-329" on="0"/>
        <pt x="629" y="-296" on="0"/>
        <pt x="629" y="-281" on="1"/>
        <pt x="629" y="-265" on="0"/>
        <pt x="626" y="-235" on="0"/>
        <pt x="621" y="-219" on="1"/>
        <pt x="598" y="-216" on="0"/>
        <pt x="549" y="-211" on="0"/>
        <pt x="524" y="-211" on="1"/>
        <pt x="501" y="-211" on="0"/>
        <pt x="450" y="-216" on="0"/>
        <pt x="424" y="-219" on="1"/>
        <pt x="428" y="-208" on="0"/>
        <pt x="446" y="-172" on="0"/>
        <pt x="471" y="-126" on="0"/>
        <pt x="502" y="-74" on="0"/>
        <pt x="518" y="-47" on="1"/>
        <pt x="419" y="-34" on="0"/>
        <pt x="250" y="45" on="0"/>
        <pt x="127" y="188" on="0"/>
        <pt x="57" y="402" on="0"/>
        <pt x="57" y="549" on="1"/>
        <pt x="57" y="684" on="0"/>
        <pt x="151" y="878" on="0"/>
        <pt x="308" y="1004" on="0"/>
        <pt x="515" y="1063" on="0"/>
        <pt x="629" y="1063" on="1"/>
        <pt x="730" y="1063" on="0"/>
        <pt x="912" y="1016" on="0"/>
        <pt x="1059" y="919" on="0"/>
        <pt x="1163" y="768" on="0"/>
        <pt x="1186" y="664" on="1"/>
        <pt x="786" y="664" on="1"/>
        <pt x="791" y="688" on="0"/>
        <pt x="795" y="737" on="0"/>
        <pt x="795" y="762" on="1"/>
        <pt x="795" y="785" on="0"/>
        <pt x="791" y="829" on="0"/>
        <pt x="786" y="852" on="1"/>
        <pt x="743" y="860" on="0"/>
        <pt x="655" y="866" on="0"/>
        <pt x="608" y="866" on="1"/>
        <pt x="562" y="866" on="0"/>
        <pt x="468" y="860" on="0"/>
        <pt x="420" y="852" on="1"/>
        <pt x="415" y="798" on="0"/>
        <pt x="410" y="694" on="0"/>
        <pt x="410" y="641" on="1"/>
        <pt x="410" y="519" on="0"/>
        <pt x="435" y="280" on="0"/>
        <pt x="457" y="160" on="1"/>
        <pt x="502" y="155" on="0"/>
        <pt x="585" y="152" on="0"/>
        <pt x="629" y="152" on="1"/>
        <pt x="672" y="152" on="0"/>
        <pt x="756" y="155" on="0"/>
        <pt x="801" y="160" on="1"/>
        <pt x="803" y="181" on="0"/>
        <pt x="805" y="221" on="0"/>
        <pt x="805" y="240" on="1"/>
        <pt x="805" y="258" on="0"/>
        <pt x="803" y="294" on="0"/>
        <pt x="801" y="311" on="1"/>
        <pt x="1178" y="303" on="1"/>
        <pt x="1152" y="212" on="0"/>
        <pt x="1054" y="81" on="0"/>
        <pt x="921" y="-5" on="0"/>
        <pt x="758" y="-49" on="0"/>
        <pt x="668" y="-53" on="1"/>
        <pt x="635" y="-133" on="1"/>
        <pt x="723" y="-137" on="0"/>
        <pt x="819" y="-186" on="0"/>
        <pt x="841" y="-214" on="1"/>
        <pt x="867" y="-247" on="0"/>
      </contour>
    </TTGlyph>
    <TTGlyph name="ccircumflex" xMin="55" yMin="-55" xMax="1184" yMax="1507">
      <component glyphName="c" x="0" y="0" flags="0x204"/>
      <component glyphName="circumflex" x="236" y="0" flags="0x4"/>
    </TTGlyph>
    <TTGlyph name="cdotaccent" xMin="55" yMin="-55" xMax="1184" yMax="1349">
      <component glyphName="c" x="0" y="0" flags="0x204"/>
      <component glyphName="dotaccent" x="477" y="-105" flags="0x4"/>
    </TTGlyph>
    <TTGlyph name="cedilla" xMin="0" yMin="-484" xMax="500" yMax="51">
      <contour>
        <pt x="500" y="-287" on="1"/>
        <pt x="500" y="-341" on="0"/>
        <pt x="447" y="-415" on="0"/>
        <pt x="371" y="-462" on="0"/>
        <pt x="288" y="-483" on="0"/>
        <pt x="258" y="-483" on="1"/>
        <pt x="233" y="-484" on="0"/>
        <pt x="196" y="-481" on="1"/>
        <pt x="164" y="-479" on="0"/>
        <pt x="68" y="-471" on="0"/>
        <pt x="0" y="-463" on="1"/>
        <pt x="0" y="-344" on="1"/>
        <pt x="64" y="-350" on="0"/>
        <pt x="127" y="-350" on="1"/>
        <pt x="158" y="-350" on="0"/>
        <pt x="218" y="-347" on="0"/>
        <pt x="250" y="-344" on="1"/>
        <pt x="255" y="-329" on="0"/>
        <pt x="258" y="-296" on="0"/>
        <pt x="258" y="-281" on="1"/>
        <pt x="258" y="-265" on="0"/>
        <pt x="255" y="-235" on="0"/>
        <pt x="250" y="-219" on="1"/>
        <pt x="227" y="-216" on="0"/>
        <pt x="178" y="-211" on="0"/>
        <pt x="154" y="-211" on="1"/>
        <pt x="131" y="-211" on="0"/>
        <pt x="79" y="-216" on="0"/>
        <pt x="53" y="-219" on="1"/>
        <pt x="59" y="-204" on="0"/>
        <pt x="94" y="-140" on="0"/>
        <pt x="139" y="-63" on="0"/>
        <pt x="190" y="18" on="0"/>
        <pt x="213" y="51" on="1"/>
        <pt x="344" y="51" on="1"/>
        <pt x="264" y="-133" on="1"/>
        <pt x="308" y="-135" on="0"/>
        <pt x="375" y="-150" on="0"/>
        <pt x="425" y="-173" on="0"/>
        <pt x="459" y="-200" on="0"/>
        <pt x="470" y="-214" on="1"/>
        <pt x="496" y="-247" on="0"/>
      </contour>
    </TTGlyph>
    <TTGlyph name="cent" xMin="59" yMin="-279" xMax="1073" yMax="1710">
      <contour>
        <pt x="659" y="1710" on="1"/>
        <pt x="610" y="1210" on="1"/>
        <pt x="695" y="1206" on="0"/>
        <pt x="846" y="1160" on="0"/>
        <pt x="967" y="1073" on="0"/>
        <pt x="1053" y="941" on="0"/>
        <pt x="1073" y="852" on="1"/>
        <pt x="715" y="852" on="1"/>
        <pt x="720" y="875" on="0"/>
        <pt x="723" y="918" on="0"/>
        <pt x="723" y="940" on="1"/>
        <pt x="723" y="962" on="0"/>
        <pt x="720" y="1000" on="0"/>
        <pt x="715" y="1022" on="1"/>
        <pt x="638" y="1034" on="0"/>
        <pt x="555" y="1034" on="1"/>
        <pt x="470" y="1034" on="0"/>
        <pt x="385" y="1022" on="1"/>
        <pt x="380" y="972" on="0"/>
        <pt x="375" y="879" on="0"/>
        <pt x="375" y="831" on="1"/>
        <pt x="375" y="722" on="0"/>
        <pt x="398" y="508" on="0"/>
        <pt x="418" y="399" on="1"/>
        <pt x="458" y="394" on="0"/>
        <pt x="533" y="391" on="0"/>
        <pt x="573" y="391" on="1"/>
        <pt x="612" y="391" on="0"/>
        <pt x="687" y="394" on="0"/>
        <pt x="727" y="399" on="1"/>
        <pt x="729" y="418" on="0"/>
        <pt x="731" y="454" on="0"/>
        <pt x="731" y="471" on="1"/>
        <pt x="731" y="488" on="0"/>
        <pt x="729" y="519" on="0"/>
        <pt x="727" y="535" on="1"/>
        <pt x="1067" y="528" on="1"/>
        <pt x="1043" y="447" on="0"/>
        <pt x="956" y="328" on="0"/>
        <pt x="837" y="250" on="0"/>
        <pt x="693" y="209" on="0"/>
        <pt x="612" y="205" on="1"/>
        <pt x="662" y="-279" on="1"/>
        <pt x="438" y="-279" on="1"/>
        <pt x="485" y="209" on="1"/>
        <pt x="394" y="220" on="0"/>
        <pt x="238" y="290" on="0"/>
        <pt x="124" y="420" on="0"/>
        <pt x="59" y="615" on="0"/>
        <pt x="59" y="750" on="1"/>
        <pt x="59" y="858" on="0"/>
        <pt x="126" y="1020" on="0"/>
        <pt x="242" y="1132" on="0"/>
        <pt x="397" y="1196" on="0"/>
        <pt x="485" y="1206" on="1"/>
        <pt x="436" y="1710" on="1"/>
      </contour>
    </TTGlyph>
    <TTGlyph name="circumflex" xMin="0" yMin="1137" xMax="748" yMax="1507">
      <contour>
        <pt x="748" y="1198" on="1"/>
        <pt x="465" y="1137" on="1"/>
        <pt x="362" y="1399" on="1"/>
        <pt x="264" y="1153" on="1"/>
        <pt x="0" y="1153" on="1"/>
        <pt x="231" y="1481" on="1"/>
        <pt x="537" y="1507" on="1"/>
      </contour>
    </TTGlyph>
    <TTGlyph name="colon" xMin="111" yMin="-80" xMax="481" yMax="901">
      <contour>
        <pt x="481" y="61" on="1"/>
        <pt x="481" y="32" on="0"/>
        <pt x="452" y="-19" on="0"/>
        <pt x="401" y="-58" on="0"/>
        <pt x="334" y="-80" on="0"/>
        <pt x="297" y="-80" on="1"/>
        <pt x="258" y="-80" on="0"/>
        <pt x="190" y="-58" on="0"/>
        <pt x="140" y="-19" on="0"/>
        <pt x="111" y="32" on="0"/>
        <pt x="111" y="61" on="1"/>
        <pt x="111" y="91" on="0"/>
        <pt x="140" y="143" on="0"/>
        <pt x="190" y="182" on="0"/>
        <pt x="258" y="205" on="0"/>
        <pt x="297" y="205" on="1"/>
        <pt x="334" y="205" on="0"/>
        <pt x="401" y="182" on="0"/>
        <pt x="452" y="143" on="0"/>
        <pt x="481" y="91" on="0"/>
      </contour>
      <contour>
        <pt x="481" y="758" on="1"/>
        <pt x="481" y="729" on="0"/>
        <pt x="452" y="677" on="0"/>
        <pt x="401" y="638" on="0"/>
        <pt x="334" y="616" on="0"/>
        <pt x="297" y="616" on="1"/>
        <pt x="258" y="616" on="0"/>
        <pt x="190" y="638" on="0"/>
        <pt x="140" y="677" on="0"/>
        <pt x="111" y="729" on="0"/>
        <pt x="111" y="758" on="1"/>
        <pt x="111" y="788" on="0"/>
        <pt x="140" y="840" on="0"/>
        <pt x="190" y="879" on="0"/>
        <pt x="258" y="901" on="0"/>
        <pt x="297" y="901" on="1"/>
        <pt x="334" y="901" on="0"/>
        <pt x="401" y="879" on="0"/>
        <pt x="452" y="840" on="0"/>
        <pt x="481" y="788" on="0"/>
      </contour>
    </TTGlyph>
    <TTGlyph name="comma" xMin="86" yMin="-293" xMax="510" yMax="225">
      <contour>
        <pt x="510" y="61" on="1"/>
        <pt x="508" y="-7" on="0"/>
        <pt x="471" y="-134" on="0"/>
        <pt x="449" y="-184" on="1"/>
        <pt x="423" y="-242" on="0"/>
        <pt x="391" y="-293" on="1"/>
        <pt x="176" y="-260" on="1"/>
        <pt x="208" y="-217" on="0"/>
        <pt x="247" y="-131" on="0"/>
        <pt x="258" y="-96" on="1"/>
        <pt x="221" y="-91" on="0"/>
        <pt x="158" y="-63" on="0"/>
        <pt x="112" y="-21" on="0"/>
        <pt x="86" y="31" on="0"/>
        <pt x="86" y="61" on="1"/>
        <pt x="86" y="95" on="0"/>
        <pt x="120" y="155" on="0"/>
        <pt x="178" y="199" on="0"/>
        <pt x="255" y="225" on="0"/>
        <pt x="299" y="225" on="1"/>
        <pt x="343" y="225" on="0"/>
        <pt x="420" y="199" on="0"/>
        <pt x="477" y="155" on="0"/>
        <pt x="510" y="95" on="0"/>
      </contour>
    </TTGlyph>
    <TTGlyph name="copyright" xMin="76" yMin="360" xMax="780" yMax="1057">
      <contour>
        <pt x="618" y="748" on="1"/>
        <pt x="586" y="748" on="0"/>
        <pt x="531" y="744" on="0"/>
        <pt x="496" y="741" on="1"/>
        <pt x="499" y="754" on="0"/>
        <pt x="500" y="783" on="0"/>
        <pt x="500" y="799" on="1"/>
        <pt x="500" y="808" on="0"/>
        <pt x="500" y="826" on="0"/>
        <pt x="498" y="836" on="1"/>
        <pt x="481" y="841" on="0"/>
        <pt x="435" y="846" on="0"/>
        <pt x="412" y="846" on="1"/>
        <pt x="396" y="846" on="0"/>
        <pt x="365" y="844" on="0"/>
        <pt x="352" y="842" on="1"/>
        <pt x="347" y="811" on="0"/>
        <pt x="342" y="747" on="0"/>
        <pt x="342" y="715" on="1"/>
        <pt x="342" y="680" on="0"/>
        <pt x="347" y="610" on="0"/>
        <pt x="352" y="575" on="1"/>
        <pt x="371" y="569" on="0"/>
        <pt x="424" y="563" on="0"/>
        <pt x="449" y="563" on="1"/>
        <pt x="458" y="563" on="0"/>
        <pt x="473" y="563" on="0"/>
        <pt x="481" y="565" on="1"/>
        <pt x="484" y="579" on="0"/>
        <pt x="487" y="616" on="0"/>
        <pt x="487" y="635" on="1"/>
        <pt x="487" y="664" on="1"/>
        <pt x="507" y="662" on="0"/>
        <pt x="543" y="659" on="0"/>
        <pt x="561" y="659" on="1"/>
        <pt x="574" y="659" on="0"/>
        <pt x="601" y="660" on="0"/>
        <pt x="616" y="662" on="1"/>
        <pt x="606" y="607" on="0"/>
        <pt x="552" y="545" on="0"/>
        <pt x="490" y="515" on="0"/>
        <pt x="432" y="508" on="0"/>
        <pt x="418" y="508" on="1"/>
        <pt x="358" y="508" on="0"/>
        <pt x="284" y="542" on="0"/>
        <pt x="243" y="596" on="0"/>
        <pt x="229" y="662" on="0"/>
        <pt x="229" y="694" on="1"/>
        <pt x="229" y="786" on="0"/>
        <pt x="325" y="897" on="0"/>
        <pt x="432" y="903" on="1"/>
        <pt x="466" y="903" on="0"/>
        <pt x="529" y="883" on="0"/>
        <pt x="579" y="843" on="0"/>
        <pt x="613" y="785" on="0"/>
      </contour>
      <contour>
        <pt x="614" y="485" on="1"/>
        <pt x="675" y="716" on="0"/>
        <pt x="614" y="942" on="1"/>
        <pt x="597" y="945" on="0"/>
        <pt x="547" y="949" on="0"/>
        <pt x="495" y="952" on="0"/>
        <pt x="445" y="954" on="0"/>
        <pt x="428" y="954" on="1"/>
        <pt x="411" y="954" on="0"/>
        <pt x="361" y="952" on="0"/>
        <pt x="307" y="949" on="0"/>
        <pt x="257" y="945" on="0"/>
        <pt x="240" y="942" on="1"/>
        <pt x="196" y="823" on="0"/>
        <pt x="198" y="596" on="0"/>
        <pt x="254" y="475" on="1"/>
        <pt x="266" y="473" on="0"/>
        <pt x="308" y="471" on="0"/>
        <pt x="352" y="470" on="0"/>
        <pt x="392" y="469" on="0"/>
        <pt x="403" y="469" on="1"/>
        <pt x="423" y="469" on="0"/>
        <pt x="479" y="471" on="0"/>
        <pt x="538" y="475" on="0"/>
        <pt x="594" y="481" on="0"/>
      </contour>
      <contour>
        <pt x="780" y="694" on="1"/>
        <pt x="777" y="627" on="0"/>
        <pt x="735" y="525" on="0"/>
        <pt x="670" y="451" on="0"/>
        <pt x="591" y="402" on="0"/>
        <pt x="510" y="372" on="0"/>
        <pt x="435" y="360" on="0"/>
        <pt x="408" y="360" on="1"/>
        <pt x="381" y="360" on="0"/>
        <pt x="310" y="370" on="0"/>
        <pt x="237" y="399" on="0"/>
        <pt x="166" y="448" on="0"/>
        <pt x="110" y="525" on="0"/>
        <pt x="76" y="635" on="0"/>
        <pt x="76" y="709" on="1"/>
        <pt x="76" y="779" on="0"/>
        <pt x="110" y="885" on="0"/>
        <pt x="167" y="962" on="0"/>
        <pt x="240" y="1012" on="0"/>
        <pt x="317" y="1043" on="0"/>
        <pt x="393" y="1056" on="0"/>
        <pt x="424" y="1057" on="1"/>
        <pt x="483" y="1057" on="0"/>
        <pt x="609" y="1020" on="0"/>
        <pt x="713" y="935" on="0"/>
        <pt x="780" y="796" on="0"/>
      </contour>
    </TTGlyph>
    <TTGlyph name="currency" xMin="82" yMin="326" xMax="901" yMax="1120">
      <contour>
        <pt x="612" y="563" on="1"/>
        <pt x="615" y="605" on="0"/>
        <pt x="616" y="685" on="0"/>
        <pt x="616" y="725" on="1"/>
        <pt x="616" y="765" on="0"/>
        <pt x="615" y="843" on="0"/>
        <pt x="612" y="885" on="1"/>
        <pt x="595" y="888" on="0"/>
        <pt x="562" y="889" on="0"/>
        <pt x="545" y="889" on="1"/>
        <pt x="510" y="889" on="0"/>
        <pt x="442" y="882" on="0"/>
        <pt x="410" y="874" on="1"/>
        <pt x="408" y="847" on="0"/>
        <pt x="406" y="794" on="0"/>
        <pt x="406" y="768" on="1"/>
        <pt x="406" y="714" on="0"/>
        <pt x="414" y="608" on="0"/>
        <pt x="422" y="551" on="1"/>
        <pt x="469" y="551" on="1"/>
        <pt x="538" y="551" on="0"/>
      </contour>
      <contour>
        <pt x="901" y="993" on="1"/>
        <pt x="762" y="862" on="1"/>
        <pt x="779" y="833" on="0"/>
        <pt x="797" y="761" on="0"/>
        <pt x="797" y="721" on="1"/>
        <pt x="797" y="672" on="0"/>
        <pt x="780" y="629" on="1"/>
        <pt x="809" y="598" on="0"/>
        <pt x="870" y="539" on="0"/>
        <pt x="901" y="510" on="1"/>
        <pt x="662" y="326" on="1"/>
        <pt x="659" y="330" on="0"/>
        <pt x="632" y="364" on="0"/>
        <pt x="602" y="402" on="0"/>
        <pt x="575" y="435" on="0"/>
        <pt x="571" y="440" on="1"/>
        <pt x="554" y="435" on="0"/>
        <pt x="520" y="432" on="0"/>
        <pt x="502" y="432" on="1"/>
        <pt x="458" y="432" on="0"/>
        <pt x="384" y="455" on="0"/>
        <pt x="352" y="475" on="1"/>
        <pt x="227" y="354" on="1"/>
        <pt x="82" y="451" on="1"/>
        <pt x="248" y="604" on="1"/>
        <pt x="225" y="658" on="0"/>
        <pt x="225" y="721" on="1"/>
        <pt x="225" y="793" on="0"/>
        <pt x="244" y="844" on="1"/>
        <pt x="206" y="887" on="0"/>
        <pt x="124" y="972" on="0"/>
        <pt x="82" y="1016" on="1"/>
        <pt x="377" y="1120" on="1"/>
        <pt x="457" y="1004" on="1"/>
        <pt x="468" y="1006" on="0"/>
        <pt x="489" y="1008" on="0"/>
        <pt x="502" y="1008" on="1"/>
        <pt x="544" y="1008" on="0"/>
        <pt x="619" y="990" on="0"/>
        <pt x="651" y="973" on="1"/>
        <pt x="774" y="1081" on="1"/>
      </contour>
    </TTGlyph>
    <TTGlyph name="d" xMin="55" yMin="-20" xMax="1255" yMax="1468">
      <contour>
        <pt x="1255" y="1446" on="1"/>
        <pt x="1232" y="1088" on="0"/>
        <pt x="1212" y="353" on="0"/>
        <pt x="1212" y="-10" on="1"/>
        <pt x="879" y="-10" on="1"/>
        <pt x="885" y="102" on="1"/>
        <pt x="837" y="56" on="0"/>
        <pt x="721" y="6" on="0"/>
        <pt x="669" y="-5" on="1"/>
        <pt x="608" y="-18" on="0"/>
        <pt x="547" y="-20" on="1"/>
        <pt x="433" y="-20" on="0"/>
        <pt x="250" y="62" on="0"/>
        <pt x="123" y="210" on="0"/>
        <pt x="55" y="418" on="0"/>
        <pt x="55" y="543" on="1"/>
        <pt x="55" y="626" on="0"/>
        <pt x="95" y="768" on="0"/>
        <pt x="165" y="884" on="0"/>
        <pt x="259" y="972" on="0"/>
        <pt x="365" y="1032" on="0"/>
        <pt x="479" y="1063" on="0"/>
        <pt x="535" y="1063" on="1"/>
        <pt x="604" y="1061" on="0"/>
        <pt x="670" y="1045" on="1"/>
        <pt x="698" y="1038" on="0"/>
        <pt x="758" y="1017" on="0"/>
        <pt x="817" y="987" on="0"/>
        <pt x="872" y="947" on="0"/>
        <pt x="895" y="920" on="1"/>
        <pt x="892" y="1059" on="0"/>
        <pt x="884" y="1332" on="0"/>
        <pt x="879" y="1468" on="1"/>
      </contour>
      <contour>
        <pt x="764" y="242" on="1"/>
        <pt x="792" y="242" on="0"/>
        <pt x="855" y="242" on="0"/>
        <pt x="889" y="244" on="1"/>
        <pt x="894" y="347" on="0"/>
        <pt x="897" y="556" on="0"/>
        <pt x="897" y="662" on="1"/>
        <pt x="897" y="784" on="1"/>
        <pt x="822" y="792" on="0"/>
        <pt x="695" y="803" on="0"/>
        <pt x="623" y="803" on="1"/>
        <pt x="585" y="803" on="0"/>
        <pt x="504" y="800" on="0"/>
        <pt x="455" y="797" on="1"/>
        <pt x="442" y="707" on="0"/>
        <pt x="430" y="529" on="0"/>
        <pt x="430" y="438" on="1"/>
        <pt x="430" y="393" on="0"/>
        <pt x="431" y="305" on="0"/>
        <pt x="436" y="260" on="1"/>
        <pt x="486" y="255" on="0"/>
        <pt x="571" y="249" on="0"/>
        <pt x="650" y="244" on="0"/>
        <pt x="725" y="242" on="0"/>
      </contour>
    </TTGlyph>
    <TTGlyph name="dagger" xMin="59" yMin="-338" xMax="823" yMax="1640">
      <contour>
        <pt x="823" y="1063" on="1"/>
        <pt x="764" y="1065" on="0"/>
        <pt x="649" y="1067" on="0"/>
        <pt x="590" y="1067" on="1"/>
        <pt x="567" y="-338" on="1"/>
        <pt x="311" y="-338" on="1"/>
        <pt x="297" y="1065" on="1"/>
        <pt x="59" y="1059" on="1"/>
        <pt x="59" y="1264" on="1"/>
        <pt x="118" y="1262" on="0"/>
        <pt x="235" y="1260" on="0"/>
        <pt x="295" y="1260" on="1"/>
        <pt x="291" y="1640" on="1"/>
        <pt x="600" y="1640" on="1"/>
        <pt x="594" y="1260" on="1"/>
        <pt x="651" y="1260" on="0"/>
        <pt x="766" y="1265" on="0"/>
        <pt x="823" y="1268" on="1"/>
      </contour>
    </TTGlyph>
    <TTGlyph name="daggerdbl" xMin="74" yMin="-338" xMax="838" yMax="1640">
      <contour>
        <pt x="838" y="45" on="1"/>
        <pt x="775" y="47" on="0"/>
        <pt x="650" y="49" on="0"/>
        <pt x="588" y="49" on="1"/>
        <pt x="582" y="-338" on="1"/>
        <pt x="326" y="-338" on="1"/>
        <pt x="322" y="47" on="1"/>
        <pt x="259" y="47" on="0"/>
        <pt x="136" y="43" on="0"/>
        <pt x="74" y="41" on="1"/>
        <pt x="74" y="246" on="1"/>
        <pt x="136" y="244" on="0"/>
        <pt x="258" y="242" on="0"/>
        <pt x="319" y="242" on="1"/>
        <pt x="311" y="1065" on="1"/>
        <pt x="74" y="1059" on="1"/>
        <pt x="74" y="1264" on="1"/>
        <pt x="133" y="1262" on="0"/>
        <pt x="249" y="1260" on="0"/>
        <pt x="309" y="1260" on="1"/>
        <pt x="305" y="1640" on="1"/>
        <pt x="614" y="1640" on="1"/>
        <pt x="608" y="1260" on="1"/>
        <pt x="665" y="1260" on="0"/>
        <pt x="781" y="1265" on="0"/>
        <pt x="838" y="1268" on="1"/>
        <pt x="838" y="1063" on="1"/>
        <pt x="779" y="1065" on="0"/>
        <pt x="663" y="1067" on="0"/>
        <pt x="604" y="1067" on="1"/>
        <pt x="590" y="242" on="1"/>
        <pt x="652" y="242" on="0"/>
        <pt x="776" y="245" on="0"/>
        <pt x="838" y="250" on="1"/>
      </contour>
    </TTGlyph>
    <TTGlyph name="dcaron" xMin="55" yMin="-20" xMax="1626" yMax="1485">
      <component glyphName="d" x="0" y="0" flags="0x4"/>
      <component glyphName="uni0315" x="1329" y="0" flags="0x4"/>
    </TTGlyph>
    <TTGlyph name="dcroat" xMin="55" yMin="-20" xMax="1397" yMax="1468">
      <contour>
        <pt x="1255" y="1446" on="1"/>
        <pt x="1249" y="1343" on="1"/>
        <pt x="1397" y="1337" on="1"/>
        <pt x="1380" y="1067" on="1"/>
        <pt x="1235" y="1071" on="1"/>
        <pt x="1223" y="801" on="0"/>
        <pt x="1212" y="259" on="0"/>
        <pt x="1212" y="-10" on="1"/>
        <pt x="879" y="-10" on="1"/>
        <pt x="885" y="102" on="1"/>
        <pt x="837" y="56" on="0"/>
        <pt x="721" y="6" on="0"/>
        <pt x="669" y="-5" on="1"/>
        <pt x="608" y="-18" on="0"/>
        <pt x="547" y="-20" on="1"/>
        <pt x="433" y="-20" on="0"/>
        <pt x="250" y="62" on="0"/>
        <pt x="123" y="210" on="0"/>
        <pt x="55" y="418" on="0"/>
        <pt x="55" y="543" on="1"/>
        <pt x="55" y="626" on="0"/>
        <pt x="95" y="768" on="0"/>
        <pt x="165" y="884" on="0"/>
        <pt x="259" y="972" on="0"/>
        <pt x="365" y="1032" on="0"/>
        <pt x="479" y="1063" on="0"/>
        <pt x="535" y="1063" on="1"/>
        <pt x="604" y="1061" on="0"/>
        <pt x="670" y="1045" on="1"/>
        <pt x="698" y="1038" on="0"/>
        <pt x="758" y="1017" on="0"/>
        <pt x="817" y="987" on="0"/>
        <pt x="872" y="947" on="0"/>
        <pt x="895" y="920" on="1"/>
        <pt x="891" y="1085" on="1"/>
        <pt x="680" y="1094" on="1"/>
        <pt x="694" y="1372" on="1"/>
        <pt x="883" y="1362" on="1"/>
        <pt x="881" y="1388" on="0"/>
        <pt x="879" y="1442" on="0"/>
        <pt x="879" y="1468" on="1"/>
      </contour>
      <contour>
        <pt x="764" y="242" on="1"/>
        <pt x="792" y="242" on="0"/>
        <pt x="855" y="242" on="0"/>
        <pt x="889" y="244" on="1"/>
        <pt x="894" y="347" on="0"/>
        <pt x="897" y="556" on="0"/>
        <pt x="897" y="662" on="1"/>
        <pt x="897" y="784" on="1"/>
        <pt x="822" y="792" on="0"/>
        <pt x="695" y="803" on="0"/>
        <pt x="623" y="803" on="1"/>
        <pt x="585" y="803" on="0"/>
        <pt x="504" y="800" on="0"/>
        <pt x="455" y="797" on="1"/>
        <pt x="442" y="707" on="0"/>
        <pt x="430" y="529" on="0"/>
        <pt x="430" y="438" on="1"/>
        <pt x="430" y="393" on="0"/>
        <pt x="431" y="305" on="0"/>
        <pt x="436" y="260" on="1"/>
        <pt x="486" y="255" on="0"/>
        <pt x="571" y="249" on="0"/>
        <pt x="650" y="244" on="0"/>
        <pt x="725" y="242" on="0"/>
      </contour>
    </TTGlyph>
    <TTGlyph name="degree" xMin="70" yMin="975" xMax="637" yMax="1427">
      <contour>
        <pt x="449" y="1110" on="1"/>
        <pt x="455" y="1162" on="0"/>
        <pt x="455" y="1217" on="1"/>
        <pt x="455" y="1267" on="0"/>
        <pt x="449" y="1317" on="1"/>
        <pt x="438" y="1317" on="0"/>
        <pt x="422" y="1319" on="0"/>
        <pt x="414" y="1319" on="1"/>
        <pt x="369" y="1319" on="0"/>
        <pt x="286" y="1311" on="0"/>
        <pt x="246" y="1303" on="1"/>
        <pt x="241" y="1280" on="0"/>
        <pt x="238" y="1231" on="0"/>
        <pt x="238" y="1206" on="1"/>
        <pt x="238" y="1183" on="0"/>
        <pt x="241" y="1135" on="0"/>
        <pt x="246" y="1110" on="1"/>
        <pt x="298" y="1104" on="0"/>
        <pt x="346" y="1104" on="1"/>
        <pt x="396" y="1104" on="0"/>
      </contour>
      <contour>
        <pt x="637" y="1200" on="1"/>
        <pt x="637" y="1153" on="0"/>
        <pt x="593" y="1071" on="0"/>
        <pt x="516" y="1010" on="0"/>
        <pt x="413" y="975" on="0"/>
        <pt x="354" y="975" on="1"/>
        <pt x="295" y="975" on="0"/>
        <pt x="192" y="1010" on="0"/>
        <pt x="115" y="1071" on="0"/>
        <pt x="70" y="1153" on="0"/>
        <pt x="70" y="1200" on="1"/>
        <pt x="70" y="1247" on="0"/>
        <pt x="115" y="1330" on="0"/>
        <pt x="192" y="1391" on="0"/>
        <pt x="295" y="1427" on="0"/>
        <pt x="354" y="1427" on="1"/>
        <pt x="413" y="1427" on="0"/>
        <pt x="516" y="1391" on="0"/>
        <pt x="593" y="1330" on="0"/>
        <pt x="637" y="1247" on="0"/>
      </contour>
    </TTGlyph>
</ttFont>
